<?xml version="1.0" standalone="no"?>
<!DOCTYPE svg PUBLIC "-//W3C//DTD SVG 1.1//EN" "http://www.w3.org/Graphics/SVG/1.1/DTD/svg11.dtd" >
<svg>
<metadata>
Created by FontForge 20090914 at Thu Oct 31 01:30:13 2013
 By www-data
Copyright (c) 2010-2011 by tyPoland Lukasz Dziedzic with Reserved Font Name "Lato". Licensed under the SIL Open Font License, Version 1.1. 
</metadata>
<defs>
<font id="Lato-Light" horiz-adv-x="1187" >
  <font-face 
    font-family="Lato Light"
    font-weight="300"
    font-stretch="normal"
    units-per-em="2048"
    panose-1="2 15 3 2 2 2 4 3 2 3"
    ascent="1649"
    descent="-399"
    x-height="1019"
    cap-height="1449"
    bbox="-207 -380.001 2222 1832"
    underline-thickness="69"
    underline-position="-135"
    unicode-range="U+000D-U+FB02"
  />
<missing-glyph horiz-adv-x="748" 
d="M68 0v1365h544v-1365h-544zM136 68h408v1229h-408v-1229z" />
    <glyph glyph-name="uniFB01" unicode="fi" horiz-adv-x="1091" 
d="M31 947l0.00390625 40h173v87c0 62.667 9.16699 119.167 27.5 169.5s45.166 93 80.499 128s78.166 62 128.499 81s107.833 28.5 172.5 28.5c22.667 0 46.167 -2 70.5 -6s44.5 -9.33301 60.5 -16l-4 -49c-0.666992 -6.66699 -5.33398 -10 -14.001 -10
c-7.33301 0 -18.333 1.16699 -33 3.5s-33.334 3.5 -56.001 3.5c-108 0 -191.333 -27.667 -250 -83s-88 -139.666 -88 -252.999v-84h597v-987h-98v914h-497v-914h-97v912l-144 10c-20 1.33301 -29.667 9.66602 -29 24.999z" />
    <glyph glyph-name="uniFB02" unicode="fl" horiz-adv-x="1159" 
d="M31 947l0.00195312 40.001h173v67c0 60 8.83301 115.667 26.5 167s43.5 95.833 77.5 133.5s76.5 67.167 127.5 88.5s109.167 32 174.5 32c23.333 0 47.5 -0.833008 72.5 -2.5s49.333 -3.5 73 -5.5s45.667 -3.66699 66 -5s37.5 -2 51.5 -2h74v-1460h-97v1392
c-36.667 1.33301 -75.334 3.33301 -116.001 6s-77.334 4 -110.001 4c-51.333 0 -97.166 -8 -137.499 -24s-74.333 -39.167 -102 -69.5s-48.834 -67 -63.501 -110s-22 -91.167 -22 -144.5v-67h295v-73h-293v-914h-97v912l-144 10c-20 1.33301 -29.667 9.66602 -29 24.999z
" />
    <glyph glyph-name=".notdef" horiz-adv-x="748" 
d="M68 0v1365h544v-1365h-544zM136 68h408v1229h-408v-1229z" />
    <glyph glyph-name="glyph3" horiz-adv-x="0" 
 />
    <glyph glyph-name="glyph3" horiz-adv-x="0" 
 />
    <glyph glyph-name="uni000D" unicode="&#xd;" horiz-adv-x="0" 
 />
    <glyph glyph-name="space" unicode=" " horiz-adv-x="395" 
 />
    <glyph glyph-name="exclam" unicode="!" horiz-adv-x="660" 
d="M236 79c0 12.667 2.33398 24.834 7.00098 36.501s11.167 21.834 19.5 30.501s18.166 15.5 29.499 20.5s24 7.5 38 7.5c12.667 0 24.834 -2.5 36.501 -7.5s21.834 -11.833 30.501 -20.5s15.5 -18.834 20.5 -30.501s7.5 -23.834 7.5 -36.501
c0 -13.333 -2.5 -25.666 -7.5 -36.999s-11.833 -21.333 -20.5 -30s-18.834 -15.334 -30.501 -20.001s-23.834 -7 -36.501 -7c-26.667 0 -49 9 -67 27s-27 40.333 -27 67zM286.001 863v586h95v-586c0 -30.667 -0.333008 -59.667 -1 -87s-1.5 -55.166 -2.5 -83.499
s-2.5 -58.166 -4.5 -89.499s-4 -66 -6 -104h-67c-2 38 -4 72.667 -6 104s-3.5 61.166 -4.5 89.499s-1.83301 56.166 -2.5 83.499s-1 56.333 -1 87z" />
    <glyph glyph-name="quotedbl" unicode="&#x22;" horiz-adv-x="751" 
d="M184 1150l-0.00195312 299h85v-299l-9 -157c-1.33301 -11.333 -4.33301 -20.333 -9 -27s-13 -10 -25 -10c-9.33301 0 -16.666 3.33301 -21.999 10s-8.66602 15.667 -9.99902 27zM480.998 1150l-0.000976562 299h85v-299l-9 -157
c-1.33301 -11.333 -4.33301 -20.333 -9 -27s-13 -10 -25 -10c-9.33301 0 -16.666 3.33301 -21.999 10s-9 15.667 -11 27z" />
    <glyph glyph-name="numbersign" unicode="#" 
d="M88 484l-0.00390625 9.99902c0 3.33301 0.666992 8.33301 2 15l3 16h223l84 399h-259l6 39c2.66699 22.667 18 33.667 46 33h218l89 414c2.66699 12.667 8.16699 22.334 16.5 29.001s18.5 10 30.5 10h43l-97 -453h305l97 453h43c21.333 0 32 -10.333 32 -31
c0 -5.33301 -0.333008 -9.33301 -1 -12l-89 -410h230l-6 -39c-3.33301 -22.667 -18.666 -33.667 -45.999 -33h-189l-84 -399h231c20.667 0 31 -8.66699 31 -26l-5 -45h-267l-96 -454h-42c-9.33301 -0 -17.166 2.83301 -23.499 8.5s-9.5 14.167 -9.5 25.5
c0 4.66699 0.333008 8.33398 1 11.001l88 409h-305l-88 -413c-3.33301 -15.333 -9.16602 -26 -17.499 -32s-18.166 -9 -29.499 -9h-43l96 454h-187c-9.33301 0 -16.833 2.16699 -22.5 6.5s-8.5 12.166 -8.5 23.499zM397.996 524.999h305l84 399h-305z" />
    <glyph glyph-name="dollar" unicode="$" 
d="M156 173l26.9971 39.998c8 10 17.667 15 29 15c6 0 13.667 -3.66699 23 -11s20.5 -16.666 33.5 -27.999s28.333 -23.666 46 -36.999s38.334 -26 62.001 -38s50.5 -22.333 80.5 -31s64 -14 102 -16l33 651c-46.667 14.667 -92 30.834 -136 48.501
s-83.167 40.334 -117.5 68.001s-62.166 61.667 -83.499 102s-32 91.5 -32 153.5c0 47.333 8.83301 92.833 26.5 136.5s43.834 82.834 78.501 117.501s77.167 62.5 127.5 83.5s108.166 32.5 173.499 34.5l9 172c0.666992 9.33301 3.5 17.166 8.5 23.499s12.5 9.5 22.5 9.5h37
l-12 -206c68.667 -4.66699 129 -19.834 181 -45.501s99.667 -59.834 143 -102.501l-23 -35c-6.66699 -11.333 -15.334 -17 -26.001 -17c-8 0 -18.833 5.5 -32.5 16.5s-31.167 23.333 -52.5 37s-47.833 26.834 -79.5 39.501s-69.834 20.667 -114.501 24l-30 -585
c32 -10 64.333 -20.667 97 -32s63.834 -23.833 93.501 -37.5s57.167 -29.334 82.5 -47.001s47.333 -38.5 66 -62.5s33.334 -51.667 44.001 -83s16 -67.333 16 -108c0 -58.667 -10 -114 -30 -166s-48.5 -97.667 -85.5 -137s-82.667 -70.833 -137 -94.5
s-116.166 -37.167 -185.499 -40.5l-12 -216c-0.666992 -8.66699 -3.5 -16.167 -8.5 -22.5s-11.833 -9.5 -20.5 -9.5h-37l12 248c-87.333 4 -163.5 22.667 -228.5 56s-121.833 77.333 -170.5 132zM313.997 1098c0 -42 7.5 -78.1689 22.5 -108.502s35.5 -56.166 61.5 -77.499
s56 -39.666 90 -54.999s70 -29.666 108 -42.999l29 565c-52 -2.66699 -97.333 -12.167 -136 -28.5s-71 -37.333 -97 -63s-45.5 -54.834 -58.5 -87.501s-19.5 -66.667 -19.5 -102zM624.997 66.9961c54.667 3.33301 103.333 14.332 146 32.999s78.5 43.167 107.5 73.5
s51 65.5 66 105.5s22.5 83 22.5 129c0 45.333 -8.66699 83.5 -26 114.5s-40.333 57.5 -69 79.5s-61.5 40.333 -98.5 55s-76.167 28.334 -117.5 41.001z" />
    <glyph glyph-name="percent" unicode="%" horiz-adv-x="1570" 
d="M89 1101c0 60 7.83301 112.833 23.5 158.5s37.167 83.667 64.5 114s59.666 53.166 96.999 68.499s77 23 119 23s81.5 -7.66699 118.5 -23s69.333 -38.166 97 -68.499s49.5 -68.333 65.5 -114s24 -98.5 24 -158.5c0 -59.333 -8.16699 -111.666 -24.5 -156.999
s-38.5 -83.166 -66.5 -113.499s-60.333 -53.166 -97 -68.499s-75.667 -23 -117 -23c-42 0 -81.667 7.66699 -119 23s-69.666 38.166 -96.999 68.499s-48.833 68.166 -64.5 113.499s-23.5 97.666 -23.5 156.999zM168 1101c0 -52.667 6 -97.667 18 -135
s28.167 -67.833 48.5 -91.5s44.166 -41.167 71.499 -52.5s56.333 -17 87 -17s59.834 5.66699 87.501 17s52 28.833 73 52.5s37.5 54.167 49.5 91.5s18 82.333 18 135s-6 97.667 -18 135s-28.5 68.166 -49.5 92.499s-45.333 42.166 -73 53.499s-56.834 17 -87.501 17
s-59.667 -5.66699 -87 -17s-51.166 -29.166 -71.499 -53.499s-36.5 -55.166 -48.5 -92.499s-18 -82.333 -18 -135zM209 0l1039 1431c4 5.33301 9 9.66602 15 12.999s13.667 5 23 5h69l-1041 -1431c-8.66699 -12 -20.334 -18 -35.001 -18h-70zM872.001 344.001
c0 60 7.99902 112.833 23.999 158.5s37.5 83.834 64.5 114.501s59.167 53.667 96.5 69s77.333 23 120 23c42 0 81.5 -7.66699 118.5 -23s69.333 -38.333 97 -69s49.334 -68.834 65.001 -114.501s23.5 -98.5 23.5 -158.5c0 -59.333 -8.16699 -111.666 -24.5 -156.999
s-38.333 -83 -66 -113s-60 -52.667 -97 -68s-75.833 -23 -116.5 -23c-42 0 -81.833 7.66699 -119.5 23s-70 38 -97 68s-48.5 67.667 -64.5 113s-24 97.666 -24 156.999zM950 344.001c0 -52.667 6.00293 -97.5 18.0029 -134.5s28.333 -67.5 49 -91.5s44.667 -41.5 72 -52.5
s56.666 -16.5 87.999 -16.5c30.667 0 59.834 5.5 87.501 16.5s51.667 28.5 72 52.5s36.5 54.5 48.5 91.5s18 81.833 18 134.5s-6 98 -18 136s-28.167 69 -48.5 93s-44.333 41.667 -72 53s-56.834 17 -87.501 17s-59.834 -5.66699 -87.501 -17s-51.834 -29 -72.501 -53
s-37 -55 -49 -93s-18 -83.333 -18 -136z" />
    <glyph glyph-name="ampersand" unicode="&#x26;" horiz-adv-x="1416" 
d="M109 371c0 49.333 8.83887 96.3359 26.5059 141.003s41.834 85.5 72.501 122.5s67.167 70.167 109.5 99.5s88.166 53.333 137.499 72c-48.667 54.667 -85.167 107.667 -109.5 159s-36.5 106.333 -36.5 165c0 48 8.66699 92.333 26 133s42.166 76 74.499 106
s70.833 53.5 115.5 70.5s94.667 25.5 150 25.5c46 0 89.333 -7.83301 130 -23.5s76.167 -36.834 106.5 -63.501s54.666 -57.5 72.999 -92.5s28.166 -71.5 29.499 -109.5c-9.33301 -2 -18 -4.33301 -26 -7c-16 -3.33301 -28.333 -5 -37 -5
c-5.33301 0 -10.333 2.16699 -15 6.5s-8 10.166 -10 17.499c-4.66699 18 -12.834 38.5 -24.501 61.5s-27.5 44.833 -47.5 65.5s-44.833 38.167 -74.5 52.5s-64.5 21.5 -104.5 21.5c-40.667 0 -77.834 -6.33301 -111.501 -19s-62.5 -30.5 -86.5 -53.5
s-42.667 -50.167 -56 -81.5s-20 -65.666 -20 -102.999c0 -56 14.333 -109.667 43 -161s73.334 -106.333 134.001 -165l456 -451c30.667 49.333 55.167 100.666 73.5 153.999s30.166 105 35.499 155c1.33301 8.66699 4 15.5 8 20.5s10 7.5 18 7.5h57
c-1.33301 -64 -13.5 -130 -36.5 -198s-55.5 -133 -97.5 -195l305 -299h-91c-12 0 -22 1.33301 -30 4s-17.333 9 -28 19l-210 205c-30.667 -35.333 -64.334 -68 -101.001 -98s-76.5 -55.833 -119.5 -77.5s-89 -38.5 -138 -50.5s-100.5 -18 -154.5 -18
c-51.333 0 -101.833 8.5 -151.5 25.5s-94.167 42 -133.5 75s-71 73.667 -95 122s-36 103.166 -36 164.499zM208.006 377.003c0 -52.667 9.99902 -98.5 29.999 -137.5s46.167 -71.667 78.5 -98s68 -46 107 -59s77.833 -19.5 116.5 -19.5c48 0 93.167 5.5 135.5 16.5
s82.166 26.333 119.499 46s71.5 42.667 102.5 69s59.5 55.833 85.5 88.5l-470 461c-4 3.33301 -7.66699 7.33301 -11 12c-45.333 -19.333 -86.166 -42.333 -122.499 -69s-67.166 -56.167 -92.499 -88.5s-44.833 -67.333 -58.5 -105s-20.5 -76.5 -20.5 -116.5z" />
    <glyph glyph-name="quotesingle" unicode="'" horiz-adv-x="453" 
d="M184 1150l-0.00195312 299h85v-299l-9 -157c-1.33301 -11.333 -4.33301 -20.333 -9 -27s-13 -10 -25 -10c-9.33301 0 -16.666 3.33301 -21.999 10s-8.66602 15.667 -9.99902 27z" />
    <glyph glyph-name="parenleft" unicode="(" horiz-adv-x="614" 
d="M174 645c0 80 4.99902 157.663 14.999 232.996s25.833 150.333 47.5 225s50.5 149.834 86.5 225.501s80.333 153.834 133 234.501l43 -27c8.66699 -4.66699 13 -12 13 -22c0 -6.66699 -2.33301 -13.667 -7 -21c-81.333 -131.333 -142.666 -267.166 -183.999 -407.499
s-62 -287.166 -62 -440.499c0 -152.667 20.667 -299.167 62 -439.5s103 -275.833 185 -406.5c4.66699 -7.33301 7 -14.333 7 -21c0 -10 -4.66699 -17.667 -14 -23l-43 -26c-52.667 80.667 -97 158.667 -133 234s-64.833 150.333 -86.5 225s-37.5 149.5 -47.5 224.5
s-15 152.5 -15 232.5z" />
    <glyph glyph-name="parenright" unicode=")" horiz-adv-x="614" 
d="M100 -222c0 6.66699 2.66797 13.6719 8.00098 21.0049c82 130.667 143.5 266.167 184.5 406.5s61.5 286.833 61.5 439.5c0 153.333 -20.667 300.166 -62 440.499s-102.333 276.166 -183 407.499c-4.66699 7.33301 -7.33398 14.333 -8.00098 21
c0 9.33301 4.66699 16.666 14 21.999l43 27c52 -80.667 96 -158.834 132 -234.501s65 -150.834 87 -225.501s37.833 -149.667 47.5 -225s14.5 -153 14.5 -233s-4.83301 -157.5 -14.5 -232.5s-25.5 -149.833 -47.5 -224.5s-51 -149.834 -87 -225.501s-80 -153.5 -132 -233.5
l-43 26c-9.33301 4.66699 -14.333 12.334 -15 23.001z" />
    <glyph glyph-name="asterisk" unicode="*" horiz-adv-x="819" 
d="M126 1357l26.9961 46l193 -113c10.667 -6.66699 19.334 -13.167 26.001 -19.5s14.667 -15.5 24 -27.5c-5.33301 12.667 -9.16602 24 -11.499 34s-3.5 21 -3.5 33v219h53v-218c0 -12 -0.833008 -23 -2.5 -33s-5.16699 -21.333 -10.5 -34c8 11.333 15.5 20.333 22.5 27
s15.833 13 26.5 19l193 112l26 -46l-192 -112c-10 -6 -19.5 -10.667 -28.5 -14s-19.5 -5.66602 -31.5 -6.99902c12 -2 22.333 -4.5 31 -7.5s18.334 -7.16699 29.001 -12.5l193 -112l-25 -47l-195 113c-10 6 -18.5 11.833 -25.5 17.5s-14.833 14.167 -23.5 25.5
c4 -12 7.16699 -22.5 9.5 -31.5s3.5 -19.167 3.5 -30.5v-219h-53v218c0 11.333 0.833008 21.5 2.5 30.5s5.16699 19.167 10.5 30.5c-7.33301 -10 -14.666 -17.833 -21.999 -23.5s-16 -11.5 -26 -17.5l-192 -111l-26 45l193 112c9.33301 5.33301 18.333 9.5 27 12.5
s19.334 5.5 32.001 7.5c-12.667 2 -23.334 4.66699 -32.001 8s-17.667 7.66602 -27 12.999z" />
    <glyph glyph-name="plus" unicode="+" 
d="M112 649v75h440v462h80v-462h441v-75h-441v-464h-80v464h-440z" />
    <glyph glyph-name="comma" unicode="," horiz-adv-x="404" 
d="M113 87c0 24 8.16504 44.501 24.498 61.501s37.833 25.5 64.5 25.5c29.333 0 52 -10 68 -30s24 -46.333 24 -79c0 -28 -3.66699 -56.667 -11 -86s-17.833 -57.833 -31.5 -85.5s-30 -54.5 -49 -80.5s-40.167 -50 -63.5 -72l-15 15c-5.33301 5.33301 -8 11.333 -8 18
c0 3.33301 1 6.66602 3 9.99902s4.33301 6.33301 7 9c6.66699 6.66699 15.334 16.667 26.001 30s21.334 29.166 32.001 47.499s20.167 38.333 28.5 60s13.833 44.834 16.5 69.501c-4 -1.33301 -8.5 -2.33301 -13.5 -3s-10.5 -1 -16.5 -1c-25.333 0 -46 8.5 -62 25.5
s-24 38.833 -24 65.5z" />
    <glyph glyph-name="hyphen" unicode="-" horiz-adv-x="680" 
d="M102 566v83h477v-83h-477z" />
    <glyph glyph-name="period" unicode="." horiz-adv-x="404" 
d="M108 79c0 12.667 2.33398 24.834 7.00098 36.501s11.167 21.834 19.5 30.501s18.166 15.5 29.499 20.5s24 7.5 38 7.5c12.667 0 24.834 -2.5 36.501 -7.5s21.834 -11.833 30.501 -20.5s15.5 -18.834 20.5 -30.501s7.5 -23.834 7.5 -36.501
c0 -13.333 -2.5 -25.666 -7.5 -36.999s-11.833 -21.333 -20.5 -30s-18.834 -15.334 -30.501 -20.001s-23.834 -7 -36.501 -7c-26.667 0 -49 9 -67 27s-27 40.333 -27 67z" />
    <glyph glyph-name="slash" unicode="/" horiz-adv-x="730" 
d="M-5 -86l637 1538c10 25.333 28.333 38 55 38h42l-636 -1536c-5.33301 -13.333 -13.5 -23.333 -24.5 -30s-22.167 -10 -33.5 -10h-40z" />
    <glyph glyph-name="zero" unicode="0" 
d="M75 725c0 126.667 13.499 236.5 40.499 329.5s64 169.833 111 230.5s101.833 105.834 164.5 135.501s130 44.5 202 44.5s139.5 -14.833 202.5 -44.5s118 -74.834 165 -135.501s84.167 -137.5 111.5 -230.5s41 -202.833 41 -329.5s-13.667 -236.5 -41 -329.5
s-64.5 -169.833 -111.5 -230.5s-102.167 -105.834 -165.5 -135.501s-130.666 -44.5 -201.999 -44.5c-72 0 -139.333 14.833 -202 44.5s-117.5 74.834 -164.5 135.501s-84 137.5 -111 230.5s-40.5 202.833 -40.5 329.5zM174.999 725c0 -118 11.333 -218.5 34 -301.5
s53 -151 91 -204s82.333 -91.5 133 -115.5s104 -36 160 -36s109.333 12 160 36s95 62.5 133 115.5s68.333 121 91 204s34 183.5 34 301.5c0 117.333 -11.333 217.666 -34 300.999s-53 151.5 -91 204.5s-82.333 91.667 -133 116s-104 36.5 -160 36.5
s-109.333 -12.167 -160 -36.5s-95 -63 -133 -116s-68.333 -121.167 -91 -204.5s-34 -183.666 -34 -300.999z" />
    <glyph glyph-name="one" unicode="1" 
d="M252 1085l419 370h75v-1379h317v-76h-747v76h333v1175c0 23.333 1 48 3 74l-319 -284c-6.66699 -6 -15 -9 -25 -9c-11.333 0 -20 4 -26 12z" />
    <glyph glyph-name="two" unicode="2" 
d="M132 0l0.00585938 35.0068c0 7.33301 1.83301 15 5.5 23s8.5 14.667 14.5 20l494 501l113.5 120.5c35 39 65.333 78.333 91 118s45.834 80.167 60.501 121.5s22 85.666 22 132.999c0 53.333 -8.83301 99.666 -26.5 138.999s-41.334 71.666 -71.001 96.999
s-63.834 44 -102.501 56s-79.334 18 -122.001 18c-46 0 -88.167 -7 -126.5 -21s-72.333 -33.333 -102 -58s-54.167 -54.334 -73.5 -89.001s-33 -72.334 -41 -113.001c-6.66699 -24 -20.334 -36 -41.001 -36c-1.33301 0 -3 0.166992 -5 0.5s-3.66699 0.5 -5 0.5l-49 8
c8 62 24.833 117.333 50.5 166s58 89.667 97 123s84 58.666 135 75.999s106.167 26 165.5 26c55.333 0 108.166 -8 158.499 -24s94.666 -40.167 132.999 -72.5s68.666 -72.833 90.999 -121.5s33.5 -106 33.5 -172c0 -54.667 -8.33301 -105.334 -25 -152.001
s-39.334 -91.5 -68.001 -134.5s-62 -84.833 -100 -125.5l-119 -124l-454 -463c22 5.33301 44.833 9.33301 68.5 12s47.5 4 71.5 4h625c10.667 0 19.334 -3.16699 26.001 -9.5s10 -14.833 10 -25.5v-57h-935z" />
    <glyph glyph-name="three" unicode="3" 
d="M132 354l39.0039 17.002c8 3.33301 16 5 24 5c7.33301 0 14.333 -1.66699 21 -5s11.667 -10 15 -20l8 -20c4 -12 9.66699 -27.167 17 -45.5s17 -37.166 29 -56.499s26.833 -38.833 44.5 -58.5s39.334 -37.167 65.001 -52.5s55.834 -27.666 90.501 -36.999
s74.334 -14 119.001 -14c61.333 0 115.166 10.167 161.499 30.5s85 46.333 116 78s54.167 67.167 69.5 106.5s23 77.333 23 114c0 44.667 -7 86.167 -21 124.5s-37.333 71.166 -70 98.499s-75.834 49.166 -129.501 65.499s-119.834 24.5 -198.501 24.5v70
c62.667 1.33301 118 9.66602 166 24.999s88 36.333 120 63s56.167 58.5 72.5 95.5s24.5 77.5 24.5 121.5c0 51.333 -8.5 95.833 -25.5 133.5s-39.833 68.834 -68.5 93.501s-62.167 42.667 -100.5 54s-78.166 17 -119.499 17c-46 0 -88.167 -6.83301 -126.5 -20.5
s-72.166 -32.667 -101.499 -57s-53.833 -53.833 -73.5 -88.5s-34.167 -73 -43.5 -115c-5.33301 -24 -18 -36 -38 -36c-4.66699 0 -8.66699 0.333008 -12 1l-50 8c8.66699 62 25.667 117.333 51 166s57.5 89.667 96.5 123s84.167 58.666 135.5 75.999s106.666 26 165.999 26
c55.333 0 107.5 -7.66699 156.5 -23s92.167 -38.333 129.5 -69s66.666 -68.834 87.999 -114.501s32 -98.5 32 -158.5c0 -47.333 -7.33301 -90 -22 -128s-34.834 -71.333 -60.501 -100s-55.834 -52.667 -90.501 -72s-72.334 -34 -113.001 -44
c106.667 -20 187.167 -61.167 241.5 -123.5s81.5 -140.5 81.5 -234.5c0 -59.333 -12 -114.333 -36 -165s-56.833 -94.5 -98.5 -131.5s-90.667 -65.833 -147 -86.5s-117.833 -31 -184.5 -31c-82.667 0 -151.5 11 -206.5 33s-100.167 50.833 -135.5 86.5
s-62.833 75.5 -82.5 119.5s-35.834 87.667 -48.501 131z" />
    <glyph glyph-name="four" unicode="4" 
d="M65 488l728 963h87v-957h265v-54c0 -7.33301 -2.16699 -13.166 -6.5 -17.499s-11.5 -6.5 -21.5 -6.5h-237v-416h-88v416h-683c-10 0 -17.833 2.16699 -23.5 6.5s-9.5 10.166 -11.5 17.499zM171 494l621 0.00195312v758c0 11.333 0.333008 23.666 1 36.999
s2 26.666 4 39.999z" />
    <glyph glyph-name="five" unicode="5" 
d="M152 113l27.999 39.9961c6.66699 10 16.667 15 30 15c8.66699 0 21.334 -5.16699 38.001 -15.5s38.167 -21.666 64.5 -33.999s57.5 -23.5 93.5 -33.5s77.667 -15 125 -15c56 0 108.333 9 157 27s90.834 44 126.501 78s63.667 76.167 84 126.5s30.5 107.166 30.5 170.499
c0 52 -7.66699 99.833 -23 143.5s-38.5 81 -69.5 112s-70.333 55.167 -118 72.5s-103.5 26 -167.5 26c-38.667 0 -80 -3 -124 -9s-90.333 -16 -139 -30l-64 20l114 642h651v-42c0 -13.333 -4.5 -24.666 -13.5 -33.999s-23.5 -14 -43.5 -14h-524l-87 -483
c46 11.333 89.333 19.5 130 24.5s79.667 7.5 117 7.5c75.333 0 141.666 -10.667 198.999 -32s105.333 -51.333 144 -90s67.834 -84.667 87.501 -138s29.5 -111.333 29.5 -174c0 -76.667 -13.333 -145.167 -40 -205.5s-62.667 -111.666 -108 -153.999
s-98.333 -74.666 -159 -96.999s-125.334 -33.5 -194.001 -33.5c-40 0 -78.167 3.5 -114.5 10.5s-70.5 16.5 -102.5 28.5s-61.333 25.833 -88 41.5s-50 31.834 -70 48.501z" />
    <glyph glyph-name="six" unicode="6" 
d="M139 461c0 56.667 14.3359 120.663 43.0029 191.996s76 151.333 142 240l395 532c11.333 16 28.666 24 51.999 24h86l-432 -564l-58.5 -79c-17.667 -24.667 -33.834 -49 -48.501 -73c40 41.333 87.833 73.833 143.5 97.5s116.167 35.5 181.5 35.5
c62 0 119.333 -10.167 172 -30.5s98 -49.166 136 -86.499s67.667 -82.333 89 -135s32 -112 32 -178c0 -65.333 -11.833 -125.666 -35.5 -180.999s-56.334 -103.166 -98.001 -143.499s-92 -71.666 -151 -93.999s-123.5 -33.5 -193.5 -33.5c-67.333 0 -129 10.833 -185 32.5
s-104 53 -144 94s-71 91 -93 150s-33 125.833 -33 200.5zM234.003 436.996c0 -54 8.50098 -103.834 25.501 -149.501s40.833 -85 71.5 -118s68.167 -58.667 112.5 -77s94.166 -27.5 149.499 -27.5c58.667 0 111.5 9.16699 158.5 27.5s87.167 43.666 120.5 75.999
s58.833 70.833 76.5 115.5s26.5 93.334 26.5 146.001c0 55.333 -8.66699 105.333 -26 150s-42 82.5 -74 113.5s-69.833 55 -113.5 72s-92.167 25.5 -145.5 25.5c-60 0 -113.667 -10.5 -161 -31.5s-87.333 -48 -120 -81s-57.667 -70.667 -75 -113s-26 -85.166 -26 -128.499z
" />
    <glyph glyph-name="seven" unicode="7" 
d="M133 1386l-0.00292969 63.001h964v-44c0 -11.333 -1.16699 -21.333 -3.5 -30s-5.5 -16 -9.5 -22l-664 -1316c-5.33301 -10.667 -12.666 -19.5 -21.999 -26.5s-21.666 -10.5 -36.999 -10.5h-66l669 1311c8.66699 18 19 34 31 48h-835
c-7.33301 0 -13.666 2.66699 -18.999 8s-8 11.666 -8 18.999z" />
    <glyph glyph-name="eight" unicode="8" 
d="M123 383c0 53.333 7.66797 100.833 23.001 142.5s37 77.834 65 108.501s61.333 56.167 100 76.5s81 35.833 127 46.5c-42 12 -79.5 28.667 -112.5 50s-60.5 46.666 -82.5 75.999s-38.833 61.833 -50.5 97.5s-17.5 74.167 -17.5 115.5c0 51.333 9.66699 99.5 29 144.5
s47.166 84.167 83.499 117.5s80.333 59.5 132 78.5s109.834 28.5 174.501 28.5c64 0 121.833 -9.5 173.5 -28.5s95.667 -45.167 132 -78.5s64.333 -72.666 84 -117.999s29.5 -93.333 29.5 -144c0 -40.667 -5.83301 -79 -17.5 -115s-28.834 -68.667 -51.501 -98
s-50.334 -54.666 -83.001 -75.999s-70 -38 -112 -50c46.667 -10 89.167 -25.333 127.5 -46s71.5 -46.334 99.5 -77.001s49.833 -66.834 65.5 -108.501s23.5 -89.167 23.5 -142.5c0 -61.333 -11.667 -116.666 -35 -165.999s-55.666 -91.333 -96.999 -126
s-90.833 -61.167 -148.5 -79.5s-121.167 -27.5 -190.5 -27.5s-133 9.16699 -191 27.5s-107.5 44.833 -148.5 79.5s-73.167 76.667 -96.5 126s-35 104.666 -35 165.999zM223.001 384c0 -48.667 8.83203 -92.667 26.499 -132s42.834 -73.166 75.501 -101.499
s71.834 -50.333 117.501 -66s96.167 -23.5 151.5 -23.5s105.666 7.83301 150.999 23.5s84.333 37.667 117 66s58 62.166 76 101.499s27 83.333 27 132c0 63.333 -11.667 116.166 -35 158.499s-53.166 76.166 -89.499 101.499s-76.333 43.333 -120 54s-85.834 16 -126.501 16
s-83 -5.33301 -127 -16s-84 -28.667 -120 -54s-65.667 -59.166 -89 -101.499s-35 -95.166 -35 -158.499zM270 1095c0 -38.667 6.32812 -76.168 18.9951 -112.501s32.334 -68.666 59.001 -96.999s60.334 -50.833 101.001 -67.5s89 -25 145 -25
c55.333 0 103.333 8.33301 144 25s74.334 39.167 101.001 67.5s46.167 60.5 58.5 96.5s18.5 73.667 18.5 113c0 41.333 -7.16699 80 -21.5 116s-35.166 67.333 -62.499 94s-61 47.5 -101 62.5s-85.667 22.5 -137 22.5s-97.166 -7.5 -137.499 -22.5
s-74.333 -35.833 -102 -62.5s-48.667 -58 -63 -94s-21.5 -74.667 -21.5 -116z" />
    <glyph glyph-name="nine" unicode="9" 
d="M176 1030c0 62 11.4961 119.499 34.4961 172.499s55 99 96 138s89.667 69.5 146 91.5s117.833 33 184.5 33c64 0 122.833 -10.833 176.5 -32.5s99.834 -52.5 138.501 -92.5s68.667 -87.833 90 -143.5s32 -117.5 32 -185.5c0 -37.333 -3.83301 -73.166 -11.5 -107.499
s-19.167 -68.5 -34.5 -102.5s-34 -69 -56 -105s-47 -74.333 -75 -115l-380 -557c-10 -16 -26.667 -24 -50 -24h-88l428 598l57 81.5c17.333 25.667 33 50.5 47 74.5c-39.333 -44 -87.166 -78 -143.499 -102s-116.5 -36 -180.5 -36c-59.333 0 -114.166 9.83301 -164.499 29.5
s-93.666 47.5 -129.999 83.5s-64.833 79.5 -85.5 130.5s-31 107.833 -31 170.5zM272.996 1036c0 -53.333 8.33301 -101.331 25 -143.998s39.834 -78.834 69.501 -108.501s65.5 -52.334 107.5 -68.001s88.333 -23.5 139 -23.5c58 0 109.833 10 155.5 30s84.167 46 115.5 78
s55 68 71 108s24 80.333 24 121c0 52.667 -8.5 100.834 -25.5 144.501s-40.833 81 -71.5 112s-67 55.167 -109 72.5s-88 26 -138 26c-53.333 0 -102.333 -8.5 -147 -25.5s-82.834 -40.833 -114.501 -71.5s-56.5 -67.334 -74.5 -110.001s-27 -89.667 -27 -141z" />
    <glyph glyph-name="colon" unicode=":" horiz-adv-x="486" 
d="M148 79c0 12.667 2.50098 24.834 7.50098 36.501s11.667 21.834 20 30.501s18.166 15.5 29.499 20.5s24 7.5 38 7.5c12.667 0 24.834 -2.5 36.501 -7.5s21.834 -11.833 30.501 -20.5s15.5 -18.834 20.5 -30.501s7.5 -23.834 7.5 -36.501
c0 -13.333 -2.5 -25.666 -7.5 -36.999s-11.833 -21.333 -20.5 -30s-18.834 -15.334 -30.501 -20.001s-23.834 -7 -36.501 -7c-26.667 0 -49.167 9 -67.5 27s-27.5 40.333 -27.5 67zM148.001 895c0 12.667 2.50098 24.834 7.50098 36.501s11.667 21.834 20 30.501
s18.166 15.5 29.499 20.5s24 7.5 38 7.5c12.667 0 24.834 -2.5 36.501 -7.5s21.834 -11.833 30.501 -20.5s15.5 -18.834 20.5 -30.501s7.5 -23.834 7.5 -36.501c0 -13.333 -2.5 -25.666 -7.5 -36.999s-11.833 -21.333 -20.5 -30s-18.834 -15.334 -30.501 -20.001
s-23.834 -7 -36.501 -7c-26.667 0 -49.167 9 -67.5 27s-27.5 40.333 -27.5 67z" />
    <glyph glyph-name="semicolon" unicode=";" horiz-adv-x="486" 
d="M148 895c0 12.667 2.50098 24.834 7.50098 36.501s11.667 21.834 20 30.501s18.166 15.5 29.499 20.5s24 7.5 38 7.5c12.667 0 24.834 -2.5 36.501 -7.5s21.834 -11.833 30.501 -20.5s15.5 -18.834 20.5 -30.501s7.5 -23.834 7.5 -36.501
c0 -13.333 -2.5 -25.666 -7.5 -36.999s-11.833 -21.333 -20.5 -30s-18.834 -15.334 -30.501 -20.001s-23.834 -7 -36.501 -7c-26.667 0 -49.167 9 -67.5 27s-27.5 40.333 -27.5 67zM154.001 87c0 24 8.16504 44.501 24.498 61.501s37.833 25.5 64.5 25.5
c29.333 0 52 -10 68 -30s24 -46.333 24 -79c0 -28 -3.66699 -56.667 -11 -86s-17.833 -57.833 -31.5 -85.5s-30 -54.5 -49 -80.5s-40.167 -50 -63.5 -72l-15 15c-5.33301 5.33301 -8 11.333 -8 18c0 3.33301 1 6.66602 3 9.99902s4.33301 6.33301 7 9
c6.66699 6.66699 15.334 16.667 26.001 30s21.334 29.166 32.001 47.499s20.167 38.333 28.5 60s13.833 44.834 16.5 69.501c-4 -1.33301 -8.5 -2.33301 -13.5 -3s-10.5 -1 -16.5 -1c-25.333 0 -46 8.5 -62 25.5s-24 38.833 -24 65.5z" />
    <glyph glyph-name="less" unicode="&#x3c;" 
d="M164 667v41.999l768 394v-67c0 -7.33301 -2 -13.666 -6 -18.999s-11.333 -11 -22 -17l-566 -286c-22.667 -11.333 -47.334 -20.333 -74.001 -27c28.667 -6 53.334 -14.333 74.001 -25l566 -288c10 -5.33301 17.167 -10.833 21.5 -16.5s6.5 -12.167 6.5 -19.5v-67z" />
    <glyph glyph-name="equal" unicode="=" 
d="M170 494v75h847v-75h-847zM170 814v76h847v-76h-847z" />
    <glyph glyph-name="greater" unicode="&#x3e;" 
d="M257 271l0.000976562 67c0 7.33301 2 14 6 20s11 11.333 21 16l567 288c21.333 10.667 45.666 19 72.999 25c-13.333 3.33301 -26 7.33301 -38 12s-23.667 9.66699 -35 15l-567 286c-18 9.33301 -27 21.333 -27 36v67l768 -394v-42z" />
    <glyph glyph-name="question" unicode="?" horiz-adv-x="758" 
d="M34 1323c18.667 18.667 39.5029 36.501 62.5029 53.501s48.333 32.167 76 45.5s57.834 23.833 90.501 31.5s68.334 11.5 107.001 11.5c48 0 93 -7.16699 135 -21.5s79 -34.833 111 -61.5s57.333 -59.167 76 -97.5s28 -81.5 28 -129.5c0 -52 -8 -96.667 -24 -134
s-36.333 -70.166 -61 -98.499s-51.334 -53.333 -80.001 -75l-80.5 -60.5c-25 -18.667 -46.167 -37.667 -63.5 -57s-26.666 -40.333 -27.999 -63l-12 -168h-67l-5 175v5c0 28 8.16699 52.5 24.5 73.5s36.666 41.5 60.999 61.5s50.666 40.167 78.999 60.5
s54.666 43.333 78.999 69s44.666 55.167 60.999 88.5s24.5 73 24.5 119c0 36.667 -7.16699 69.5 -21.5 98.5s-33.833 53.667 -58.5 74s-53 35.666 -85 45.999s-65.667 15.5 -101 15.5c-45.333 0 -84.333 -5.83301 -117 -17.5s-60.334 -24.834 -83.001 -39.501
s-40.5 -28 -53.5 -40s-21.833 -18 -26.5 -18c-10 0 -17.667 4 -23 12zM241.003 79.001c0 12.667 2.33203 24.834 6.99902 36.501s11.334 21.834 20.001 30.501s18.5 15.5 29.5 20.5s23.5 7.5 37.5 7.5c12.667 0 24.834 -2.5 36.501 -7.5s21.834 -11.833 30.501 -20.5
s15.5 -18.834 20.5 -30.501s7.5 -23.834 7.5 -36.501c0 -13.333 -2.5 -25.666 -7.5 -36.999s-11.833 -21.333 -20.5 -30s-18.834 -15.334 -30.501 -20.001s-23.834 -7 -36.501 -7c-26.667 0 -49 9 -67 27s-27 40.333 -27 67z" />
    <glyph glyph-name="at" unicode="@" horiz-adv-x="1682" 
d="M111 562c0 114 20 219.83 60 317.497s94.833 182.334 164.5 254.001s151 127.834 244 168.501s192.5 61 298.5 61c91.333 0 179 -14.167 263 -42.5s158.167 -70.666 222.5 -126.999s115.833 -126.166 154.5 -209.499s58 -180 58 -290
c0 -74.667 -9.83301 -142.667 -29.5 -204s-46.834 -114 -81.501 -158s-75.167 -78.167 -121.5 -102.5s-95.833 -36.5 -148.5 -36.5c-60 0 -105.167 15.833 -135.5 47.5s-46.166 77.167 -47.499 136.5c-38 -63.333 -81.167 -109.166 -129.5 -137.499
s-100.5 -42.5 -156.5 -42.5c-38 0 -71 6.66699 -99 20s-51.333 31.5 -70 54.5s-32.5 50.167 -41.5 81.5s-13.5 65.333 -13.5 102c0 58 11 116.167 33 174.5s54.333 110.833 97 157.5s95.167 84.667 157.5 114s132.833 44 211.5 44c36 0 70 -3 102 -9s60.667 -15 86 -27
l-93 -355c-8 -31.333 -14 -59.5 -18 -84.5s-6 -47.5 -6 -67.5c0 -30 3.83301 -54.333 11.5 -73s17.834 -33.5 30.501 -44.5s27.167 -18.333 43.5 -22s33.166 -5.5 50.499 -5.5c38.667 0 75.834 10.167 111.501 30.5s67.167 49.5 94.5 87.5s49 84 65 138s24 114.333 24 181
c0 101.333 -16.5 189.666 -49.5 264.999s-78 138 -135 188s-123.333 87.167 -199 111.5s-156.167 36.5 -241.5 36.5c-93.333 0 -182 -18 -266 -54s-157.5 -86.5 -220.5 -151.5s-113.167 -142.333 -150.5 -232s-56 -188.167 -56 -295.5c0 -120.667 19.333 -227 58 -319
s91.167 -168.833 157.5 -230.5s143.666 -108.334 231.999 -140.001s182.166 -47.5 281.499 -47.5c101.333 0 193.833 11.667 277.5 35s159.5 57 227.5 101c4.66699 3.33301 10.667 5 18 5c9.33301 0 16 -4.66699 20 -14l16 -38c-76.667 -50.667 -161 -89.667 -253 -117
s-194 -41 -306 -41c-112.667 0 -217.667 18 -315 54s-182.166 88.333 -254.499 157s-129.333 153 -171 253s-62.5 214 -62.5 342zM582 456.997c0 -27.333 3.33105 -52.834 9.99805 -76.501s16.834 -44 30.501 -61s30.5 -30.5 50.5 -40.5s43.667 -15 71 -15
c24.667 0 50.167 4.16699 76.5 12.5s51.666 23.166 75.999 44.499s47 50.333 68 87s38.833 83.334 53.5 140.001l82 317c-16.667 4.66699 -33.667 8.33398 -51 11.001s-37.666 4 -60.999 4c-61.333 0 -117.166 -12.5 -167.499 -37.5s-93 -57.667 -128 -98
s-62.167 -85.5 -81.5 -135.5s-29 -100.667 -29 -152z" />
    <glyph glyph-name="A" unicode="A" horiz-adv-x="1319" 
d="M15 0l592.999 1449h105l593 -1449h-81c-9.33301 0 -17.166 2.5 -23.499 7.5s-11.166 11.833 -14.499 20.5l-171 421h-712l-170 -421c-2.66699 -7.33301 -7.33398 -13.833 -14.001 -19.5s-15 -8.5 -25 -8.5h-80zM335.999 526l649.003 0.00195312l-296 732
c-4.66699 11.333 -9.33398 24.5 -14.001 39.5l-15 47.5c-4.66699 -16.667 -9.33398 -32.334 -14.001 -47.001s-9.33398 -28.334 -14.001 -41.001z" />
    <glyph glyph-name="B" unicode="B" horiz-adv-x="1312" 
d="M215 0l-0.00195312 1449h417c82.667 0 154.167 -8.16699 214.5 -24.5s110.333 -40.333 150 -72s69.167 -70.5 88.5 -116.5s29 -98 29 -156c0 -38 -6.66699 -74.833 -20 -110.5s-32.666 -68.5 -57.999 -98.5s-56.166 -56 -92.499 -78s-78.166 -39 -125.499 -51
c114 -17.333 201.833 -55.166 263.5 -113.499s92.5 -135.833 92.5 -232.5c0 -61.333 -11 -116.5 -33 -165.5s-53.833 -90.667 -95.5 -125s-92.834 -60.5 -153.501 -78.5s-129.667 -27 -207 -27h-470zM318.998 83.999h364c127.333 0 223.5 27.5 288.5 82.5
s97.5 132.167 97.5 231.5c0 46 -8.66699 87.333 -26 124s-42.333 67.667 -75 93s-73 44.833 -121 58.5s-102.333 20.5 -163 20.5h-365v-610zM318.998 770.999l315 0.000976562c66.667 0 123.834 8.5 171.501 25.5s86.667 39.5 117 67.5s52.666 59.833 66.999 95.5
s21.5 72.167 21.5 109.5c0 97.333 -31 171.166 -93 221.499s-157.333 75.5 -286 75.5h-313v-595z" />
    <glyph glyph-name="C" unicode="C" horiz-adv-x="1440" 
d="M127 725c0 110 17.1641 210.329 51.4971 300.996s82.833 168.667 145.5 234s137.5 115.833 224.5 151.5s183.167 53.5 288.5 53.5c52.667 0 100.834 -3.83301 144.501 -11.5s84.334 -18.834 122.001 -33.501s73.334 -33 107.001 -55s66.5 -47.333 98.5 -76l-32 -46
c-5.33301 -8 -14 -12 -26 -12c-6 0 -13.833 3.5 -23.5 10.5l-36.5 26.5c-14.667 10.667 -32.334 22.334 -53.001 35.001s-45.334 24.334 -74.001 35.001s-61.834 19.5 -99.501 26.5s-80.167 10.5 -127.5 10.5c-88 0 -169 -15.167 -243 -45.5s-137.5 -73.666 -190.5 -129.999
s-94.5 -124.666 -124.5 -204.999s-45 -170.166 -45 -269.499c0 -102.667 14.833 -194.167 44.5 -274.5s70.334 -148.333 122.001 -204s112.834 -98.334 183.501 -128.001s147.334 -44.5 230.001 -44.5c52 0 98.333 3.33301 139 10s78 16.834 112 30.501s65.667 30.5 95 50.5
s58.333 43 87 69c3.33301 2.66699 6.66602 5 9.99902 7s7 3 11 3c6.66699 0 12.334 -2.33301 17.001 -7l41 -44c-30 -32 -62.667 -60.833 -98 -86.5s-74 -47.667 -116 -66s-88.167 -32.333 -138.5 -42s-105.5 -14.5 -165.5 -14.5c-100.667 0 -192.667 17.5 -276 52.5
s-155 84.833 -215 149.5s-106.667 142.667 -140 234s-50 193 -50 305z" />
    <glyph glyph-name="D" unicode="D" horiz-adv-x="1556" 
d="M215 0v1449h528c103.333 0 197.333 -16.667 282 -50s157.334 -81.5 218.001 -144.5s107.834 -139.167 141.501 -228.5s50.5 -189.666 50.5 -300.999c0 -112 -16.833 -212.667 -50.5 -302s-80.834 -165.5 -141.501 -228.5s-133.334 -111.167 -218.001 -144.5
s-178.667 -50 -282 -50h-528zM321 84.999l422 -0.00195312c87.333 0 167 14.333 239 43s133.333 70.334 184 125.001s90 121.5 118 200.5s42 169.5 42 271.5c0 101.333 -14 191.5 -42 270.5s-67.333 145.833 -118 200.5s-112 96.334 -184 125.001s-151.667 43 -239 43h-422
v-1279z" />
    <glyph glyph-name="E" unicode="E" horiz-adv-x="1210" 
d="M215 0v1449h868v-87h-762v-586h634v-85h-634v-604h762v-87h-868z" />
    <glyph glyph-name="F" unicode="F" horiz-adv-x="1171" 
d="M215 0v1449h868v-87h-762v-609h660v-87h-660v-666h-106z" />
    <glyph glyph-name="G" unicode="G" horiz-adv-x="1532" 
d="M127 725c0 112 16.998 213.501 50.998 304.501s82.5 168.833 145.5 233.5s139.333 114.5 229 149.5s190.167 52.5 301.5 52.5c55.333 0 106.333 -3.66699 153 -11s90.167 -18.333 130.5 -33s78 -32.834 113 -54.501s68.5 -46.5 100.5 -74.5l-28 -45
c-6 -10 -14.667 -15 -26 -15c-6 0 -11.667 1.33301 -17 4c-10 4 -24.833 13.5 -44.5 28.5s-46 30.667 -79 47s-74.5 31 -124.5 44s-110.333 19.5 -181 19.5c-94 0 -179 -15 -255 -45s-140.667 -73 -194 -129s-94.666 -124.167 -123.999 -204.5s-44 -170.833 -44 -271.5
c0 -102.667 14.833 -194.5 44.5 -275.5s70.834 -149.667 123.501 -206s116.167 -99.5 190.5 -129.5s156.166 -45 245.499 -45c50 0 95.333 2.5 136 7.5s78.667 12.667 114 23s68.833 22.833 100.5 37.5s63.5 31 95.5 49v391h-278c-7.33301 0 -13.666 2.33301 -18.999 7
s-8 10 -8 16v57h400v-515c-36 -25.333 -73.5 -47.833 -112.5 -67.5s-80.667 -36.167 -125 -49.5s-92 -23.5 -143 -30.5s-107.167 -10.5 -168.5 -10.5c-104.667 0 -200 17.5 -286 52.5s-160 84.833 -222 149.5s-110 142.667 -144 234s-51 193 -51 305z" />
    <glyph glyph-name="H" unicode="H" horiz-adv-x="1548" 
d="M215 0v1449h106v-676h907v676h105v-1449h-105v694h-907v-694h-106z" />
    <glyph glyph-name="I" unicode="I" horiz-adv-x="612" 
d="M253 0v1449h105v-1449h-105z" />
    <glyph glyph-name="J" unicode="J" horiz-adv-x="929" 
d="M91 13c1.33301 9.33301 2.50293 18.8311 3.50293 28.498s1.83301 19.5 2.5 29.5c1.33301 6 4 11.333 8 16s10.667 7 20 7c6 0 13.333 -1.16699 22 -3.5s19 -4.83301 31 -7.5s25.667 -5.16699 41 -7.5s33 -3.5 53 -3.5c52 0 98.833 8.16699 140.5 24.5
s77.167 41.333 106.5 75s51.666 76.334 66.999 128.001s23 112.167 23 181.5v968h106v-966c0 -81.333 -10.167 -153 -30.5 -215s-49 -114.167 -86 -156.5s-82.333 -74.166 -136 -95.499s-113.834 -32 -180.501 -32c-30.667 0 -61.834 2.33301 -93.501 7s-64.167 12 -97.5 22
z" />
    <glyph glyph-name="K" unicode="K" horiz-adv-x="1351" 
d="M246 0l-0.000976562 1451h104v-671h86c12.667 0 23.834 0.5 33.501 1.5s18.5 3.16699 26.5 6.5s15.333 7.33301 22 12s14 10.667 22 18l584 601c10.667 10.667 20.667 18.334 30 23.001s21 7 35 7h85l-633 -650c-12.667 -13.333 -24 -23.833 -34 -31.5
s-21.333 -13.834 -34 -18.501c14.667 -4 27.667 -10.333 39 -19s22.666 -20 33.999 -34l668 -696h-85c-18 0 -30.667 2.5 -38 7.5s-15.333 11.833 -24 20.5l-613 626c-7.33301 7.33301 -14.166 13.833 -20.499 19.5s-13.333 10.334 -21 14.001s-17 6.33398 -28 8.00098
s-24.833 2.5 -41.5 2.5h-93v-698h-104z" />
    <glyph glyph-name="L" unicode="L" horiz-adv-x="1047" 
d="M215 0v1449h104v-1360h688v-89h-792z" />
    <glyph glyph-name="M" unicode="M" horiz-adv-x="1861" 
d="M215 0v1449h72c9.33301 0 16.833 -1 22.5 -3s11.5 -7.33301 17.5 -16l584 -1008c10 -19.333 19 -40 27 -62l12.5 32.5c4.33301 11 9.5 21.167 15.5 30.5l569 1007c5.33301 8.66699 10.833 14 16.5 16s13.167 3 22.5 3h73v-1449h-93v1235c0 18 1.33301 36.667 4 56
l-571 -1012c-9.33301 -18 -23 -27 -41 -27h-16c-17.333 0 -31 9 -41 27l-586 1013c2 -20 3 -39 3 -57v-1235h-91z" />
    <glyph glyph-name="N" unicode="N" horiz-adv-x="1548" 
d="M215 0v1449h51c9.33301 0 16.833 -1.16699 22.5 -3.5s11.5 -7.5 17.5 -15.5l938 -1256c-2 20.667 -3 40.334 -3 59.001v1216h92v-1449h-50c-16 0 -28.667 6.66699 -38 20l-942 1258c2 -20.667 3 -40 3 -58v-1220h-91z" />
    <glyph glyph-name="O" unicode="O" horiz-adv-x="1633" 
d="M126 725c0 111.333 16.833 212.5 50.5 303.5s81 168.833 142 233.5s133.833 114.667 218.5 150s177.667 53 279 53c103.333 0 197.333 -17.5 282 -52.5s157.334 -85 218.001 -150s107.667 -143 141 -234s50 -192.167 50 -303.5c0 -112 -16.667 -213.5 -50 -304.5
s-80.333 -168.833 -141 -233.5s-133.334 -114.5 -218.001 -149.5s-178.667 -52.5 -282 -52.5c-102 0 -195.167 17.5 -279.5 52.5s-157 84.833 -218 149.5s-108.333 142.5 -142 233.5s-50.5 192.5 -50.5 304.5zM233 725c0 -102 14.167 -193 42.5 -273s68.333 -148 120 -204
s113.167 -98.667 184.5 -128s150 -44 236 -44c87.333 0 166.833 14.667 238.5 44s133 72 184 128s90.5 124 118.5 204s42 171 42 273c0 101.333 -14 192.166 -42 272.499s-67.5 148.5 -118.5 204.5s-112.333 98.833 -184 128.5s-151.167 44.5 -238.5 44.5
c-86 0 -164.667 -14.833 -236 -44.5s-132.833 -72.5 -184.5 -128.5s-91.667 -124.167 -120 -204.5s-42.5 -171.166 -42.5 -272.499z" />
    <glyph glyph-name="P" unicode="P" horiz-adv-x="1215" 
d="M246 0v1449h374c170 0 298.167 -37.167 384.5 -111.5s129.5 -180.5 129.5 -318.5c0 -63.333 -11.833 -121.666 -35.5 -174.999s-57.667 -99.333 -102 -138s-98.333 -68.667 -162 -90s-135.167 -32 -214.5 -32h-270v-584h-104zM350 667.999l270.001 -0.000976562
c64 0 121.167 8.83301 171.5 26.5s93.166 42.167 128.499 73.5s62.333 68.333 81 111s28 89.334 28 140.001c0 111.333 -34.333 197 -103 257s-170.667 90 -306 90h-270v-698z" />
    <glyph glyph-name="Q" unicode="Q" horiz-adv-x="1633" 
d="M126 725c0 111.333 16.8311 212.498 50.498 303.498s81 168.833 142 233.5s133.833 114.667 218.5 150s177.667 53 279 53c103.333 0 197.333 -17.5 282 -52.5s157.334 -85 218.001 -150s107.667 -143 141 -234s50 -192.167 50 -303.5
c0 -73.333 -7.33301 -142.166 -22 -206.499s-35.667 -123.666 -63 -177.999s-60.5 -103 -99.5 -146s-83.167 -79.833 -132.5 -110.5l377 -403h-88c-13.333 0 -25.666 1.83301 -36.999 5.5s-21 10.167 -29 19.5l-309 334c-43.333 -18 -88.833 -31.667 -136.5 -41
s-98.167 -14 -151.5 -14c-102 0 -195.167 17.5 -279.5 52.5s-157 84.833 -218 149.5s-108.333 142.5 -142 233.5s-50.5 192.5 -50.5 304.5zM232.998 724.998c0 -102 14.167 -193 42.5 -273s68.333 -148 120 -204s113.167 -98.667 184.5 -128s150 -44 236 -44
c87.333 0 166.833 14.667 238.5 44s133 72 184 128s90.5 124 118.5 204s42 171 42 273c0 101.333 -14 192.166 -42 272.499s-67.5 148.5 -118.5 204.5s-112.333 98.833 -184 128.5s-151.167 44.5 -238.5 44.5c-86 0 -164.667 -14.833 -236 -44.5
s-132.833 -72.5 -184.5 -128.5s-91.667 -124.167 -120 -204.5s-42.5 -171.166 -42.5 -272.499z" />
    <glyph glyph-name="R" unicode="R" horiz-adv-x="1292" 
d="M246 0l-0.00195312 1449h369c167.333 0 292.333 -32.333 375 -97s124 -159.334 124 -284.001c0 -55.333 -9.5 -105.833 -28.5 -151.5s-46.5 -85.834 -82.5 -120.501s-79.167 -63 -129.5 -85s-107.5 -36.333 -171.5 -43c16.667 -10 31.334 -23.667 44.001 -41l499 -627
h-91c-10.667 0 -20 2 -28 6s-15.667 11 -23 21l-464 587c-11.333 15.333 -23.666 26 -36.999 32s-34 9 -62 9h-190v-655h-104zM349.998 733.002h252c64 0 121.5 7.66699 172.5 23s94 37.333 129 66s61.833 63.167 80.5 103.5s28 85.833 28 136.5
c0 103.333 -33.833 179.833 -101.5 229.5s-166.167 74.5 -295.5 74.5h-265v-633z" />
    <glyph glyph-name="S" unicode="S" horiz-adv-x="1070" 
d="M89 173l29.0059 45.001c8 10 17.333 15 28 15c6 0 13.833 -4 23.5 -12l35 -30c13.667 -12 30.167 -25 49.5 -39s41.5 -27 66.5 -39s54 -22 87 -30s70.167 -12 111.5 -12c57.333 0 108.5 8.66699 153.5 26s83.167 41 114.5 71s55.166 65.667 71.499 107
s24.5 85.666 24.5 132.999c0 51.333 -10.5 93.5 -31.5 126.5s-48.5 60.5 -82.5 82.5s-72.667 40.5 -116 55.5s-87.833 29.667 -133.5 44s-90.167 30.5 -133.5 48.5s-82.166 40.667 -116.499 68s-61.833 61.666 -82.5 102.999s-31 93.333 -31 156
c0 48.667 9.16699 95.334 27.5 140.001s45.166 84.334 80.499 119.001s79.166 62.334 131.499 83.001s111.833 31 178.5 31c75.333 0 142.833 -11.833 202.5 -35.5s114.167 -60.167 163.5 -109.5l-25 -47c-6 -11.333 -14.667 -17.333 -26 -18c-8.66699 0 -20 6.33301 -34 19
s-33 26.667 -57 42s-54 29.5 -90 42.5s-80.333 19.5 -133 19.5s-98.834 -7.5 -138.501 -22.5s-73 -35.5 -100 -61.5s-47.5 -56 -61.5 -90s-21 -69.667 -21 -107c0 -49.333 10.333 -90 31 -122s48.167 -59.333 82.5 -82s73.166 -41.667 116.499 -57l133.5 -45.5
c45.667 -15 90.167 -31.5 133.5 -49.5s82.166 -40.667 116.499 -68s61.833 -61 82.5 -101s31 -89.667 31 -149c0 -60.667 -10.333 -117.834 -31 -171.501s-50.834 -100.334 -90.501 -140.001s-88.167 -70.834 -145.5 -93.501s-123 -34 -197 -34
c-95.333 0 -177.5 16.833 -246.5 50.5s-129.5 79.834 -181.5 138.501z" />
    <glyph glyph-name="T" unicode="T" horiz-adv-x="1197" 
d="M36 1360v89h1125v-89h-509v-1360h-104v1360h-512z" />
    <glyph glyph-name="U" unicode="U" horiz-adv-x="1502" 
d="M202 553l0.00195312 895.997h105v-895c0 -67.333 10.167 -130.166 30.5 -188.499s49.333 -109.166 87 -152.499s84.167 -77.166 139.5 -101.499s117.666 -36.5 186.999 -36.5s131.5 12 186.5 36s101.667 57.5 140 100.5s67.5 93.833 87.5 152.5s30 121.667 30 189v896
h104v-896c0 -80 -12.5 -154.667 -37.5 -224s-61.333 -129.666 -109 -180.999s-105.334 -91.666 -173.001 -120.999s-143.834 -44 -228.501 -44s-161 14.667 -229 44s-125.667 69.666 -173 120.999s-83.666 111.666 -108.999 180.999s-38 144 -38 224z" />
    <glyph glyph-name="V" unicode="V" horiz-adv-x="1319" 
d="M15 1449l83.002 -0.000976562c9.33301 0 17.166 -2.5 23.499 -7.5s11.166 -11.833 14.499 -20.5l494 -1202c12.667 -31.333 23.334 -64.666 32.001 -99.999c7.33301 36.667 17 70 29 100l493 1202c3.33301 7.33301 8.16602 13.833 14.499 19.5s14.5 8.5 24.5 8.5h82
l-598 -1449h-94z" />
    <glyph glyph-name="W" unicode="W" horiz-adv-x="2021" 
d="M17 1449l86.999 0.000976562c20 0 32.667 -9.33301 38 -28l366 -1191c4 -13.333 7.5 -27.833 10.5 -43.5l9.5 -49.5c3.33301 17.333 6.83301 33.833 10.5 49.5s7.83398 30.167 12.501 43.5l410 1191c2.66699 7.33301 7.33398 13.833 14.001 19.5s14.667 8.5 24 8.5h29
c9.33301 0 17.166 -2.5 23.499 -7.5s11.166 -11.833 14.499 -20.5l410 -1191c4.66699 -13.333 8.83398 -27.5 12.501 -42.5s7.16699 -31.167 10.5 -48.5c3.33301 16.667 6.33301 32.667 9 48s6.33398 29.666 11.001 42.999l365 1191c2 7.33301 6.66699 13.833 14 19.5
s15.666 8.5 24.999 8.5h80l-456 -1449h-94l-428 1257c-5.33301 16.667 -10 34.334 -14 53.001c-4 -18.667 -9 -36.334 -15 -53.001l-429 -1257h-93z" />
    <glyph glyph-name="X" unicode="X" horiz-adv-x="1227" 
d="M17 0l524.001 743l-500 706h103c9.33301 0 16.333 -2 21 -6s8.66699 -9 12 -15l440 -634c2 5.33301 4.33301 10.5 7 15.5s5.66699 10.167 9 15.5l425 602c4 5.33301 8.33301 10.333 13 15s10.667 7 18 7h100l-501 -700l521 -749h-103
c-9.33301 -0 -16.833 2.83301 -22.5 8.5s-10.167 11.5 -13.5 17.5l-457 667c-2.66699 -10 -7.33398 -19.667 -14.001 -29l-448 -638c-4.66699 -6 -10.167 -11.833 -16.5 -17.5s-13.5 -8.5 -21.5 -8.5h-96z" />
    <glyph glyph-name="Y" unicode="Y" horiz-adv-x="1227" 
d="M26 1449l91.001 0.00195312c9.33301 0 16.833 -2.16699 22.5 -6.5s11.5 -10.833 17.5 -19.5l414 -665c9.33301 -16 17.5 -31.333 24.5 -46s13.167 -29.334 18.5 -44.001c5.33301 15.333 11.5 30.166 18.5 44.499s15.167 29.5 24.5 45.5l414 665
c4 7.33301 9.16699 13.5 15.5 18.5s14.166 7.5 23.499 7.5h92l-535 -851v-598h-106v598z" />
    <glyph glyph-name="Z" unicode="Z" horiz-adv-x="1296" 
d="M118 0v38c0 12.667 4 25 12 37l922 1287h-908v87h1047v-36c0 -14.667 -4.66699 -28.667 -14 -42l-920 -1284h926v-87h-1065z" />
    <glyph glyph-name="bracketleft" unicode="[" horiz-adv-x="614" 
d="M179 -270v1823h326v-36c0 -8.66699 -3 -15.834 -9 -21.501s-13.667 -8.5 -23 -8.5h-211v-1691h211c9.33301 0 17 -2.66699 23 -8s9 -12.333 9 -21v-37h-326z" />
    <glyph glyph-name="backslash" unicode="\" horiz-adv-x="732" 
d="M-8 1490h42c26.667 0 45 -12.667 55 -38l637 -1538h-40c-11.333 0 -22.5 3.16699 -33.5 9.5s-19.167 16.5 -24.5 30.5z" />
    <glyph glyph-name="bracketright" unicode="]" horiz-adv-x="614" 
d="M110 -233c0 8.66699 2.66699 15.668 8 21.001s12.666 8 21.999 8h211v1691h-211c-9.33301 0 -16.666 2.66699 -21.999 8s-8 12.666 -8 21.999v36h324v-1823h-324v37z" />
    <glyph glyph-name="asciicircum" unicode="^" 
d="M208 819l348.999 630.001h61l350 -630h-70c-7.33301 0 -14 2.33301 -20 7s-10.667 10.334 -14 17.001l-247 446c-6 11.333 -11.333 22.166 -16 32.499s-8.66699 21.166 -12 32.499c-3.33301 -10.667 -7.33301 -21.334 -12 -32.001s-10 -21.667 -16 -33l-246 -446
c-3.33301 -5.33301 -7.66602 -10.666 -12.999 -15.999s-12.333 -8 -21 -8h-73z" />
    <glyph glyph-name="underscore" unicode="_" horiz-adv-x="806" 
d="M0 -210h807v-70h-807v70z" />
    <glyph glyph-name="grave" unicode="`" horiz-adv-x="599" 
d="M88 1465h94c16.667 0 29 -2.33301 37 -7s16 -13 24 -25l160 -244h-55c-8 0 -15 1.16699 -21 3.5s-11.667 6.83301 -17 13.5z" />
    <glyph glyph-name="a" unicode="a" horiz-adv-x="996" 
d="M110 247c0 43.333 12.1689 83.334 36.502 120.001s62.666 68.667 114.999 96s119.666 49.166 201.999 65.499s181.166 25.833 296.499 28.5v107c0 94 -20.333 166.333 -61 217s-101 76 -181 76c-49.333 0 -91.166 -6.83301 -125.499 -20.5s-63.5 -28.667 -87.5 -45
s-43.5 -31.333 -58.5 -45s-27.5 -20.5 -37.5 -20.5c-13.333 0 -23.666 6.33301 -30.999 19l-17 29c53.333 53.333 109.333 93.666 168 120.999s125 41 199 41c54.667 0 102.5 -8.66699 143.5 -26s75 -42.166 102 -74.499s47.333 -71.5 61 -117.5s20.5 -97.333 20.5 -154
v-664h-39c-20.667 0 -33.334 9.66699 -38.001 29l-14 130c-28 -27.333 -55.833 -52 -83.5 -74s-56.5 -40.5 -86.5 -55.5s-62.5 -26.333 -97.5 -34s-73.167 -11.5 -114.5 -11.5c-34.667 0 -68.5 5 -101.5 15s-62 25.667 -87 47s-45.167 48.5 -60.5 81.5s-23 72.833 -23 119.5
zM204.002 251.001c0 -34 5.66504 -63.5 16.998 -88.5s26.166 -45.5 44.499 -61.5s39.833 -27.833 64.5 -35.5s50.334 -11.5 77.001 -11.5c39.333 0 75.5 4.33301 108.5 13s63.667 20.667 92 36s54.833 33.5 79.5 54.5s49 43.833 73 68.5v266
c-96.667 -2.66699 -180.167 -10 -250.5 -22s-128.166 -28.333 -173.499 -49s-78.666 -45.167 -99.999 -73.5s-32 -60.5 -32 -96.5z" />
    <glyph glyph-name="b" unicode="b" horiz-adv-x="1118" 
d="M176 0v1490h98v-649c45.333 60 97.666 107.333 156.999 142s126.333 52 201 52c124.667 0 222 -43.167 292 -129.5s105 -216.166 105 -389.499c0 -74.667 -9.66699 -144.167 -29 -208.5s-48 -120.166 -86 -167.499s-84.5 -84.666 -139.5 -111.999
s-118.167 -41 -189.5 -41c-70.667 0 -131.667 13.833 -183 41.5s-95.666 68.5 -132.999 122.5l-6 -125c-2 -17.333 -11 -26 -27 -26h-60zM274 221.997c38.667 -58.667 81.6699 -99.833 129.003 -123.5s101.666 -35.5 162.999 -35.5c60 0 112.667 11 158 33
s83.166 53 113.499 93s53.166 87.833 68.499 143.5s23 116.834 23 183.501c0 151.333 -28 262.666 -84 333.999s-136.333 107 -241 107c-67.333 0 -128.333 -17.333 -183 -52s-103.667 -83 -147 -145v-538z" />
    <glyph glyph-name="c" unicode="c" horiz-adv-x="931" 
d="M90 510c0 78 10.333 148.999 31 212.999s50.5 119.167 89.5 165.5s87 82.333 144 108s122.5 38.5 196.5 38.5c66 0 124.833 -10.5 176.5 -31.5s96.5 -49.5 134.5 -85.5l-25 -35c-3.33301 -3.33301 -6.66602 -6.33301 -9.99902 -9s-7.66602 -4 -12.999 -4
c-6.66699 0 -16 4.66699 -28 14s-27.833 19.5 -47.5 30.5s-44.334 21 -74.001 30s-65.834 13.5 -108.501 13.5c-58.667 0 -110.667 -10.333 -156 -31s-83.5 -50.5 -114.5 -89.5s-54.833 -86.167 -71.5 -141.5s-25 -117.333 -25 -186c0 -72 8.5 -135.5 25.5 -190.5
s40.833 -101.5 71.5 -139.5s67.834 -67 111.501 -87s92.167 -30 145.5 -30c49.333 0 90.5 5.83301 123.5 17.5s60.167 24.334 81.5 38.001s38.333 26.334 51 38.001s22.667 17.5 30 17.5c8.66699 0 15.667 -3.33301 21 -10l27 -33c-16 -20.667 -36 -39.834 -60 -57.501
s-51 -33 -81 -46s-62.5 -23 -97.5 -30s-71.833 -10.5 -110.5 -10.5c-64.667 0 -123.834 11.667 -177.501 35s-99.667 57.333 -138 102s-68.333 99.5 -90 164.5s-32.5 138.833 -32.5 221.5z" />
    <glyph glyph-name="d" unicode="d" horiz-adv-x="1118" 
d="M89 507c0 74.667 9.66602 144.17 28.999 208.503s48 120.166 86 167.499s84.5 84.666 139.5 111.999s118.5 41 190.5 41c68.667 0 128.167 -12.833 178.5 -38.5s94.166 -62.834 131.499 -111.501v604h98v-1490h-54c-17.333 0 -27.333 9 -30 27l-10 160
c-45.333 -61.333 -98.166 -110 -158.499 -146s-128.166 -54 -203.499 -54c-124.667 0 -222 43.333 -292 130s-105 216.667 -105 390zM188.999 507.003c0 -151.333 28 -262.666 84 -333.999s136.333 -107 241 -107c67.333 0 128.333 17.333 183 52s103.667 83 147 145v538
c-39.333 58 -82.833 98.833 -130.5 122.5s-101.5 35.5 -161.5 35.5s-112.5 -10.833 -157.5 -32.5s-82.667 -52.5 -113 -92.5s-53.333 -87.833 -69 -143.5s-23.5 -116.834 -23.5 -183.501z" />
    <glyph glyph-name="e" unicode="e" horiz-adv-x="1046" 
d="M90 530c0 73.333 10.498 140.833 31.498 202.5s51 114.834 90 159.501s87 79.667 144 105s121.833 38 194.5 38c57.333 0 110.333 -9.83301 159 -29.5s91 -48.5 127 -86.5s64 -84.667 84 -140s30 -118.666 30 -189.999c0 -15.333 -2.16699 -25.666 -6.5 -30.999
s-11.166 -8 -20.499 -8h-737v-20c0 -76.667 9 -143.834 27 -201.501s43.333 -106.167 76 -145.5s72.167 -68.833 118.5 -88.5s98.166 -29.5 155.499 -29.5c51.333 0 95.833 5.5 133.5 16.5s69.167 23.5 94.5 37.5s45.5 26.667 60.5 38s26.167 17 33.5 17
c8.66699 0 15.334 -3.33301 20.001 -10l27 -33c-16.667 -20.667 -38.5 -39.834 -65.5 -57.501s-57 -32.834 -90 -45.501s-68.5 -22.667 -106.5 -30s-76 -11 -114 -11c-69.333 0 -132.666 12 -189.999 36s-106.5 59.333 -147.5 106s-72.667 103.5 -95 170.5
s-33.5 143.833 -33.5 230.5zM189.998 612l672.002 0.000976562c0 54.667 -7.5 103.667 -22.5 147s-36.167 80 -63.5 110s-60 53.167 -98 69.5s-80.333 24.5 -127 24.5c-52.667 0 -99.834 -8.33301 -141.501 -25s-77.667 -40.334 -108 -71.001s-54.833 -67.5 -73.5 -110.5
s-31.334 -91.167 -38.001 -144.5z" />
    <glyph glyph-name="f" unicode="f" horiz-adv-x="659" 
d="M31 947v40.002h173v129c0 58 7.5 109 22.5 153s36.167 80.667 63.5 110s60.166 51.333 98.499 66s80.833 22 127.5 22c21.333 0 42.666 -1.83301 63.999 -5.5s40.333 -8.83398 57 -15.501l-3 -47c-0.666992 -9.33301 -7.33398 -14.333 -20.001 -15
c-8 0 -19 1.16699 -33 3.5s-31.333 3.5 -52 3.5c-33.333 0 -64.166 -5 -92.499 -15s-52.666 -26 -72.999 -48s-36.166 -50.5 -47.499 -85.5s-17 -78.167 -17 -129.5v-126h331v-73h-329v-914h-97v912l-144 10c-20 1.33301 -29.667 9.66602 -29 24.999z" />
    <glyph glyph-name="g" unicode="g" horiz-adv-x="1033" 
d="M77 -108c0 54 17.667 100.494 53 139.494s84 69.167 146 90.5c-34 11.333 -61 28 -81 50s-30 52.333 -30 91c0 14.667 2.66699 29.834 8 45.501s13.5 31.167 24.5 46.5s24.167 29.833 39.5 43.5s33.333 25.834 54 36.501c-48.667 28 -86.5 65.167 -113.5 111.5
s-40.5 100.833 -40.5 163.5c0 49.333 8.66699 93.833 26 133.5s42 73.834 74 102.501s70.5 50.834 115.5 66.501s94.833 23.5 149.5 23.5c44.667 0 85.834 -5.33301 123.501 -16s71.5 -26 101.5 -46h261v-34c0 -17.333 -9.66699 -26.666 -29 -27.999l-154 -11
c19.333 -26 34 -55.167 44 -87.5s15 -66.833 15 -103.5c0 -49.333 -8.83301 -94 -26.5 -134s-42.334 -74.167 -74.001 -102.5s-69.667 -50.333 -114 -66s-93.5 -23.5 -147.5 -23.5c-58.667 0 -112 9 -160 27c-28.667 -16.667 -51.167 -36.334 -67.5 -59.001
s-24.5 -44.334 -24.5 -65.001c0 -29.333 10.167 -51.833 30.5 -67.5s47.5 -27.167 81.5 -34.5s72.667 -12 116 -14s87.333 -4.16699 132 -6.5s88.667 -6.66602 132 -12.999s81.833 -17.166 115.5 -32.499s60.834 -36.833 81.501 -64.5s31 -64.167 31 -109.5
c0 -42 -10.667 -82.667 -32 -122s-52 -74 -92 -104s-88.333 -54 -145 -72s-120 -27 -190 -27c-72 0 -134.833 7.33301 -188.5 22s-98.834 34.5 -135.501 59.5s-64.167 53.833 -82.5 86.5s-27.5 67.334 -27.5 104.001zM164 -96.0059c0 -30 7.66699 -57.832 23 -83.499
s37.833 -47.834 67.5 -66.501s66 -33.5 109 -44.5s92.5 -16.5 148.5 -16.5c52 0 100.333 5.83301 145 17.5s83.5 28 116.5 49s59 46.167 78 75.5s28.5 61.333 28.5 96c0 32 -8.5 57.833 -25.5 77.5s-39.5 35 -67.5 46s-60.167 18.667 -96.5 23s-74.5 7.5 -114.5 9.5
l-120.5 6c-40.333 2 -77.833 6 -112.5 12c-26 -10 -50 -21.667 -72 -35s-41 -28.333 -57 -45s-28.333 -35 -37 -55s-13 -42 -13 -66zM227 707.995c0 -38 6.16602 -72.832 18.499 -104.499s30.333 -58.834 54 -81.501s52.5 -40.167 86.5 -52.5s72.667 -18.5 116 -18.5
c44 0 83 6.16699 117 18.5s62.5 29.833 85.5 52.5s40.5 49.667 52.5 81s18 66.333 18 105c0 38 -6.16699 72.833 -18.5 104.5s-30.166 58.834 -53.499 81.501s-52 40.167 -86 52.5s-72.333 18.5 -115 18.5c-43.333 0 -82 -6.16699 -116 -18.5s-62.833 -29.833 -86.5 -52.5
s-41.667 -49.834 -54 -81.501s-18.5 -66.5 -18.5 -104.5z" />
    <glyph glyph-name="h" unicode="h" horiz-adv-x="1107" 
d="M166 0l0.000976562 1490h97v-645c47.333 58 101.166 104.167 161.499 138.5s128.166 51.5 203.499 51.5c56 0 105.333 -8.83301 148 -26.5s78 -43.167 106 -76.5s49.167 -73.666 63.5 -120.999s21.5 -100.666 21.5 -159.999v-651h-98v651
c0 95.333 -21.833 170.166 -65.5 224.499s-110.5 81.5 -200.5 81.5c-66.667 0 -128.667 -17.167 -186 -51.5s-108.666 -81.5 -153.999 -141.5v-764h-97z" />
    <glyph glyph-name="i" unicode="i" horiz-adv-x="486" 
d="M154 1370c0 12 2.33203 23.667 6.99902 35s11.167 21.166 19.5 29.499s17.833 14.833 28.5 19.5s22.334 7 35.001 7c12 0 23.5 -2.33301 34.5 -7s20.5 -11.167 28.5 -19.5s14.667 -18.166 20 -29.499s8 -23 8 -35s-2.66699 -23.333 -8 -34s-12 -20.167 -20 -28.5
s-17.5 -14.833 -28.5 -19.5s-22.5 -7 -34.5 -7s-23.5 2.33301 -34.5 7s-20.667 11.167 -29 19.5s-14.833 17.833 -19.5 28.5s-7 22 -7 34zM194.999 0v1019h97v-1019h-97z" />
    <glyph glyph-name="j" unicode="j" horiz-adv-x="482" 
d="M-51 -356l4.99902 49c0.666992 8 5.33398 12 14.001 12c5.33301 0 13 -1.33301 23 -4s23.667 -4 41 -4c55.333 0 96.333 15 123 45s40 72.667 40 128v1149h97v-1149c0 -35.333 -5.16699 -68 -15.5 -98s-25.5 -56.167 -45.5 -78.5s-45.167 -39.833 -75.5 -52.5
s-66.166 -19 -107.499 -19c-20 0 -37.833 1.66699 -53.5 5s-30.834 9 -45.501 17zM153.999 1370c0 12 2.33203 23.667 6.99902 35s11.167 21.166 19.5 29.499s17.833 14.833 28.5 19.5s22.334 7 35.001 7c12 0 23.5 -2.33301 34.5 -7s20.5 -11.167 28.5 -19.5
s14.667 -18.166 20 -29.499s8 -23 8 -35s-2.66699 -23.333 -8 -34s-12 -20.167 -20 -28.5s-17.5 -14.833 -28.5 -19.5s-22.5 -7 -34.5 -7s-23.5 2.33301 -34.5 7s-20.667 11.167 -29 19.5s-14.833 17.833 -19.5 28.5s-7 22 -7 34z" />
    <glyph glyph-name="k" unicode="k" horiz-adv-x="1007" 
d="M176 0l-0.00195312 1490h98v-908h48c9.33301 0 18.166 1.33301 26.499 4s17.833 9 28.5 19l408 388c7.33301 7.33301 15 13.5 23 18.5s18.333 7.5 31 7.5h86l-450 -427l-19.5 -19c-6.33301 -6 -13.166 -11 -20.499 -15c10.667 -5.33301 19.834 -11.833 27.501 -19.5
l23.5 -24.5l472 -514h-85c-9.33301 0 -17.666 1.83301 -24.999 5.5s-15 9.83398 -23 18.501l-428 458c-11.333 12 -21.833 20.333 -31.5 25s-24.5 7 -44.5 7h-47v-514h-98z" />
    <glyph glyph-name="l" unicode="l" horiz-adv-x="486" 
d="M195 0v1490h97v-1490h-97z" />
    <glyph glyph-name="m" unicode="m" horiz-adv-x="1629" 
d="M166 0l-0.000976562 1019h53c18 0 28.333 -8.66699 31 -26l9 -147c20 28 41.167 53.5 63.5 76.5s46.333 43 72 60s53 30 82 39s59.5 13.5 91.5 13.5c74.667 0 134.167 -21.667 178.5 -65s74.5 -103.333 90.5 -180c12 42 29.167 78.333 51.5 109s47.833 56.167 76.5 76.5
s59.834 35.333 93.501 45s68.167 14.5 103.5 14.5c50.667 0 96.167 -8.33301 136.5 -25s74.666 -41.334 102.999 -74.001s50 -73 65 -121s22.5 -102.667 22.5 -164v-651h-98v651c0 100 -21.5 176 -64.5 228s-104.5 78 -184.5 78c-35.333 0 -69.333 -6.33301 -102 -19
s-61.5 -31.834 -86.5 -57.501s-44.833 -57.667 -59.5 -96s-22 -82.833 -22 -133.5v-651h-97v651c0 98.667 -19.833 174.334 -59.5 227.001s-97.167 79 -172.5 79c-55.333 0 -106.666 -16.5 -153.999 -49.5s-89.333 -78.833 -126 -137.5v-770h-97z" />
    <glyph glyph-name="n" unicode="n" horiz-adv-x="1107" 
d="M166 0l-0.00195312 1019h53c18 0 28.333 -8.66699 31 -26l9 -153c46.667 58.667 100.834 105.834 162.501 141.501s130.5 53.5 206.5 53.5c56 0 105.333 -8.83301 148 -26.5s78 -43.167 106 -76.5s49.167 -73.666 63.5 -120.999s21.5 -100.666 21.5 -159.999v-651h-98
v651c0 95.333 -21.833 170.166 -65.5 224.499s-110.5 81.5 -200.5 81.5c-66.667 0 -128.667 -17.167 -186 -51.5s-108.666 -81.5 -153.999 -141.5v-764h-97z" />
    <glyph glyph-name="o" unicode="o" horiz-adv-x="1107" 
d="M89 510c0 80 10.5 152.167 31.5 216.5s51.333 119.5 91 165.5s88.334 81.333 146.001 106s123.167 37 196.5 37s138.833 -12.333 196.5 -37s106.167 -60 145.5 -106s69.5 -101.167 90.5 -165.5s31.5 -136.5 31.5 -216.5s-10.5 -152 -31.5 -216s-51.167 -119 -90.5 -165
s-87.833 -81.167 -145.5 -105.5s-123.167 -36.5 -196.5 -36.5s-138.833 12.167 -196.5 36.5s-106.334 59.5 -146.001 105.5s-70 101 -91 165s-31.5 136 -31.5 216zM189 510c0 -68 7.83301 -129.5 23.5 -184.5s38.667 -102 69 -141s68.166 -69 113.499 -90
s98.333 -31.5 159 -31.5s113.667 10.5 159 31.5s83.166 51 113.499 90s53.166 86 68.499 141s23 116.5 23 184.5c0 67.333 -7.66699 128.666 -23 183.999s-38.166 102.666 -68.499 141.999s-68.166 69.5 -113.499 90.5s-98.333 31.5 -159 31.5s-113.667 -10.5 -159 -31.5
s-83.166 -51.167 -113.499 -90.5s-53.333 -86.666 -69 -141.999s-23.5 -116.666 -23.5 -183.999z" />
    <glyph glyph-name="p" unicode="p" horiz-adv-x="1095" 
d="M166 -360l0.000976562 1379h53c8.66699 0 15.834 -1.83301 21.501 -5.5s8.83398 -10.5 9.50098 -20.5l9 -157c45.333 61.333 98.166 110 158.499 146s128.166 54 203.499 54c125.333 0 222.833 -43.333 292.5 -130s104.5 -216.667 104.5 -390
c0 -74.667 -9.83301 -144.167 -29.5 -208.5s-48.167 -120.166 -85.5 -167.499s-83.5 -84.666 -138.5 -111.999s-118.5 -41 -190.5 -41c-69.333 0 -129.333 12.5 -180 37.5s-94.334 62.5 -131.001 112.5v-497h-97zM263.001 222.998c38.667 -58.667 81.832 -100 129.499 -124
s101.834 -36 162.501 -36c60 0 112.5 11 157.5 33s82.667 53 113 93s53.333 87.833 69 143.5s23.5 116.834 23.5 183.501c0 151.333 -27.833 262.666 -83.5 333.999s-136.167 107 -241.5 107c-67.333 0 -128.5 -17.5 -183.5 -52.5s-103.833 -83.833 -146.5 -146.5v-535z" />
    <glyph glyph-name="q" unicode="q" horiz-adv-x="1118" 
d="M89 507c0 74.667 9.66602 144.169 28.999 208.502s48 120.166 86 167.499s84.5 84.666 139.5 111.999s118.5 41 190.5 41c70 0 130.833 -13.333 182.5 -40s95.834 -65.667 132.501 -117l9 114c0.666992 17.333 10.667 26 30 26h54v-1379h-98v541
c-45.333 -60 -97.833 -107.333 -157.5 -142s-126.5 -52 -200.5 -52c-124.667 0 -222 43.333 -292 130s-105 216.667 -105 390zM188.999 507.002c0 -151.333 28.002 -262.666 84.002 -333.999s136.333 -107 241 -107c67.333 0 128.333 17.333 183 52s103.667 83 147 145v539
c-36.667 56 -79.334 96.167 -128.001 120.5s-103.334 36.5 -164.001 36.5c-60 0 -112.5 -10.833 -157.5 -32.5s-82.667 -52.5 -113 -92.5s-53.333 -87.833 -69 -143.5s-23.5 -116.834 -23.5 -183.501z" />
    <glyph glyph-name="r" unicode="r" horiz-adv-x="813" 
d="M166 0l-0.00292969 1019h51c11.333 0 19.666 -2.33301 24.999 -7s8.33301 -13 9 -25l8 -215c32.667 82.667 76.334 147.334 131.001 194.001s122 70 202 70c30.667 0 59 -3.16699 85 -9.5s50.667 -15.833 74 -28.5l-14 -67c-2 -10.667 -8.66699 -16.334 -20 -17.001
c-4 0 -9.83301 1.5 -17.5 4.5s-17.167 6.16699 -28.5 9.5s-25.166 6.33301 -41.499 9s-35.166 4 -56.499 4c-77.333 0 -140.666 -23.833 -189.999 -71.5s-89.333 -116.5 -120 -206.5v-663h-97z" />
    <glyph glyph-name="s" unicode="s" horiz-adv-x="880" 
d="M91 108l23.9951 34.002c3.33301 5.33301 7 9.5 11 12.5s9.66699 4.5 17 4.5c8.66699 0 19.667 -5.5 33 -16.5s30.333 -22.833 51 -35.5s46.5 -24.5 77.5 -35.5s69.5 -16.5 115.5 -16.5c43.333 0 81.333 6 114 18s59.834 28.333 81.501 49s38.167 44.834 49.5 72.501
s17 56.834 17 87.501c0 34 -8.16699 62.167 -24.5 84.5s-37.833 41.333 -64.5 57s-56.834 29 -90.501 40l-104.5 33c-36 11 -70.833 23 -104.5 36s-63.834 29.333 -90.501 49s-48.167 43.667 -64.5 72s-24.5 63.833 -24.5 106.5c0 36 7.83301 70.667 23.5 104
s38 62.666 67 87.999s64.333 45.5 106 60.5s88.5 22.5 140.5 22.5c62 0 117 -8.83301 165 -26.5s92.333 -44.834 133 -81.501l-22 -34c-4.66699 -9.33301 -12 -14 -22 -14c-7.33301 0 -17.166 4.16699 -29.499 12.5s-28.166 17.833 -47.499 28.5
s-43.166 20.334 -71.499 29.001s-62.833 13 -103.5 13c-36.667 0 -70.334 -5.33301 -101.001 -16s-56.667 -24.834 -78 -42.501s-38 -38.334 -50 -62.001s-18 -48.5 -18 -74.5c0 -32 8.16699 -58.667 24.5 -80s37.833 -39.5 64.5 -54.5s56.834 -27.833 90.501 -38.5
l104 -32.5c35.667 -11 70.334 -23.167 104.001 -36.5s63.834 -30 90.501 -50s48.167 -44.333 64.5 -73s24.5 -63.334 24.5 -104.001c0 -44.667 -8 -86 -24 -124s-39.167 -71 -69.5 -99s-67.666 -50.167 -111.999 -66.5s-94.833 -24.5 -151.5 -24.5
c-72 0 -133.833 11.333 -185.5 34s-98.167 52.667 -139.5 90z" />
    <glyph glyph-name="t" unicode="t" horiz-adv-x="730" 
d="M53 938l0.000976562 38.001l174 12l25 365c0.666992 6 3.16699 11.333 7.5 16s10.5 7 18.5 7h46v-389h320v-73h-320v-691c0 -28 3.5 -52 10.5 -72s16.833 -36.5 29.5 -49.5s27.5 -22.667 44.5 -29s35.5 -9.5 55.5 -9.5c24.667 0 45.834 3.66699 63.501 11
s33 15.333 46 24s23.5 16.5 31.5 23.5s14.667 10.5 20 10.5s10.666 -3.33301 15.999 -10l27 -43c-26 -28.667 -59 -51.667 -99 -69s-81.667 -26 -125 -26c-68.667 0 -122.334 19 -161.001 57s-58 97 -58 177v696h-146c-7.33301 0 -13.5 2.16699 -18.5 6.5
s-7.5 10.166 -7.5 17.499z" />
    <glyph glyph-name="u" unicode="u" horiz-adv-x="1107" 
d="M140 368v651.002h99v-651c0 -95.333 21.833 -170.333 65.5 -225s110.167 -82 199.5 -82c66 0 127.667 17 185 51s109 81 155 141v766h98v-1019h-54c-19.333 0 -29.333 9 -30 27l-9 151c-47.333 -58.667 -101.833 -105.667 -163.5 -141s-130.5 -53 -206.5 -53
c-56.667 0 -106.167 8.83301 -148.5 26.5s-77.5 43.167 -105.5 76.5s-49.167 73.666 -63.5 120.999s-21.5 100.666 -21.5 159.999z" />
    <glyph glyph-name="v" unicode="v" horiz-adv-x="997" 
d="M26 1019l75.999 -0.000976562c9.33301 0 17 -2.5 23 -7.5s10.333 -10.833 13 -17.5l336 -804c6.66699 -16 11.834 -31 15.501 -45s7.16699 -28.333 10.5 -43l10.5 44c3.66699 14.667 8.5 29.334 14.5 44.001l338 804c3.33301 7.33301 8 13.333 14 18s13 7 21 7h74
l-430 -1019h-86z" />
    <glyph glyph-name="w" unicode="w" horiz-adv-x="1509" 
d="M23 1019l74.002 0.000976562c9.33301 0 17.166 -2.5 23.499 -7.5s10.5 -10.833 12.5 -17.5l257 -804c4.66699 -16 8.5 -31 11.5 -45s5.83301 -28.333 8.5 -43c3.33301 14.667 7 29.167 11 43.5s8.66699 29.166 14 44.499l274 811c4.66699 15.333 14 23 28 23h40
c15.333 0 25.333 -7.66699 30 -23l269 -811c10 -30.667 18.333 -60.334 25 -89.001c2.66699 14.667 5.5 29.334 8.5 44.001s7.16699 29.667 12.5 45l258 804c5.33301 16.667 17 25 35 25h72l-341 -1019h-72c-10.667 -0 -18.334 7.33301 -23.001 22l-280 827
c-3.33301 10 -6.33301 20.167 -9 30.5s-5 20.5 -7 30.5c-2 -10 -4.33301 -20.167 -7 -30.5s-5.66699 -20.5 -9 -30.5l-282 -827c-4 -14.667 -12.333 -22 -25 -22h-68z" />
    <glyph glyph-name="x" unicode="x" horiz-adv-x="943" 
d="M36 0l368 521.001l-354 498h93c9.33301 0 16.333 -2 21 -6s8.66699 -9 12 -15l299 -432c2.66699 11.333 8.66699 23.666 18 36.999l279 394c3.33301 6 7.66602 11.167 12.999 15.5s11.333 6.5 18 6.5h90l-356 -493l370 -526h-93c-9.33301 -0 -16.833 2.83301 -22.5 8.5
s-10.167 11.5 -13.5 17.5l-309 450c-3.33301 -13.333 -8.33301 -25 -15 -35l-297 -417c-4.66699 -6 -9.66699 -11.5 -15 -16.5s-11.666 -7.5 -18.999 -7.5h-87z" />
    <glyph glyph-name="y" unicode="y" horiz-adv-x="997" 
d="M23 1019h80.002c10 0 18 -2.5 24 -7.5s10.333 -10.833 13 -17.5l343 -792c4 -10 7.66699 -20.333 11 -31s6.33301 -21.667 9 -33l10.5 32l11.5 32l339 792c3.33301 7.33301 8.16602 13.333 14.499 18s13.166 7 20.499 7h75l-586 -1347c-4 -9.33301 -9.33301 -17 -16 -23
s-16 -9 -28 -9h-70l180 398z" />
    <glyph glyph-name="z" unicode="z" horiz-adv-x="925" 
d="M76 0v39c0 11.333 5 24 15 38l640 865h-621v77h736v-41c0 -14.667 -5 -27.667 -15 -39l-637 -862h626v-77h-744z" />
    <glyph glyph-name="braceleft" unicode="{" horiz-adv-x="614" 
d="M65 610l-0.000976562 62.9971c24 0 45.833 3.66699 65.5 11s36.5 18 50.5 32s24.667 30.5 32 49.5s11 39.5 11 61.5c0 37.333 -3.16699 73.833 -9.5 109.5s-13.333 71.334 -21 107.001s-14.667 71.334 -21 107.001s-9.5 72.834 -9.5 111.501
c0 41.333 6.5 79.833 19.5 115.5s31.667 66.5 56 92.5s54.5 46.333 90.5 61s76.667 22 122 22h56v-43c0 -7.33301 -3 -13 -9 -17s-11.667 -6 -17 -6h-34c-29.333 0 -56 -5.16699 -80 -15.5s-44.667 -25 -62 -44s-31 -42.167 -41 -69.5s-15 -57.666 -15 -90.999
c0 -38.667 3 -76.5 9 -113.5s12.833 -73.5 20.5 -109.5s14.5 -71.833 20.5 -107.5s9 -71.834 9 -108.501c0 -25.333 -4.16699 -48.5 -12.5 -69.5s-19.5 -39.333 -33.5 -55s-30.167 -28.834 -48.5 -39.501s-37.166 -18.334 -56.499 -23.001c20 -4 39 -11.333 57 -22
s34 -24 48 -40s25.167 -34.333 33.5 -55s12.5 -43.667 12.5 -69c0 -36 -3 -72 -9 -108s-12.833 -72.167 -20.5 -108.5s-14.5 -72.833 -20.5 -109.5s-9 -74.334 -9 -113.001c0 -33.333 5 -63.666 15 -90.999s23.667 -50.5 41 -69.5s38 -33.667 62 -44s50.667 -15.5 80 -15.5
h34c5.33301 0 11 -2 17 -6s9 -9.66699 9 -17v-43h-56c-45.333 0 -86 7.33301 -122 22s-66.167 35.167 -90.5 61.5s-43 57.166 -56 92.499s-19.5 74 -19.5 116c0 38 3.16699 74.833 9.5 110.5s13.333 71.334 21 107.001s14.667 71.334 21 107.001s9.5 72.167 9.5 109.5
c0 22.667 -3.66699 43.334 -11 62.001s-18 35 -32 49s-31 24.667 -51 32s-41.667 11 -65 11z" />
    <glyph glyph-name="bar" unicode="|" horiz-adv-x="614" 
d="M268 -360v1913h77v-1913h-77z" />
    <glyph glyph-name="braceright" unicode="}" horiz-adv-x="614" 
d="M108 -227c0 7.33301 2.66602 13.001 7.99902 17.001s11 6 17 6h34c29.333 0 56.166 5.16699 80.499 15.5s45.166 25 62.499 44s31 42.167 41 69.5s15 57.666 15 90.999c0 38 -3.16699 75.5 -9.5 112.5s-13.166 73.667 -20.499 110s-14.166 72.333 -20.499 108
s-9.5 71.834 -9.5 108.501c0 25.333 4.16699 48.333 12.5 69s19.5 39 33.5 55s30 29.333 48 40s37 18 57 22c-20 4.66699 -39 12.334 -57 23.001s-34 23.834 -48 39.501s-25.167 34.167 -33.5 55.5s-12.5 44.333 -12.5 69c0 36 3.16699 72 9.5 108s13.166 72 20.499 108
s14.166 72.333 20.499 109s9.5 74.667 9.5 114c0 33.333 -5 63.666 -15 90.999s-23.667 50.5 -41 69.5s-38.166 33.667 -62.499 44s-51.166 15.5 -80.499 15.5h-34c-6 0 -11.667 2 -17 6s-8 9.66699 -8 17v43h56c45.333 0 85.833 -7.33301 121.5 -22s65.834 -35 90.501 -61
s43.5 -56.833 56.5 -92.5s19.5 -74.167 19.5 -115.5c0 -38 -3.33301 -75 -10 -111s-13.667 -71.833 -21 -107.5l-21 -106.5c-6.66699 -35.333 -10 -72 -10 -110c0 -22.667 3.83301 -43.334 11.5 -62.001s18.5 -35 32.5 -49s30.667 -24.667 50 -32s41 -11 65 -11v-63
c-24 0 -45.667 -3.66699 -65 -11s-36 -18 -50 -32s-24.833 -30.333 -32.5 -49s-11.5 -39.334 -11.5 -62.001c0 -37.333 3.33301 -73.833 10 -109.5l21 -107l21 -107c6.66699 -35.667 10 -72.5 10 -110.5c0 -41.333 -6.5 -79.833 -19.5 -115.5s-31.833 -66.667 -56.5 -93
s-55 -46.833 -91 -61.5s-76.333 -22 -121 -22h-56v43z" />
    <glyph glyph-name="asciitilde" unicode="~" 
d="M143 444c0 37.333 5.50293 72.166 16.5029 104.499s26.833 60.5 47.5 84.5s45.834 42.833 75.501 56.5s63.5 20.5 101.5 20.5c35.333 0 71.333 -6.66699 108 -20s72.667 -28.166 108 -44.499s69.833 -31.166 103.5 -44.499s65.167 -20 94.5 -20
c25.333 0 48.333 4.5 69 13.5s38.167 21.667 52.5 38s25.5 35.833 33.5 58.5s12 47.334 12 74.001h79c0 -37.333 -5.33301 -72.166 -16 -104.499s-26.334 -60.333 -47.001 -84s-46 -42.334 -76 -56.001s-64 -20.5 -102 -20.5c-34.667 0 -70.334 6.66699 -107.001 20
s-72.834 28.166 -108.501 44.499s-70.334 31.166 -104.001 44.499s-65.167 20 -94.5 20c-26 0 -49 -4.66699 -69 -14s-37.167 -22.166 -51.5 -38.499s-25.5 -35.833 -33.5 -58.5s-12.333 -47.334 -13 -74.001h-79z" />
    <glyph glyph-name="uni00A0" unicode="&#xa0;" horiz-adv-x="395" 
 />
    <glyph glyph-name="exclamdown" unicode="&#xa1;" horiz-adv-x="660" 
d="M236 941c0 26.667 9 49 27 67s40.333 27 67 27c12.667 0 24.834 -2.33301 36.501 -7s21.834 -11.334 30.501 -20.001s15.5 -18.667 20.5 -30s7.5 -23.666 7.5 -36.999s-2.5 -25.833 -7.5 -37.5s-11.833 -21.834 -20.5 -30.501s-18.834 -15.5 -30.501 -20.5
s-23.834 -7.5 -36.501 -7.5c-26.667 0 -49 9.33301 -67 28s-27 41.334 -27 68.001zM286 203c0 30.667 0.333008 59.667 1 87s1.5 55.166 2.5 83.499s2.5 58.166 4.5 89.499s4 66 6 104h67c2 -38 4 -72.667 6 -104s3.5 -61.166 4.5 -89.499s1.83301 -56.166 2.5 -83.499
s1 -56.333 1 -87v-563h-95v563z" />
    <glyph glyph-name="cent" unicode="&#xa2;" 
d="M163 510c0 76.667 10.833 146.837 32.5 210.504s53.5 118.5 95.5 164.5s93.667 82.167 155 108.5s131 40.166 209 41.499l11 210c0.666992 8.66699 3.5 16.334 8.5 23.001s12.167 10 21.5 10h37l-12 -246c59.333 -5.33301 112 -17.833 158 -37.5s87 -45.167 123 -76.5
l-24 -34c-3.33301 -3.33301 -6.5 -6.33301 -9.5 -9s-7.5 -4 -13.5 -4s-14.667 4 -26 12s-26.333 17 -45 27s-41.667 19.5 -69 28.5s-60 15.167 -98 18.5l-44 -895c51.333 1.33301 94.333 7.83301 129 19.5s63.5 24.167 86.5 37.5s41.167 25.5 54.5 36.5
s23.666 16.5 30.999 16.5c5.33301 0 9.33301 -0.666992 12 -2s5.33398 -3.66602 8.00098 -6.99902l25 -32c-16 -20 -35.667 -38.333 -59 -55s-50 -31.334 -80 -44.001s-62.833 -22.834 -98.5 -30.501s-73.167 -12.167 -112.5 -13.5l-11 -215
c-0.666992 -8.66699 -3.5 -16.167 -8.5 -22.5s-12.167 -9.5 -21.5 -9.5h-37l12 248c-65.333 4 -125 18.667 -179 44s-100.5 60.166 -139.5 104.499s-69 97.666 -90 159.999s-31.5 133.166 -31.5 212.499zM259 510.003c0 -66.667 8 -126.498 24 -179.498
s39.167 -98.5 69.5 -136.5s66.833 -67.833 109.5 -89.5s90.667 -34.834 144 -39.501l45 893c-62.667 -2 -118.334 -13.667 -167.001 -35s-89.667 -51.333 -123 -90s-58.666 -85.334 -75.999 -140.001s-26 -115.667 -26 -183z" />
    <glyph glyph-name="sterling" unicode="&#xa3;" 
d="M69 647l0.000976562 33c0 10 3.16699 18.5 9.5 25.5s15.166 10.5 26.499 10.5h169v301c0 63.333 9 122.333 27 177s44.5 102 79.5 142s79 71.333 132 94s114.167 34 183.5 34c52 0 97.833 -6.33301 137.5 -19s74.334 -29.834 104.001 -51.501s55.167 -47.167 76.5 -76.5
s39.333 -60.333 54 -93l-39 -23c-6 -3.33301 -13.333 -5 -22 -5c-11.333 0 -21.666 5.66699 -30.999 17c-13.333 21.333 -27.833 42.166 -43.5 62.499s-34 38.333 -55 54s-46.167 28 -75.5 37s-64.666 13.5 -105.999 13.5c-53.333 0 -99.833 -8.83301 -139.5 -26.5
s-73.167 -42.334 -100.5 -74.001s-47.833 -69.834 -61.5 -114.501s-20.5 -94 -20.5 -148v-301h490v-40c0 -7.33301 -2.83301 -14 -8.5 -20s-12.834 -9 -21.501 -9h-460v-311c0 -60.667 -12.333 -111.667 -37 -153s-58.334 -76.666 -101.001 -105.999
c15.333 2.66699 30.166 4.66699 44.499 6s29.5 2 45.5 2h806v-41c0 -10 -4.16699 -19.833 -12.5 -29.5s-19.5 -14.5 -33.5 -14.5h-993v67c23.333 8.66699 46 19.834 68 33.501s41.5 30.334 58.5 50.001s30.333 42.834 40 69.501s14.5 57.667 14.5 93v334h-205z" />
    <glyph glyph-name="yen" unicode="&#xa5;" 
d="M87 1449h81.001c18 0 31.333 -8.66699 40 -26l354 -681l15 -38c4.66699 -12 8.66699 -23.667 12 -35c6 22.667 14.667 47 26 73l354 681c3.33301 7.33301 8.16602 13.5 14.499 18.5s14.5 7.5 24.5 7.5h82l-434 -818h356v-60h-375v-120h375v-60h-375v-391h-97v391h-375v60
h375v120h-375v60h354z" />
    <glyph glyph-name="section" unicode="&#xa7;" horiz-adv-x="1026" 
d="M142 731c0 52.667 15.668 99.998 47.001 141.998s82 75.667 152 101c-37.333 25.333 -67.833 54.833 -91.5 88.5s-35.5 75.834 -35.5 126.501c0 36.667 7.83301 71.5 23.5 104.5s38 62.333 67 88s64.333 46 106 61s88.5 22.5 140.5 22.5c62 0 117 -9 165 -27
s92.333 -45 133 -81l-22 -35c-4.66699 -8.66699 -12 -13 -22 -13c-7.33301 0 -17 4.16699 -29 12.5s-27.833 17.666 -47.5 27.999s-43.667 19.833 -72 28.5s-62.833 13 -103.5 13c-38 0 -72.667 -5.33301 -104 -16s-57.833 -25 -79.5 -43s-38.5 -39 -50.5 -63
s-18 -49.333 -18 -76c0 -31.333 8.5 -58.666 25.5 -81.999s39.5 -44.333 67.5 -63s59.833 -35.834 95.5 -51.501l109 -48c37 -16.333 73.333 -34 109 -53s67.5 -40.333 95.5 -64s50.5 -51.5 67.5 -83.5s25.5 -69 25.5 -111c0 -56.667 -14.333 -106 -43 -148
s-71 -75 -127 -99c36.667 -26 66.5 -55.667 89.5 -89s34.5 -73.666 34.5 -120.999c0 -44.667 -8 -86 -24 -124s-39.167 -71 -69.5 -99s-67.666 -50.167 -111.999 -66.5s-94.833 -24.5 -151.5 -24.5c-72 0 -134 11.333 -186 34s-98.333 52.667 -139 90l23 35
c3.33301 5.33301 7.16602 9.33301 11.499 12s10.166 4 17.499 4c8.66699 0 19.5 -5.5 32.5 -16.5s30.167 -22.833 51.5 -35.5s47.666 -24.334 78.999 -35.001s70.333 -16 117 -16c42 0 79.5 5.66699 112.5 17s60.667 27.333 83 48s39.333 44.834 51 72.501
s17.5 57.5 17.5 89.5c0 34.667 -8.83301 65 -26.5 91s-41.167 49 -70.5 69s-62.666 38.167 -99.999 54.5l-114 49.5c-38.667 16.667 -76.5 33.834 -113.5 51.501s-70.167 38.334 -99.5 62.001s-53 50.667 -71 81s-27 66.166 -27 107.499zM229.001 743.998
c0 -28 6.66895 -53 20.002 -75s31.5 -42 54.5 -60s49.5 -34.667 79.5 -50s61.333 -30.166 94 -44.499l100 -43.5c34 -14.667 66.333 -30.667 97 -48c48.667 22 83.5 49.333 104.5 82s31.5 69.667 31.5 111c0 30.667 -6.16699 58 -18.5 82s-28.833 45.5 -49.5 64.5
s-44.834 36 -72.501 51s-56.834 29.5 -87.501 43.5l-94 41c-32 13.333 -62.667 27.666 -92 42.999c-60.667 -26 -103.667 -55.167 -129 -87.5s-38 -68.833 -38 -109.5z" />
    <glyph glyph-name="dieresis" unicode="&#xa8;" horiz-adv-x="599" 
d="M40 1315c0 11.333 2.16699 22.165 6.5 32.498s10.5 19.333 18.5 27s16.833 13.834 26.5 18.501s20.167 7 31.5 7c10.667 0 21.334 -2.33301 32.001 -7s19.834 -10.834 27.501 -18.501s13.834 -16.667 18.501 -27s7 -21.166 7 -32.499c0 -10.667 -2.33301 -21 -7 -31
s-10.834 -18.833 -18.501 -26.5s-16.834 -13.667 -27.501 -18s-21.334 -6.5 -32.001 -6.5s-21 2.16699 -31 6.5s-19 10.333 -27 18s-14.167 16.334 -18.5 26.001s-6.5 20.167 -6.5 31.5zM390 1315c0 11.333 2.16699 22.165 6.5 32.498s10.5 19.333 18.5 27
s17 13.834 27 18.501s20.667 7 32 7c10.667 0 21.334 -2.33301 32.001 -7s19.834 -10.834 27.501 -18.501s13.834 -16.667 18.501 -27s7 -21.166 7 -32.499c0 -10.667 -2.33301 -21 -7 -31s-10.834 -18.833 -18.501 -26.5s-16.834 -13.667 -27.501 -18
s-21.334 -6.5 -32.001 -6.5c-11.333 0 -22 2.16699 -32 6.5s-19 10.333 -27 18s-14.167 16.334 -18.5 26.001s-6.5 20.167 -6.5 31.5z" />
    <glyph glyph-name="copyright" unicode="&#xa9;" horiz-adv-x="1651" 
d="M87 725c0 67.333 8.83301 132.666 26.5 195.999s42.5 122.333 74.5 177s70.5 104.5 115.5 149.5s94.833 83.5 149.5 115.5s113.334 56.833 176.001 74.5s128 26.5 196 26.5s133.5 -8.83301 196.5 -26.5s122 -42.5 177 -74.5s105 -70.5 150 -115.5
s83.333 -94.833 115 -149.5s56.5 -113.667 74.5 -177s27 -128.666 27 -195.999c0 -68 -9 -133.5 -27 -196.5s-42.833 -121.833 -74.5 -176.5s-70 -104.5 -115 -149.5s-95 -83.5 -150 -115.5s-113.833 -56.833 -176.5 -74.5s-128.334 -26.5 -197.001 -26.5
c-67.333 0 -132.5 8.83301 -195.5 26.5s-121.833 42.5 -176.5 74.5s-104.5 70.5 -149.5 115.5s-83.5 94.833 -115.5 149.5s-56.833 113.5 -74.5 176.5s-26.5 128.5 -26.5 196.5zM147 725c0 -94.667 17.6689 -183.5 53.002 -266.5s83.666 -155.5 144.999 -217.5
s133.166 -110.667 215.499 -146s170.5 -53 264.5 -53s182.5 17.667 265.5 53s155.333 84 217 146s110.167 134.5 145.5 217.5s53 171.833 53 266.5s-17.667 183.5 -53 266.5s-83.833 155.667 -145.5 218s-133.834 111.333 -216.501 147s-171.334 53.5 -266.001 53.5
c-94 0 -182.167 -17.833 -264.5 -53.5s-154.166 -84.667 -215.499 -147s-109.666 -135 -144.999 -218s-53 -171.833 -53 -266.5zM387.002 726c0 68 11.498 130.332 34.498 186.999s55 105.334 96 146.001s89.833 72.334 146.5 95.001s118.667 34 186 34
c35.333 0 67.833 -2.66699 97.5 -8s57.167 -12.833 82.5 -22.5s49 -21.5 71 -35.5s43.333 -30.333 64 -49l-24 -34c-4.66699 -7.33301 -11.667 -11 -21 -11c-6.66699 0 -15.667 4.5 -27 13.5s-26.833 18.667 -46.5 29s-45 20 -76 29s-69.833 13.5 -116.5 13.5
c-56.667 0 -108.167 -9 -154.5 -27s-86.166 -43.833 -119.499 -77.5s-59 -74.334 -77 -122.001s-27 -101.167 -27 -160.5c0 -61.333 9 -116 27 -164s43.167 -88.5 75.5 -121.5s70.5 -58.167 114.5 -75.5s92.333 -26 145 -26c58 0 108 7 150 21s81.333 35.333 118 64
c8 6.66699 15.667 10 23 10c3.33301 0 6.5 -0.666992 9.5 -2s5.16699 -2.66602 6.5 -3.99902l32 -32c-40 -40 -87.5 -72 -142.5 -96s-121.833 -36 -200.5 -36c-65.333 0 -125.666 11.167 -180.999 33.5s-102.5 53.666 -141.5 93.999s-69.5 88.833 -91.5 145.5
s-33 119.667 -33 189z" />
    <glyph glyph-name="ordfeminine" unicode="&#xaa;" horiz-adv-x="687" 
d="M109 1005c0 24.667 7.16699 47.9961 21.5 69.9961s37.333 41.333 69 58s72.667 30.334 123 41.001s111.5 16.667 183.5 18v52c0 52 -11.667 91.5 -35 118.5s-60 40.5 -110 40.5c-29.333 0 -54 -3.83301 -74 -11.5s-36.833 -15.667 -50.5 -24s-25.167 -16.333 -34.5 -24
s-17.666 -11.5 -24.999 -11.5c-10 0 -17.333 4.66699 -22 14l-13 23c32.667 32.667 67.167 56.667 103.5 72s77.5 23 123.5 23c68.667 0 120.834 -19.833 156.501 -59.5s53.5 -93.167 53.5 -160.5v-385h-33c-7.33301 0 -12.833 1.33301 -16.5 4s-7.16699 8 -10.5 16l-10 69
c-17.333 -16 -34.333 -30 -51 -42s-34 -22.167 -52 -30.5s-37.5 -14.666 -58.5 -18.999s-43.5 -6.5 -67.5 -6.5c-22.667 0 -44.334 3 -65.001 9s-38.834 15.333 -54.501 28s-28.167 28.834 -37.5 48.501s-14 42.834 -14 69.501zM179 1009
c0 -18.667 3.33203 -34.667 9.99902 -48s15.5 -24.333 26.5 -33s23.667 -14.834 38 -18.501s29.5 -5.5 45.5 -5.5c22.667 0 43.5 2.5 62.5 7.5s36.833 11.667 53.5 20s32.334 18.333 47.001 30s29.334 24.167 44.001 37.5v142
c-114.667 -3.33301 -197.834 -16.666 -249.501 -39.999s-77.5 -54 -77.5 -92z" />
    <glyph glyph-name="guillemotleft" unicode="&#xab;" horiz-adv-x="894" 
d="M159 525l-0.00195312 13.999l247 387l30 -16c10.667 -6.66699 16.334 -15 17.001 -25c0 -8 -2.66699 -16 -8 -24l-187 -300c-8.66699 -13.333 -16 -23.333 -22 -30c6.66699 -5.33301 14 -14.666 22 -27.999l187 -301c4.66699 -7.33301 7.33398 -15.333 8.00098 -24
c0 -10 -5.66699 -18.333 -17 -25l-30 -16zM419.998 524.999l-0.000976562 13.999l247 387l30 -16c10.667 -6.66699 16.334 -15 17.001 -25c0 -8 -2.33301 -16 -7 -24l-188 -300c-8.66699 -13.333 -16 -23.333 -22 -30c6.66699 -5.33301 14 -14.666 22 -27.999l188 -301
c4.66699 -7.33301 7 -15.333 7 -24c0 -10 -5.66699 -18.333 -17 -25l-30 -16z" />
    <glyph glyph-name="logicalnot" unicode="&#xac;" 
d="M168 649v75h849v-377h-84v302h-765z" />
    <glyph glyph-name="uni00AD" unicode="&#xad;" horiz-adv-x="680" 
d="M102 566v83h477v-83h-477z" />
    <glyph glyph-name="registered" unicode="&#xae;" horiz-adv-x="1651" 
d="M87 725c0 67.333 8.83301 132.666 26.5 195.999s42.5 122.333 74.5 177s70.5 104.5 115.5 149.5s94.833 83.5 149.5 115.5s113.334 56.833 176.001 74.5s128 26.5 196 26.5s133.5 -8.83301 196.5 -26.5s122 -42.5 177 -74.5s105 -70.5 150 -115.5
s83.333 -94.833 115 -149.5s56.5 -113.667 74.5 -177s27 -128.666 27 -195.999c0 -68 -9 -133.5 -27 -196.5s-42.833 -121.833 -74.5 -176.5s-70 -104.5 -115 -149.5s-95 -83.5 -150 -115.5s-113.833 -56.833 -176.5 -74.5s-128.334 -26.5 -197.001 -26.5
c-67.333 0 -132.5 8.83301 -195.5 26.5s-121.833 42.5 -176.5 74.5s-104.5 70.5 -149.5 115.5s-83.5 94.833 -115.5 149.5s-56.833 113.5 -74.5 176.5s-26.5 128.5 -26.5 196.5zM147 725c0 -94.667 17.6689 -183.5 53.002 -266.5s83.666 -155.5 144.999 -217.5
s133.166 -110.667 215.499 -146s170.5 -53 264.5 -53s182.5 17.667 265.5 53s155.333 84 217 146s110.167 134.5 145.5 217.5s53 171.833 53 266.5s-17.667 183.5 -53 266.5s-83.833 155.667 -145.5 218s-133.834 111.333 -216.501 147s-171.334 53.5 -266.001 53.5
c-94 0 -182.167 -17.833 -264.5 -53.5s-154.166 -84.667 -215.499 -147s-109.666 -135 -144.999 -218s-53 -171.833 -53 -266.5zM552.002 272v907h253c104.667 0 183.667 -19.667 237 -59s80 -99.333 80 -180c0 -68 -22 -123.833 -66 -167.5s-106 -71.167 -186 -82.5
c8 -4.66699 15.333 -10.167 22 -16.5s13 -14.5 19 -24.5l292 -377h-82c-6.66699 0 -12.5 1.16699 -17.5 3.5s-9.5 6.83301 -13.5 13.5l-277 359c-5.33301 7.33301 -12.333 13.333 -21 18s-22 7 -40 7h-113v-401h-87zM639.002 738l152.001 -0.000976562
c82.667 0 144.167 16.667 184.5 50s60.5 81 60.5 143c0 62.667 -18.333 108.334 -55 137.001s-95.334 43 -176.001 43h-166v-373z" />
    <glyph glyph-name="macron" unicode="&#xaf;" horiz-adv-x="599" 
d="M20 1282v67h559v-67h-559z" />
    <glyph glyph-name="degree" unicode="&#xb0;" horiz-adv-x="804" 
d="M93 1161c0 42 7.99707 81.667 23.9971 119s37.833 69.833 65.5 97.5s60.334 49.334 98.001 65.001s77.834 23.5 120.501 23.5c43.333 0 83.833 -7.83301 121.5 -23.5s70.334 -37.334 98.001 -65.001s49.5 -60 65.5 -97s24 -76.833 24 -119.5c0 -42 -8 -81.5 -24 -118.5
s-37.833 -69.333 -65.5 -97s-60.334 -49.5 -98.001 -65.5s-78.167 -24 -121.5 -24s-83.666 8 -120.999 24s-69.833 37.833 -97.5 65.5s-49.5 60 -65.5 97s-24 76.5 -24 118.5zM165.997 1161c0 -32.667 6.16797 -63.334 18.501 -92.001s29 -53.5 50 -74.5
s45.833 -37.667 74.5 -50s59.334 -18.5 92.001 -18.5s63.5 6.16699 92.5 18.5s53.833 29 74.5 50s37.167 45.833 49.5 74.5s18.5 59.334 18.5 92.001s-6.16699 63.334 -18.5 92.001s-28.833 53.834 -49.5 75.501s-45.334 38.667 -74.001 51s-59.667 18.5 -93 18.5
c-32.667 0 -63.334 -6.16699 -92.001 -18.5s-53.5 -29.333 -74.5 -51s-37.667 -46.834 -50 -75.501s-18.5 -59.334 -18.5 -92.001z" />
    <glyph glyph-name="plusminus" unicode="&#xb1;" 
d="M112 82v75h961v-75h-961zM112 690v75h440v416h80v-416h441v-75h-441v-411h-80v411h-440z" />
    <glyph glyph-name="acute" unicode="&#xb4;" horiz-adv-x="599" 
d="M212 1189l161.002 244c7.33301 12 15.166 20.333 23.499 25s20.5 7 36.5 7h96l-221 -259c-5.33301 -6.66699 -10.833 -11.167 -16.5 -13.5s-12.834 -3.5 -21.501 -3.5h-58z" />
    <glyph glyph-name="uni00B5" unicode="&#xb5;" horiz-adv-x="1107" 
d="M140 -317l-0.000976562 1336h99v-651c0 -95.333 21.833 -170.333 65.5 -225s110.167 -82 199.5 -82c66 0 127.667 17 185 51s109 81 155 141v766h98v-1019h-54c-19.333 0 -29.333 9 -30 27l-9 151c-48 -60 -101 -105.667 -159 -137s-121.667 -47 -191 -47
c-66.667 0 -122.667 13.167 -168 39.5s-80.666 63.833 -105.999 112.5c3.33301 -29.333 5.5 -59 6.5 -89s1.5 -57.333 1.5 -82v-335h-49c-13.333 0 -24 3.66699 -32 11s-12 18 -12 32z" />
    <glyph glyph-name="paragraph" unicode="&#xb6;" horiz-adv-x="1294" 
d="M55 1089c0 54.667 10.5 104.167 31.5 148.5s50.833 82.166 89.5 113.499s86 55.5 142 72.5s119.333 25.5 190 25.5h741v-84h-230v-1560h-87v1560h-336v-1560h-88v911c-70 0 -133.167 9.5 -189.5 28.5s-103.833 45.167 -142.5 78.5s-68.5 72.833 -89.5 118.5
s-31.5 94.834 -31.5 147.501z" />
    <glyph glyph-name="periodcentered" unicode="&#xb7;" horiz-adv-x="544" 
d="M169 606c0 14.667 2.66699 28.5 8 41.5s12.666 24.167 21.999 33.5s20.166 16.833 32.499 22.5s25.166 8.5 38.499 8.5c14.667 0 28.5 -2.83301 41.5 -8.5s24.167 -13.167 33.5 -22.5s16.833 -20.5 22.5 -33.5s8.5 -26.833 8.5 -41.5
c0 -13.333 -2.83301 -26.333 -8.5 -39s-13.167 -23.667 -22.5 -33s-20.5 -16.666 -33.5 -21.999s-26.833 -8 -41.5 -8c-13.333 0 -26.166 2.66699 -38.499 8s-23.166 12.666 -32.499 21.999s-16.666 20.333 -21.999 33s-8 25.667 -8 39z" />
    <glyph glyph-name="cedilla" unicode="&#xb8;" horiz-adv-x="599" 
d="M135 -321l9.99902 29.001c4.66699 8 10.334 12 17.001 12c3.33301 0 7.83301 -1.83301 13.5 -5.5s13.167 -7.66699 22.5 -12s20.833 -8.33301 34.5 -12s30.5 -5.5 50.5 -5.5c34.667 0 61.667 7.5 81 22.5s29 35.5 29 61.5c0 17.333 -4.33301 31.5 -13 42.5
s-21.334 20.167 -38.001 27.5s-36 13.166 -58 17.499s-46.333 8.16602 -73 11.499l43 137h62l-30 -98c60.667 -10.667 106.834 -26.334 138.501 -47.001s47.5 -51 47.5 -91c0 -20.667 -4.66699 -39.167 -14 -55.5s-22.333 -30.166 -39 -41.499s-36.5 -20.166 -59.5 -26.499
s-48.167 -9.5 -75.5 -9.5c-28 0 -55.333 4 -82 12s-49 18.333 -67 31z" />
    <glyph glyph-name="ordmasculine" unicode="&#xba;" horiz-adv-x="764" 
d="M89 1155c0 47.333 6.66699 89.833 20 127.5s32.833 70 58.5 97s56.5 47.667 92.5 62s77.333 21.5 124 21.5c45.333 0 86 -7.16699 122 -21.5s66.667 -35 92 -62s44.666 -59.333 57.999 -97s20 -80.167 20 -127.5s-6.66699 -89.833 -20 -127.5s-32.666 -70 -57.999 -97
s-56 -47.667 -92 -62s-76.667 -21.5 -122 -21.5c-46.667 0 -88 7.16699 -124 21.5s-66.833 35 -92.5 62s-45.167 59.333 -58.5 97s-20 80.167 -20 127.5zM167 1155c0 -78 17.833 -139 53.5 -183s90.167 -66 163.5 -66c70.667 0 124 22 160 66s54 105 54 183
c0 77.333 -18 138.166 -54 182.499s-89.333 66.5 -160 66.5c-73.333 0 -127.833 -22.167 -163.5 -66.5s-53.5 -105.166 -53.5 -182.499z" />
    <glyph glyph-name="guillemotright" unicode="&#xbb;" horiz-adv-x="894" 
d="M180 179c0 7.33301 2.33301 15.001 7 23.001l188 301c4 7.33301 7.83301 13.166 11.5 17.499s7.16699 7.83301 10.5 10.5c-3.33301 3.33301 -6.83301 7.33301 -10.5 12s-7.5 10.667 -11.5 18l-188 300c-4.66699 7.33301 -7 15.333 -7 24c0 10.667 6 19 18 25l30 16
l247 -387v-14l-247 -388l-30 16c-11.333 6 -17.333 14.667 -18 26zM441 179.001c0 7.33301 2.66797 15.001 8.00098 23.001l187 301c4 7.33301 7.83301 13.166 11.5 17.499s7.16699 7.83301 10.5 10.5c-3.33301 3.33301 -6.83301 7.33301 -10.5 12s-7.5 10.667 -11.5 18
l-187 300c-4.66699 7.33301 -7.33398 15.333 -8.00098 24c0 10.667 6 19 18 25l30 16l247 -387v-14l-247 -388l-30 16c-11.333 6 -17.333 14.667 -18 26z" />
    <glyph glyph-name="questiondown" unicode="&#xbf;" horiz-adv-x="758" 
d="M43 -65c0 52 8.16992 96.3359 24.5029 133.003s36.666 68.167 60.999 94.5s50.833 49.166 79.5 68.499l81 54.5c25.333 17 46.666 34.5 63.999 52.5s26.666 38.667 27.999 62l11 167h67l6 -174v-5c0 -28.667 -8.16699 -53.167 -24.5 -73.5s-36.666 -39.5 -60.999 -57.5
s-50.833 -36 -79.5 -54s-55.167 -38.833 -79.5 -62.5s-44.666 -51.334 -60.999 -83.001s-24.5 -69.834 -24.5 -114.501c0 -36.667 7.16699 -69.667 21.5 -99s33.833 -54 58.5 -74s53 -35.333 85 -46s65.333 -16 100 -16c47.333 0 87.166 6 119.499 18s59.5 25.333 81.5 40
s39.167 28 51.5 40s21.833 18 28.5 18c6 0 10.5 -1.16699 13.5 -3.5s5.83301 -5.5 8.5 -9.5l26 -40c-18.667 -18.667 -39.5 -36.5 -62.5 -53.5s-48.333 -32.167 -76 -45.5s-57.834 -24 -90.501 -32s-68.334 -12 -107.001 -12c-47.333 0 -92.166 7 -134.499 21
s-79.5 34.167 -111.5 60.5s-57.333 58.5 -76 96.5s-28 81 -28 129zM333.003 940.003c0 12.667 2.33301 24.834 7 36.501s11.334 21.834 20.001 30.501s18.667 15.5 30 20.5s23.666 7.5 36.999 7.5c12.667 0 24.834 -2.5 36.501 -7.5s21.834 -11.833 30.501 -20.5
s15.5 -18.834 20.5 -30.501s7.5 -23.834 7.5 -36.501c0 -13.333 -2.5 -25.666 -7.5 -36.999s-11.833 -21.333 -20.5 -30s-18.834 -15.334 -30.501 -20.001s-23.834 -7 -36.501 -7c-26.667 0 -49 9 -67 27s-27 40.333 -27 67z" />
    <glyph glyph-name="Agrave" unicode="&#xc0;" horiz-adv-x="1319" 
d="M15 0l592.999 1449h105l593 -1449h-81c-9.33301 0 -17.166 2.5 -23.499 7.5s-11.166 11.833 -14.499 20.5l-171 421h-712l-170 -421c-2.66699 -7.33301 -7.33398 -13.833 -14.001 -19.5s-15 -8.5 -25 -8.5h-80zM335.999 526l649.003 0.00195312l-296 732
c-4.66699 11.333 -9.33398 24.5 -14.001 39.5l-15 47.5c-4.66699 -16.667 -9.33398 -32.334 -14.001 -47.001s-9.33398 -28.334 -14.001 -41.001zM358.002 1812l116 0.000976562c16.667 0 28.834 -1.5 36.501 -4.5s16.167 -8.83301 25.5 -17.5l234 -211h-73
c-8 0 -14.833 0.666992 -20.5 2s-11.834 4.66602 -18.501 9.99902z" />
    <glyph glyph-name="Aacute" unicode="&#xc1;" horiz-adv-x="1319" 
d="M15 0l592.999 1449h105l593 -1449h-81c-9.33301 0 -17.166 2.5 -23.499 7.5s-11.166 11.833 -14.499 20.5l-171 421h-712l-170 -421c-2.66699 -7.33301 -7.33398 -13.833 -14.001 -19.5s-15 -8.5 -25 -8.5h-80zM335.999 526l649.003 0.00195312l-296 732
c-4.66699 11.333 -9.33398 24.5 -14.001 39.5l-15 47.5c-4.66699 -16.667 -9.33398 -32.334 -14.001 -47.001s-9.33398 -28.334 -14.001 -41.001zM544.002 1579l233.001 211.001c9.33301 8.66699 18.166 14.5 26.499 17.5s20.5 4.5 36.5 4.5h115l-299 -221
c-6.66699 -4.66699 -13 -7.83398 -19 -9.50098s-13 -2.5 -21 -2.5h-72z" />
    <glyph glyph-name="Acircumflex" unicode="&#xc2;" horiz-adv-x="1319" 
d="M15 0l592.999 1449h105l593 -1449h-81c-9.33301 0 -17.166 2.5 -23.499 7.5s-11.166 11.833 -14.499 20.5l-171 421h-712l-170 -421c-2.66699 -7.33301 -7.33398 -13.833 -14.001 -19.5s-15 -8.5 -25 -8.5h-80zM335.999 526l649.003 0.00195312l-296 732
c-4.66699 11.333 -9.33398 24.5 -14.001 39.5l-15 47.5c-4.66699 -16.667 -9.33398 -32.334 -14.001 -47.001s-9.33398 -28.334 -14.001 -41.001zM372.002 1579l240.999 204h92l241 -204h-75c-5.33301 0 -11.333 0.833008 -18 2.5s-12.334 4.16699 -17.001 7.5l-160 126
c-5.33301 4 -9 7 -11 9s-3.66699 4 -5 6l-5.5 -5.5c-2.33301 -2.33301 -6.16602 -5.5 -11.499 -9.5l-161 -126c-4.66699 -3.33301 -10.167 -5.83301 -16.5 -7.5s-12.166 -2.5 -17.499 -2.5h-76z" />
    <glyph glyph-name="Atilde" unicode="&#xc3;" horiz-adv-x="1319" 
d="M15 0l592.999 1449h105l593 -1449h-81c-9.33301 0 -17.166 2.5 -23.499 7.5s-11.166 11.833 -14.499 20.5l-171 421h-712l-170 -421c-2.66699 -7.33301 -7.33398 -13.833 -14.001 -19.5s-15 -8.5 -25 -8.5h-80zM335.999 526l649.003 0.00195312l-296 732
c-4.66699 11.333 -9.33398 24.5 -14.001 39.5l-15 47.5c-4.66699 -16.667 -9.33398 -32.334 -14.001 -47.001s-9.33398 -28.334 -14.001 -41.001zM403.002 1590c0 23.333 3.16699 45.334 9.5 66.001s15.666 38.667 27.999 54s27.5 27.166 45.5 35.499s38.333 12.5 61 12.5
c23.333 0 45.333 -5.5 66 -16.5s40.5 -22.667 59.5 -35l55 -35c17.667 -11 35.834 -16.5 54.501 -16.5c28.667 0 50.5 9.33301 65.5 28s22.833 42.667 23.5 72h55c0 -24 -3 -46 -9 -66s-14.833 -37.667 -26.5 -53s-26.5 -27.333 -44.5 -36s-38.667 -13 -62 -13
c-22.667 0 -44.167 5.5 -64.5 16.5s-40.166 22.833 -59.499 35.5l-56 35.5c-18 11 -36.333 16.5 -55 16.5c-28.667 0 -50.334 -9.66699 -65.001 -29s-22.667 -43.333 -24 -72h-57z" />
    <glyph glyph-name="Adieresis" unicode="&#xc4;" horiz-adv-x="1319" 
d="M15 0l592.999 1449h105l593 -1449h-81c-9.33301 0 -17.166 2.5 -23.499 7.5s-11.166 11.833 -14.499 20.5l-171 421h-712l-170 -421c-2.66699 -7.33301 -7.33398 -13.833 -14.001 -19.5s-15 -8.5 -25 -8.5h-80zM335.999 526l649.003 0.00195312l-296 732
c-4.66699 11.333 -9.33398 24.5 -14.001 39.5l-15 47.5c-4.66699 -16.667 -9.33398 -32.334 -14.001 -47.001s-9.33398 -28.334 -14.001 -41.001zM363.002 1705c0 10.667 2.16699 21.167 6.5 31.5s10.333 19.5 18 27.5s16.5 14.167 26.5 18.5s20.333 6.5 31 6.5
s21.167 -2.16699 31.5 -6.5s19.333 -10.5 27 -18.5s13.834 -17.167 18.501 -27.5s7 -20.833 7 -31.5s-2.33301 -21 -7 -31s-10.834 -18.667 -18.501 -26s-16.667 -13.166 -27 -17.499s-20.833 -6.5 -31.5 -6.5s-21 2.16699 -31 6.5s-18.833 10.166 -26.5 17.499
s-13.667 16 -18 26s-6.5 20.333 -6.5 31zM789.002 1705c0 22.667 8.16699 42.333 24.5 59s35.833 25 58.5 25c10.667 0 21 -2.16699 31 -6.5s19 -10.5 27 -18.5s14.167 -17.167 18.5 -27.5s6.5 -20.833 6.5 -31.5s-2.16699 -21 -6.5 -31s-10.5 -18.667 -18.5 -26
s-17 -13.166 -27 -17.499s-20.333 -6.5 -31 -6.5c-11.333 0 -22 2.16699 -32 6.5s-18.833 10.166 -26.5 17.499s-13.667 16 -18 26s-6.5 20.333 -6.5 31z" />
    <glyph glyph-name="Aring" unicode="&#xc5;" horiz-adv-x="1319" 
d="M15 0l592.999 1449h105l593 -1449h-81c-9.33301 0 -17.166 2.5 -23.499 7.5s-11.166 11.833 -14.499 20.5l-171 421h-712l-170 -421c-2.66699 -7.33301 -7.33398 -13.833 -14.001 -19.5s-15 -8.5 -25 -8.5h-80zM335.999 526l649.003 0.00195312l-296 732
c-4.66699 11.333 -9.33398 24.5 -14.001 39.5l-15 47.5c-4.66699 -16.667 -9.33398 -32.334 -14.001 -47.001s-9.33398 -28.334 -14.001 -41.001zM488.002 1669c0 23.333 4.66699 45 14 65s21.666 37.167 36.999 51.5s33.333 25.666 54 33.999s42.667 12.5 66 12.5
s45.5 -4.16699 66.5 -12.5s39.167 -19.666 54.5 -33.999s27.666 -31.5 36.999 -51.5s14 -41.667 14 -65c0 -24 -4.66699 -45.833 -14 -65.5s-21.666 -36.667 -36.999 -51s-33.5 -25.5 -54.5 -33.5s-43.167 -12 -66.5 -12s-45.333 4 -66 12s-38.667 19.167 -54 33.5
s-27.666 31.333 -36.999 51s-14 41.5 -14 65.5zM542.002 1669c0 -34 11 -62 33 -84s50.333 -33 85 -33c34 0 62 11 84 33s33 50 33 84s-11 62 -33 84s-50 33 -84 33c-34.667 0 -63 -11 -85 -33s-33 -50 -33 -84z" />
    <glyph glyph-name="AE" unicode="&#xc6;" horiz-adv-x="1891" 
d="M-19 0l800 1449h983v-87h-834l74 -586h632v-85h-621l77 -604h672v-87h-759l-58 449h-610l-233 -423c-8.66699 -17.333 -23 -26 -43 -26h-80zM380 526h557l-108 843c-5.33301 -18 -11.333 -34.833 -18 -50.5s-13.667 -31.167 -21 -46.5z" />
    <glyph glyph-name="Ccedilla" unicode="&#xc7;" horiz-adv-x="1440" 
d="M127 725c0 110 17.1611 210.33 51.4941 300.997s82.833 168.667 145.5 234s137.5 115.833 224.5 151.5s183.167 53.5 288.5 53.5c52.667 0 100.834 -3.83301 144.501 -11.5s84.334 -18.834 122.001 -33.501s73.334 -33 107.001 -55s66.5 -47.333 98.5 -76l-32 -46
c-5.33301 -8 -14 -12 -26 -12c-6 0 -13.833 3.5 -23.5 10.5l-36.5 26.5c-14.667 10.667 -32.334 22.334 -53.001 35.001s-45.334 24.334 -74.001 35.001s-61.834 19.5 -99.501 26.5s-80.167 10.5 -127.5 10.5c-88 0 -169 -15.167 -243 -45.5s-137.5 -73.666 -190.5 -129.999
s-94.5 -124.666 -124.5 -204.999s-45 -170.166 -45 -269.499c0 -102.667 14.833 -194.167 44.5 -274.5s70.334 -148.333 122.001 -204s112.834 -98.334 183.501 -128.001s147.334 -44.5 230.001 -44.5c52 0 98.333 3.33301 139 10s78 16.834 112 30.501s65.667 30.5 95 50.5
s58.333 43 87 69c3.33301 2.66699 6.66602 5 9.99902 7s7 3 11 3c6.66699 0 12.334 -2.33301 17.001 -7l41 -44c-30 -31.333 -62.167 -59.666 -96.5 -84.999s-72.166 -47.166 -113.499 -65.499s-86.666 -32.5 -135.999 -42.5s-103 -15.333 -161 -16l-23 -77
c60.667 -10.667 106.834 -26.334 138.501 -47.001s47.5 -51 47.5 -91c0 -20.667 -4.66699 -39.167 -14 -55.5s-22.333 -30.166 -39 -41.499s-36.5 -20.166 -59.5 -26.499s-48.167 -9.5 -75.5 -9.5c-28 0 -55.333 4 -82 12s-49 18.333 -67 31l10 29
c4.66699 8 10.334 12 17.001 12c3.33301 0 7.83301 -1.83301 13.5 -5.5s13.167 -7.66699 22.5 -12s20.833 -8.33301 34.5 -12s30.5 -5.5 50.5 -5.5c34.667 0 61.667 7.5 81 22.5s29 35.5 29 61.5c0 17.333 -4.33301 31.5 -13 42.5s-21.334 20.167 -38.001 27.5
s-36 13.166 -58 17.499s-46.333 8.16602 -73 11.499l37 118c-93.333 5.33301 -178.833 26.666 -256.5 63.999s-144.167 88.166 -199.5 152.499s-98.333 140.5 -129 228.5s-46 186 -46 294z" />
    <glyph glyph-name="Egrave" unicode="&#xc8;" horiz-adv-x="1210" 
d="M215 0v1449h868v-87h-762v-586h634v-85h-634v-604h762v-87h-868zM357 1812l116 0.000976562c16.667 0 28.834 -1.5 36.501 -4.5s16.167 -8.83301 25.5 -17.5l234 -211h-73c-8 0 -14.833 0.666992 -20.5 2s-11.834 4.66602 -18.501 9.99902z" />
    <glyph glyph-name="Eacute" unicode="&#xc9;" horiz-adv-x="1210" 
d="M215 0v1449h868v-87h-762v-586h634v-85h-634v-604h762v-87h-868zM543 1579l233.001 211.001c9.33301 8.66699 18.166 14.5 26.499 17.5s20.5 4.5 36.5 4.5h115l-299 -221c-6.66699 -4.66699 -13 -7.83398 -19 -9.50098s-13 -2.5 -21 -2.5h-72z" />
    <glyph glyph-name="Ecircumflex" unicode="&#xca;" horiz-adv-x="1210" 
d="M215 0v1449h868v-87h-762v-586h634v-85h-634v-604h762v-87h-868zM371 1579l240.999 204h92l241 -204h-75c-5.33301 0 -11.333 0.833008 -18 2.5s-12.334 4.16699 -17.001 7.5l-160 126c-5.33301 4 -9 7 -11 9s-3.66699 4 -5 6l-5.5 -5.5
c-2.33301 -2.33301 -6.16602 -5.5 -11.499 -9.5l-161 -126c-4.66699 -3.33301 -10.167 -5.83301 -16.5 -7.5s-12.166 -2.5 -17.499 -2.5h-76z" />
    <glyph glyph-name="Edieresis" unicode="&#xcb;" horiz-adv-x="1210" 
d="M215 0v1449h868v-87h-762v-586h634v-85h-634v-604h762v-87h-868zM362 1705c0 10.667 2.16699 21.167 6.5 31.5s10.333 19.5 18 27.5s16.5 14.167 26.5 18.5s20.333 6.5 31 6.5s21.167 -2.16699 31.5 -6.5s19.333 -10.5 27 -18.5s13.834 -17.167 18.501 -27.5
s7 -20.833 7 -31.5s-2.33301 -21 -7 -31s-10.834 -18.667 -18.501 -26s-16.667 -13.166 -27 -17.499s-20.833 -6.5 -31.5 -6.5s-21 2.16699 -31 6.5s-18.833 10.166 -26.5 17.499s-13.667 16 -18 26s-6.5 20.333 -6.5 31zM788 1705c0 22.667 8.16699 42.333 24.5 59
s35.833 25 58.5 25c10.667 0 21 -2.16699 31 -6.5s19 -10.5 27 -18.5s14.167 -17.167 18.5 -27.5s6.5 -20.833 6.5 -31.5s-2.16699 -21 -6.5 -31s-10.5 -18.667 -18.5 -26s-17 -13.166 -27 -17.499s-20.333 -6.5 -31 -6.5c-11.333 0 -22 2.16699 -32 6.5
s-18.833 10.166 -26.5 17.499s-13.667 16 -18 26s-6.5 20.333 -6.5 31z" />
    <glyph glyph-name="Igrave" unicode="&#xcc;" horiz-adv-x="612" 
d="M7 1812l116 0.000976562c16.667 0 28.834 -1.5 36.501 -4.5s16.167 -8.83301 25.5 -17.5l234 -211h-73c-8 0 -14.833 0.666992 -20.5 2s-11.834 4.66602 -18.501 9.99902zM253 0.000976562v1449h105v-1449h-105z" />
    <glyph glyph-name="Iacute" unicode="&#xcd;" horiz-adv-x="612" 
d="M193 1579l233.001 211.001c9.33301 8.66699 18.166 14.5 26.499 17.5s20.5 4.5 36.5 4.5h115l-299 -221c-6.66699 -4.66699 -13 -7.83398 -19 -9.50098s-13 -2.5 -21 -2.5h-72zM253.001 0.000976562v1449h105v-1449h-105z" />
    <glyph glyph-name="Icircumflex" unicode="&#xce;" horiz-adv-x="612" 
d="M21 1579l240.999 204h92l241 -204h-75c-5.33301 0 -11.333 0.833008 -18 2.5s-12.334 4.16699 -17.001 7.5l-160 126c-5.33301 4 -9 7 -11 9s-3.66699 4 -5 6l-5.5 -5.5c-2.33301 -2.33301 -6.16602 -5.5 -11.499 -9.5l-161 -126
c-4.66699 -3.33301 -10.167 -5.83301 -16.5 -7.5s-12.166 -2.5 -17.499 -2.5h-76zM252.999 0v1449h105v-1449h-105z" />
    <glyph glyph-name="Idieresis" unicode="&#xcf;" horiz-adv-x="612" 
d="M12 1705c0 10.667 2.16699 21.167 6.5 31.5s10.333 19.5 18 27.5s16.5 14.167 26.5 18.5s20.333 6.5 31 6.5s21.167 -2.16699 31.5 -6.5s19.333 -10.5 27 -18.5s13.834 -17.167 18.501 -27.5s7 -20.833 7 -31.5s-2.33301 -21 -7 -31s-10.834 -18.667 -18.501 -26
s-16.667 -13.166 -27 -17.499s-20.833 -6.5 -31.5 -6.5s-21 2.16699 -31 6.5s-18.833 10.166 -26.5 17.499s-13.667 16 -18 26s-6.5 20.333 -6.5 31zM253 0v1449h105v-1449h-105zM438 1705c0 22.667 8.16699 42.333 24.5 59s35.833 25 58.5 25c10.667 0 21 -2.16699 31 -6.5
s19 -10.5 27 -18.5s14.167 -17.167 18.5 -27.5s6.5 -20.833 6.5 -31.5s-2.16699 -21 -6.5 -31s-10.5 -18.667 -18.5 -26s-17 -13.166 -27 -17.499s-20.333 -6.5 -31 -6.5c-11.333 0 -22 2.16699 -32 6.5s-18.833 10.166 -26.5 17.499s-13.667 16 -18 26s-6.5 20.333 -6.5 31
z" />
    <glyph glyph-name="Eth" unicode="&#xd0;" horiz-adv-x="1612" 
d="M50 701l0.00195312 65.999h221v682h529c103.333 0 197.166 -16.667 281.499 -50s157 -81.5 218 -144.5s108.167 -139.167 141.5 -228.5s50 -189.666 50 -300.999c0 -112 -16.667 -212.667 -50 -302s-80.5 -165.5 -141.5 -228.5s-133.833 -111.167 -218.5 -144.5
s-178.334 -50 -281.001 -50h-529v701h-221zM377.002 84.999l423 -0.00195312c87.333 0 166.833 14.333 238.5 43s132.834 70.334 183.501 125.001s90 121.5 118 200.5s42 169.5 42 271.5c0 101.333 -14 191.5 -42 270.5s-67.333 145.833 -118 200.5
s-111.834 96.334 -183.501 125.001s-151.167 43 -238.5 43h-423v-597h414v-66h-414v-616z" />
    <glyph glyph-name="Ntilde" unicode="&#xd1;" horiz-adv-x="1548" 
d="M215 0v1449h51c9.33301 0 16.833 -1.16699 22.5 -3.5s11.5 -7.5 17.5 -15.5l938 -1256c-2 20.667 -3 40.334 -3 59.001v1216h92v-1449h-50c-16 0 -28.667 6.66699 -38 20l-942 1258c2 -20.667 3 -40 3 -58v-1220h-91zM555 1590c0 23.333 3.16699 45.334 9.5 66.001
s15.666 38.667 27.999 54s27.5 27.166 45.5 35.499s38.333 12.5 61 12.5c23.333 0 45.333 -5.5 66 -16.5s40.5 -22.667 59.5 -35l55 -35c17.667 -11 35.834 -16.5 54.501 -16.5c28.667 0 50.5 9.33301 65.5 28s22.833 42.667 23.5 72h55c0 -24 -3 -46 -9 -66
s-14.833 -37.667 -26.5 -53s-26.5 -27.333 -44.5 -36s-38.667 -13 -62 -13c-22.667 0 -44.167 5.5 -64.5 16.5s-40.166 22.833 -59.499 35.5l-56 35.5c-18 11 -36.333 16.5 -55 16.5c-28.667 0 -50.334 -9.66699 -65.001 -29s-22.667 -43.333 -24 -72h-57z" />
    <glyph glyph-name="Ograve" unicode="&#xd2;" horiz-adv-x="1633" 
d="M126 725c0 111.333 16.833 212.5 50.5 303.5s81 168.833 142 233.5s133.833 114.667 218.5 150s177.667 53 279 53c103.333 0 197.333 -17.5 282 -52.5s157.334 -85 218.001 -150s107.667 -143 141 -234s50 -192.167 50 -303.5c0 -112 -16.667 -213.5 -50 -304.5
s-80.333 -168.833 -141 -233.5s-133.334 -114.5 -218.001 -149.5s-178.667 -52.5 -282 -52.5c-102 0 -195.167 17.5 -279.5 52.5s-157 84.833 -218 149.5s-108.333 142.5 -142 233.5s-50.5 192.5 -50.5 304.5zM233 725c0 -102 14.167 -193 42.5 -273s68.333 -148 120 -204
s113.167 -98.667 184.5 -128s150 -44 236 -44c87.333 0 166.833 14.667 238.5 44s133 72 184 128s90.5 124 118.5 204s42 171 42 273c0 101.333 -14 192.166 -42 272.499s-67.5 148.5 -118.5 204.5s-112.333 98.833 -184 128.5s-151.167 44.5 -238.5 44.5
c-86 0 -164.667 -14.833 -236 -44.5s-132.833 -72.5 -184.5 -128.5s-91.667 -124.167 -120 -204.5s-42.5 -171.166 -42.5 -272.499zM517 1812l116 0.000976562c16.667 0 28.834 -1.5 36.501 -4.5s16.167 -8.83301 25.5 -17.5l234 -211h-73c-8 0 -14.833 0.666992 -20.5 2
s-11.834 4.66602 -18.501 9.99902z" />
    <glyph glyph-name="Oacute" unicode="&#xd3;" horiz-adv-x="1633" 
d="M126 725c0 111.333 16.833 212.5 50.5 303.5s81 168.833 142 233.5s133.833 114.667 218.5 150s177.667 53 279 53c103.333 0 197.333 -17.5 282 -52.5s157.334 -85 218.001 -150s107.667 -143 141 -234s50 -192.167 50 -303.5c0 -112 -16.667 -213.5 -50 -304.5
s-80.333 -168.833 -141 -233.5s-133.334 -114.5 -218.001 -149.5s-178.667 -52.5 -282 -52.5c-102 0 -195.167 17.5 -279.5 52.5s-157 84.833 -218 149.5s-108.333 142.5 -142 233.5s-50.5 192.5 -50.5 304.5zM233 725c0 -102 14.167 -193 42.5 -273s68.333 -148 120 -204
s113.167 -98.667 184.5 -128s150 -44 236 -44c87.333 0 166.833 14.667 238.5 44s133 72 184 128s90.5 124 118.5 204s42 171 42 273c0 101.333 -14 192.166 -42 272.499s-67.5 148.5 -118.5 204.5s-112.333 98.833 -184 128.5s-151.167 44.5 -238.5 44.5
c-86 0 -164.667 -14.833 -236 -44.5s-132.833 -72.5 -184.5 -128.5s-91.667 -124.167 -120 -204.5s-42.5 -171.166 -42.5 -272.499zM703 1579l233.001 211.001c9.33301 8.66699 18.166 14.5 26.499 17.5s20.5 4.5 36.5 4.5h115l-299 -221
c-6.66699 -4.66699 -13 -7.83398 -19 -9.50098s-13 -2.5 -21 -2.5h-72z" />
    <glyph glyph-name="Ocircumflex" unicode="&#xd4;" horiz-adv-x="1633" 
d="M126 725c0 111.333 16.833 212.5 50.5 303.5s81 168.833 142 233.5s133.833 114.667 218.5 150s177.667 53 279 53c103.333 0 197.333 -17.5 282 -52.5s157.334 -85 218.001 -150s107.667 -143 141 -234s50 -192.167 50 -303.5c0 -112 -16.667 -213.5 -50 -304.5
s-80.333 -168.833 -141 -233.5s-133.334 -114.5 -218.001 -149.5s-178.667 -52.5 -282 -52.5c-102 0 -195.167 17.5 -279.5 52.5s-157 84.833 -218 149.5s-108.333 142.5 -142 233.5s-50.5 192.5 -50.5 304.5zM233 725c0 -102 14.167 -193 42.5 -273s68.333 -148 120 -204
s113.167 -98.667 184.5 -128s150 -44 236 -44c87.333 0 166.833 14.667 238.5 44s133 72 184 128s90.5 124 118.5 204s42 171 42 273c0 101.333 -14 192.166 -42 272.499s-67.5 148.5 -118.5 204.5s-112.333 98.833 -184 128.5s-151.167 44.5 -238.5 44.5
c-86 0 -164.667 -14.833 -236 -44.5s-132.833 -72.5 -184.5 -128.5s-91.667 -124.167 -120 -204.5s-42.5 -171.166 -42.5 -272.499zM531 1579l240.999 204h92l241 -204h-75c-5.33301 0 -11.333 0.833008 -18 2.5s-12.334 4.16699 -17.001 7.5l-160 126
c-5.33301 4 -9 7 -11 9s-3.66699 4 -5 6l-5.5 -5.5c-2.33301 -2.33301 -6.16602 -5.5 -11.499 -9.5l-161 -126c-4.66699 -3.33301 -10.167 -5.83301 -16.5 -7.5s-12.166 -2.5 -17.499 -2.5h-76z" />
    <glyph glyph-name="Otilde" unicode="&#xd5;" horiz-adv-x="1633" 
d="M126 725c0 111.333 16.833 212.5 50.5 303.5s81 168.833 142 233.5s133.833 114.667 218.5 150s177.667 53 279 53c103.333 0 197.333 -17.5 282 -52.5s157.334 -85 218.001 -150s107.667 -143 141 -234s50 -192.167 50 -303.5c0 -112 -16.667 -213.5 -50 -304.5
s-80.333 -168.833 -141 -233.5s-133.334 -114.5 -218.001 -149.5s-178.667 -52.5 -282 -52.5c-102 0 -195.167 17.5 -279.5 52.5s-157 84.833 -218 149.5s-108.333 142.5 -142 233.5s-50.5 192.5 -50.5 304.5zM233 725c0 -102 14.167 -193 42.5 -273s68.333 -148 120 -204
s113.167 -98.667 184.5 -128s150 -44 236 -44c87.333 0 166.833 14.667 238.5 44s133 72 184 128s90.5 124 118.5 204s42 171 42 273c0 101.333 -14 192.166 -42 272.499s-67.5 148.5 -118.5 204.5s-112.333 98.833 -184 128.5s-151.167 44.5 -238.5 44.5
c-86 0 -164.667 -14.833 -236 -44.5s-132.833 -72.5 -184.5 -128.5s-91.667 -124.167 -120 -204.5s-42.5 -171.166 -42.5 -272.499zM562 1590c0 23.333 3.16699 45.334 9.5 66.001s15.666 38.667 27.999 54s27.5 27.166 45.5 35.499s38.333 12.5 61 12.5
c23.333 0 45.333 -5.5 66 -16.5s40.5 -22.667 59.5 -35l55 -35c17.667 -11 35.834 -16.5 54.501 -16.5c28.667 0 50.5 9.33301 65.5 28s22.833 42.667 23.5 72h55c0 -24 -3 -46 -9 -66s-14.833 -37.667 -26.5 -53s-26.5 -27.333 -44.5 -36s-38.667 -13 -62 -13
c-22.667 0 -44.167 5.5 -64.5 16.5s-40.166 22.833 -59.499 35.5l-56 35.5c-18 11 -36.333 16.5 -55 16.5c-28.667 0 -50.334 -9.66699 -65.001 -29s-22.667 -43.333 -24 -72h-57z" />
    <glyph glyph-name="Odieresis" unicode="&#xd6;" horiz-adv-x="1633" 
d="M126 725c0 111.333 16.833 212.5 50.5 303.5s81 168.833 142 233.5s133.833 114.667 218.5 150s177.667 53 279 53c103.333 0 197.333 -17.5 282 -52.5s157.334 -85 218.001 -150s107.667 -143 141 -234s50 -192.167 50 -303.5c0 -112 -16.667 -213.5 -50 -304.5
s-80.333 -168.833 -141 -233.5s-133.334 -114.5 -218.001 -149.5s-178.667 -52.5 -282 -52.5c-102 0 -195.167 17.5 -279.5 52.5s-157 84.833 -218 149.5s-108.333 142.5 -142 233.5s-50.5 192.5 -50.5 304.5zM233 725c0 -102 14.167 -193 42.5 -273s68.333 -148 120 -204
s113.167 -98.667 184.5 -128s150 -44 236 -44c87.333 0 166.833 14.667 238.5 44s133 72 184 128s90.5 124 118.5 204s42 171 42 273c0 101.333 -14 192.166 -42 272.499s-67.5 148.5 -118.5 204.5s-112.333 98.833 -184 128.5s-151.167 44.5 -238.5 44.5
c-86 0 -164.667 -14.833 -236 -44.5s-132.833 -72.5 -184.5 -128.5s-91.667 -124.167 -120 -204.5s-42.5 -171.166 -42.5 -272.499zM522 1705c0 10.667 2.16699 21.167 6.5 31.5s10.333 19.5 18 27.5s16.5 14.167 26.5 18.5s20.333 6.5 31 6.5s21.167 -2.16699 31.5 -6.5
s19.333 -10.5 27 -18.5s13.834 -17.167 18.501 -27.5s7 -20.833 7 -31.5s-2.33301 -21 -7 -31s-10.834 -18.667 -18.501 -26s-16.667 -13.166 -27 -17.499s-20.833 -6.5 -31.5 -6.5s-21 2.16699 -31 6.5s-18.833 10.166 -26.5 17.499s-13.667 16 -18 26s-6.5 20.333 -6.5 31
zM948 1705c0 22.667 8.16699 42.333 24.5 59s35.833 25 58.5 25c10.667 0 21 -2.16699 31 -6.5s19 -10.5 27 -18.5s14.167 -17.167 18.5 -27.5s6.5 -20.833 6.5 -31.5s-2.16699 -21 -6.5 -31s-10.5 -18.667 -18.5 -26s-17 -13.166 -27 -17.499s-20.333 -6.5 -31 -6.5
c-11.333 0 -22 2.16699 -32 6.5s-18.833 10.166 -26.5 17.499s-13.667 16 -18 26s-6.5 20.333 -6.5 31z" />
    <glyph glyph-name="Oslash" unicode="&#xd8;" horiz-adv-x="1633" 
d="M126 725c0 111.333 16.834 212.497 50.501 303.497s81 168.833 142 233.5s133.833 114.667 218.5 150s177.667 53 279 53c82.667 0 159.5 -11.333 230.5 -34s134.833 -55.667 191.5 -99l114 153c8 10.667 15 18.5 21 23.5s16 7.5 30 7.5h56l-169 -228
c68.667 -65.333 122 -145.5 160 -240.5s57 -202.5 57 -322.5c0 -112 -16.667 -213.5 -50 -304.5s-80.333 -168.833 -141 -233.5s-133.334 -114.5 -218.001 -149.5s-178.667 -52.5 -282 -52.5c-78.667 0 -151.834 10.333 -219.501 31s-129.167 50.334 -184.5 89.001
l-134 -180c-8.66699 -11.333 -18.667 -19.666 -30 -24.999s-22.666 -8 -33.999 -8h-45l189 255c-74 65.333 -131.167 146.833 -171.5 244.5s-60.5 208.834 -60.5 333.501zM233.001 724.997c0 -109.333 16.167 -205.835 48.5 -289.502s77.5 -153.5 135.5 -209.5l764 1029
c-48.667 38.667 -103.5 68.334 -164.5 89.001s-127.833 31 -200.5 31c-86 0 -164.667 -14.833 -236 -44.5s-132.833 -72.5 -184.5 -128.5s-91.667 -124.167 -120 -204.5s-42.5 -171.166 -42.5 -272.499zM468.001 181.995c47.333 -34.667 100.166 -61 158.499 -79
s121.5 -27 189.5 -27c87.333 0 166.833 14.667 238.5 44s133 72 184 128s90.5 124 118.5 204s42 171 42 273c0 104 -14.667 196.5 -44 277.5s-70.666 149.5 -123.999 205.5z" />
    <glyph glyph-name="Ugrave" unicode="&#xd9;" horiz-adv-x="1502" 
d="M202 553l0.00195312 895.997h105v-895c0 -67.333 10.167 -130.166 30.5 -188.499s49.333 -109.166 87 -152.499s84.167 -77.166 139.5 -101.499s117.666 -36.5 186.999 -36.5s131.5 12 186.5 36s101.667 57.5 140 100.5s67.5 93.833 87.5 152.5s30 121.667 30 189v896
h104v-896c0 -80 -12.5 -154.667 -37.5 -224s-61.333 -129.666 -109 -180.999s-105.334 -91.666 -173.001 -120.999s-143.834 -44 -228.501 -44s-161 14.667 -229 44s-125.667 69.666 -173 120.999s-83.666 111.666 -108.999 180.999s-38 144 -38 224zM449.002 1812
l116 0.000976562c16.667 0 28.834 -1.5 36.501 -4.5s16.167 -8.83301 25.5 -17.5l234 -211h-73c-8 0 -14.833 0.666992 -20.5 2s-11.834 4.66602 -18.501 9.99902z" />
    <glyph glyph-name="Uacute" unicode="&#xda;" horiz-adv-x="1502" 
d="M202 553l0.00195312 895.997h105v-895c0 -67.333 10.167 -130.166 30.5 -188.499s49.333 -109.166 87 -152.499s84.167 -77.166 139.5 -101.499s117.666 -36.5 186.999 -36.5s131.5 12 186.5 36s101.667 57.5 140 100.5s67.5 93.833 87.5 152.5s30 121.667 30 189v896
h104v-896c0 -80 -12.5 -154.667 -37.5 -224s-61.333 -129.666 -109 -180.999s-105.334 -91.666 -173.001 -120.999s-143.834 -44 -228.501 -44s-161 14.667 -229 44s-125.667 69.666 -173 120.999s-83.666 111.666 -108.999 180.999s-38 144 -38 224zM635.002 1579
l233.001 211.001c9.33301 8.66699 18.166 14.5 26.499 17.5s20.5 4.5 36.5 4.5h115l-299 -221c-6.66699 -4.66699 -13 -7.83398 -19 -9.50098s-13 -2.5 -21 -2.5h-72z" />
    <glyph glyph-name="Ucircumflex" unicode="&#xdb;" horiz-adv-x="1502" 
d="M202 553l0.00195312 895.997h105v-895c0 -67.333 10.167 -130.166 30.5 -188.499s49.333 -109.166 87 -152.499s84.167 -77.166 139.5 -101.499s117.666 -36.5 186.999 -36.5s131.5 12 186.5 36s101.667 57.5 140 100.5s67.5 93.833 87.5 152.5s30 121.667 30 189v896
h104v-896c0 -80 -12.5 -154.667 -37.5 -224s-61.333 -129.666 -109 -180.999s-105.334 -91.666 -173.001 -120.999s-143.834 -44 -228.501 -44s-161 14.667 -229 44s-125.667 69.666 -173 120.999s-83.666 111.666 -108.999 180.999s-38 144 -38 224zM464.002 1579
l240.999 204h92l241 -204h-75c-5.33301 0 -11.333 0.833008 -18 2.5s-12.334 4.16699 -17.001 7.5l-160 126c-5.33301 4 -9 7 -11 9s-3.66699 4 -5 6l-5.5 -5.5c-2.33301 -2.33301 -6.16602 -5.5 -11.499 -9.5l-161 -126c-4.66699 -3.33301 -10.167 -5.83301 -16.5 -7.5
s-12.166 -2.5 -17.499 -2.5h-76z" />
    <glyph glyph-name="Udieresis" unicode="&#xdc;" horiz-adv-x="1502" 
d="M202 553l0.00195312 895.997h105v-895c0 -67.333 10.167 -130.166 30.5 -188.499s49.333 -109.166 87 -152.499s84.167 -77.166 139.5 -101.499s117.666 -36.5 186.999 -36.5s131.5 12 186.5 36s101.667 57.5 140 100.5s67.5 93.833 87.5 152.5s30 121.667 30 189v896
h104v-896c0 -80 -12.5 -154.667 -37.5 -224s-61.333 -129.666 -109 -180.999s-105.334 -91.666 -173.001 -120.999s-143.834 -44 -228.501 -44s-161 14.667 -229 44s-125.667 69.666 -173 120.999s-83.666 111.666 -108.999 180.999s-38 144 -38 224zM455.002 1705
c0 10.667 2.16699 21.167 6.5 31.5s10.333 19.5 18 27.5s16.5 14.167 26.5 18.5s20.333 6.5 31 6.5s21.167 -2.16699 31.5 -6.5s19.333 -10.5 27 -18.5s13.834 -17.167 18.501 -27.5s7 -20.833 7 -31.5s-2.33301 -21 -7 -31s-10.834 -18.667 -18.501 -26
s-16.667 -13.166 -27 -17.499s-20.833 -6.5 -31.5 -6.5s-21 2.16699 -31 6.5s-18.833 10.166 -26.5 17.499s-13.667 16 -18 26s-6.5 20.333 -6.5 31zM881.002 1705c0 22.667 8.16699 42.333 24.5 59s35.833 25 58.5 25c10.667 0 21 -2.16699 31 -6.5s19 -10.5 27 -18.5
s14.167 -17.167 18.5 -27.5s6.5 -20.833 6.5 -31.5s-2.16699 -21 -6.5 -31s-10.5 -18.667 -18.5 -26s-17 -13.166 -27 -17.499s-20.333 -6.5 -31 -6.5c-11.333 0 -22 2.16699 -32 6.5s-18.833 10.166 -26.5 17.499s-13.667 16 -18 26s-6.5 20.333 -6.5 31z" />
    <glyph glyph-name="Yacute" unicode="&#xdd;" horiz-adv-x="1227" 
d="M26 1449l91.001 0.00195312c9.33301 0 16.833 -2.16699 22.5 -6.5s11.5 -10.833 17.5 -19.5l414 -665c9.33301 -16 17.5 -31.333 24.5 -46s13.167 -29.334 18.5 -44.001c5.33301 15.333 11.5 30.166 18.5 44.499s15.167 29.5 24.5 45.5l414 665
c4 7.33301 9.16699 13.5 15.5 18.5s14.166 7.5 23.499 7.5h92l-535 -851v-598h-106v598zM499.001 1579l233.001 211.001c9.33301 8.66699 18.166 14.5 26.499 17.5s20.5 4.5 36.5 4.5h115l-299 -221c-6.66699 -4.66699 -13 -7.83398 -19 -9.50098s-13 -2.5 -21 -2.5h-72z
" />
    <glyph glyph-name="Thorn" unicode="&#xde;" horiz-adv-x="1215" 
d="M246 0v1449h104v-291h270c170 0 298.167 -37.167 384.5 -111.5s129.5 -180.5 129.5 -318.5c0 -63.333 -11.833 -121.666 -35.5 -174.999s-57.667 -99.333 -102 -138s-98.333 -68.667 -162 -90s-135.167 -32 -214.5 -32h-270v-293h-104zM350 376.999l270.001 -0.000976562
c64 0 121.167 8.83301 171.5 26.5s93.166 42.167 128.499 73.5s62.333 68.333 81 111s28 89.334 28 140.001c0 111.333 -34.333 196.833 -103 256.5s-170.667 89.5 -306 89.5h-270v-697z" />
    <glyph glyph-name="germandbls" unicode="&#xdf;" horiz-adv-x="1185" 
d="M204 0l-0.00488281 1025c0 68.667 11.167 130.5 33.5 185.5s53.5 101.5 93.5 139.5s87.833 67 143.5 87s116.167 30 181.5 30c58 0 109.667 -8.66699 155 -26s83.333 -39.833 114 -67.5s53.834 -58.5 69.501 -92.5s23.5 -68 23.5 -102c0 -42 -8 -78.833 -24 -110.5
s-36.167 -59.667 -60.5 -84s-50.5 -46 -78.5 -65s-54.167 -37.833 -78.5 -56.5s-44.5 -38 -60.5 -58s-24 -42.667 -24 -68c0 -24.667 5.66699 -45.334 17 -62.001s26.333 -31.167 45 -43.5s39.834 -23.5 63.501 -33.5l73 -32c25 -11.333 49.167 -24 72.5 -38
s44.5 -31.333 63.5 -52s34.167 -45.167 45.5 -73.5s17 -62.5 17 -102.5c0 -46.667 -8.66699 -89.334 -26 -128.001s-41.333 -72 -72 -100s-67.5 -49.667 -110.5 -65s-90.833 -23 -143.5 -23c-68.667 0 -127.834 11.333 -177.501 34s-94.834 52.667 -135.501 90l22 34
c3.33301 5.33301 7.33301 9.5 12 12.5s10.667 4.5 18 4.5c8.66699 0 19.334 -5.5 32.001 -16.5s29.334 -22.833 50.001 -35.5s46.167 -24.5 76.5 -35.5s66.833 -16.5 109.5 -16.5c40 0 75.833 6 107.5 18s58.334 28.5 80.001 49.5s38 45.5 49 73.5s16.5 58 16.5 90
c0 46 -10 82.667 -30 110s-45 49.833 -75 67.5s-62.5 33 -97.5 46s-67.5 28 -97.5 45s-55 38.167 -75 63.5s-30 59.666 -30 102.999c0 33.333 8.16699 62.333 24.5 87s37 47.5 62 68.5s51.833 41.5 80.5 61.5s55.5 41.5 80.5 64.5s45.667 48.667 62 77
s24.5 61.833 24.5 100.5c0 21.333 -4.83301 44.333 -14.5 69s-25.167 47.834 -46.5 69.501s-49.5 39.667 -84.5 54s-77.5 21.5 -127.5 21.5c-48.667 0 -94.167 -7.33301 -136.5 -22s-79.666 -37 -111.999 -67s-57.666 -68.5 -75.999 -115.5s-27.5 -102.5 -27.5 -166.5v-1023
h-97z" />
    <glyph glyph-name="agrave" unicode="&#xe0;" horiz-adv-x="996" 
d="M110 247c0 43.333 12.1689 83.334 36.502 120.001s62.666 68.667 114.999 96s119.666 49.166 201.999 65.499s181.166 25.833 296.499 28.5v107c0 94 -20.333 166.333 -61 217s-101 76 -181 76c-49.333 0 -91.166 -6.83301 -125.499 -20.5s-63.5 -28.667 -87.5 -45
s-43.5 -31.333 -58.5 -45s-27.5 -20.5 -37.5 -20.5c-13.333 0 -23.666 6.33301 -30.999 19l-17 29c53.333 53.333 109.333 93.666 168 120.999s125 41 199 41c54.667 0 102.5 -8.66699 143.5 -26s75 -42.166 102 -74.499s47.333 -71.5 61 -117.5s20.5 -97.333 20.5 -154
v-664h-39c-20.667 0 -33.334 9.66699 -38.001 29l-14 130c-28 -27.333 -55.833 -52 -83.5 -74s-56.5 -40.5 -86.5 -55.5s-62.5 -26.333 -97.5 -34s-73.167 -11.5 -114.5 -11.5c-34.667 0 -68.5 5 -101.5 15s-62 25.667 -87 47s-45.167 48.5 -60.5 81.5s-23 72.833 -23 119.5
zM204.002 251.001c0 -34 5.66504 -63.5 16.998 -88.5s26.166 -45.5 44.499 -61.5s39.833 -27.833 64.5 -35.5s50.334 -11.5 77.001 -11.5c39.333 0 75.5 4.33301 108.5 13s63.667 20.667 92 36s54.833 33.5 79.5 54.5s49 43.833 73 68.5v266
c-96.667 -2.66699 -180.167 -10 -250.5 -22s-128.166 -28.333 -173.499 -49s-78.666 -45.167 -99.999 -73.5s-32 -60.5 -32 -96.5zM307 1465h94c16.667 0 29 -2.33301 37 -7s16 -13 24 -25l160 -244h-55c-8 0 -15 1.16699 -21 3.5s-11.667 6.83301 -17 13.5z" />
    <glyph glyph-name="aacute" unicode="&#xe1;" horiz-adv-x="996" 
d="M110 247c0 43.333 12.1689 83.334 36.502 120.001s62.666 68.667 114.999 96s119.666 49.166 201.999 65.499s181.166 25.833 296.499 28.5v107c0 94 -20.333 166.333 -61 217s-101 76 -181 76c-49.333 0 -91.166 -6.83301 -125.499 -20.5s-63.5 -28.667 -87.5 -45
s-43.5 -31.333 -58.5 -45s-27.5 -20.5 -37.5 -20.5c-13.333 0 -23.666 6.33301 -30.999 19l-17 29c53.333 53.333 109.333 93.666 168 120.999s125 41 199 41c54.667 0 102.5 -8.66699 143.5 -26s75 -42.166 102 -74.499s47.333 -71.5 61 -117.5s20.5 -97.333 20.5 -154
v-664h-39c-20.667 0 -33.334 9.66699 -38.001 29l-14 130c-28 -27.333 -55.833 -52 -83.5 -74s-56.5 -40.5 -86.5 -55.5s-62.5 -26.333 -97.5 -34s-73.167 -11.5 -114.5 -11.5c-34.667 0 -68.5 5 -101.5 15s-62 25.667 -87 47s-45.167 48.5 -60.5 81.5s-23 72.833 -23 119.5
zM204.002 251.001c0 -34 5.66504 -63.5 16.998 -88.5s26.166 -45.5 44.499 -61.5s39.833 -27.833 64.5 -35.5s50.334 -11.5 77.001 -11.5c39.333 0 75.5 4.33301 108.5 13s63.667 20.667 92 36s54.833 33.5 79.5 54.5s49 43.833 73 68.5v266
c-96.667 -2.66699 -180.167 -10 -250.5 -22s-128.166 -28.333 -173.499 -49s-78.666 -45.167 -99.999 -73.5s-32 -60.5 -32 -96.5zM431 1189l161.002 244c7.33301 12 15.166 20.333 23.499 25s20.5 7 36.5 7h96l-221 -259c-5.33301 -6.66699 -10.833 -11.167 -16.5 -13.5
s-12.834 -3.5 -21.501 -3.5h-58z" />
    <glyph glyph-name="acircumflex" unicode="&#xe2;" horiz-adv-x="996" 
d="M110 247c0 43.333 12.1689 83.334 36.502 120.001s62.666 68.667 114.999 96s119.666 49.166 201.999 65.499s181.166 25.833 296.499 28.5v107c0 94 -20.333 166.333 -61 217s-101 76 -181 76c-49.333 0 -91.166 -6.83301 -125.499 -20.5s-63.5 -28.667 -87.5 -45
s-43.5 -31.333 -58.5 -45s-27.5 -20.5 -37.5 -20.5c-13.333 0 -23.666 6.33301 -30.999 19l-17 29c53.333 53.333 109.333 93.666 168 120.999s125 41 199 41c54.667 0 102.5 -8.66699 143.5 -26s75 -42.166 102 -74.499s47.333 -71.5 61 -117.5s20.5 -97.333 20.5 -154
v-664h-39c-20.667 0 -33.334 9.66699 -38.001 29l-14 130c-28 -27.333 -55.833 -52 -83.5 -74s-56.5 -40.5 -86.5 -55.5s-62.5 -26.333 -97.5 -34s-73.167 -11.5 -114.5 -11.5c-34.667 0 -68.5 5 -101.5 15s-62 25.667 -87 47s-45.167 48.5 -60.5 81.5s-23 72.833 -23 119.5
zM204.002 251.001c0 -34 5.66504 -63.5 16.998 -88.5s26.166 -45.5 44.499 -61.5s39.833 -27.833 64.5 -35.5s50.334 -11.5 77.001 -11.5c39.333 0 75.5 4.33301 108.5 13s63.667 20.667 92 36s54.833 33.5 79.5 54.5s49 43.833 73 68.5v266
c-96.667 -2.66699 -180.167 -10 -250.5 -22s-128.166 -28.333 -173.499 -49s-78.666 -45.167 -99.999 -73.5s-32 -60.5 -32 -96.5zM252 1197l223 251.999h87l222 -252h-66c-10.667 0 -20 4 -28 12l-160 167c-4 2.66699 -7.66699 6.66699 -11 12
c-1.33301 -2.66699 -3 -5 -5 -7l-5 -5l-161 -167c-3.33301 -3.33301 -7.33301 -6.16602 -12 -8.49902s-10 -3.5 -16 -3.5h-68z" />
    <glyph glyph-name="atilde" unicode="&#xe3;" horiz-adv-x="996" 
d="M110 247c0 43.333 12.1689 83.334 36.502 120.001s62.666 68.667 114.999 96s119.666 49.166 201.999 65.499s181.166 25.833 296.499 28.5v107c0 94 -20.333 166.333 -61 217s-101 76 -181 76c-49.333 0 -91.166 -6.83301 -125.499 -20.5s-63.5 -28.667 -87.5 -45
s-43.5 -31.333 -58.5 -45s-27.5 -20.5 -37.5 -20.5c-13.333 0 -23.666 6.33301 -30.999 19l-17 29c53.333 53.333 109.333 93.666 168 120.999s125 41 199 41c54.667 0 102.5 -8.66699 143.5 -26s75 -42.166 102 -74.499s47.333 -71.5 61 -117.5s20.5 -97.333 20.5 -154
v-664h-39c-20.667 0 -33.334 9.66699 -38.001 29l-14 130c-28 -27.333 -55.833 -52 -83.5 -74s-56.5 -40.5 -86.5 -55.5s-62.5 -26.333 -97.5 -34s-73.167 -11.5 -114.5 -11.5c-34.667 0 -68.5 5 -101.5 15s-62 25.667 -87 47s-45.167 48.5 -60.5 81.5s-23 72.833 -23 119.5
zM204.002 251.001c0 -34 5.66504 -63.5 16.998 -88.5s26.166 -45.5 44.499 -61.5s39.833 -27.833 64.5 -35.5s50.334 -11.5 77.001 -11.5c39.333 0 75.5 4.33301 108.5 13s63.667 20.667 92 36s54.833 33.5 79.5 54.5s49 43.833 73 68.5v266
c-96.667 -2.66699 -180.167 -10 -250.5 -22s-128.166 -28.333 -173.499 -49s-78.666 -45.167 -99.999 -73.5s-32 -60.5 -32 -96.5zM258 1243c0 24.667 3.33203 47.833 9.99902 69.5s16.5 40.334 29.5 56.001s28.833 27.834 47.5 36.501s39.334 13 62.001 13
c23.333 0 45.166 -5.66699 65.499 -17s39.5 -23.5 57.5 -36.5s35.667 -25.167 53 -36.5s35 -17 53 -17c29.333 0 51.5 9.33301 66.5 28s22.833 44 23.5 76h60c0 -24.667 -3.16699 -47.667 -9.5 -69s-15.833 -39.833 -28.5 -55.5s-28.167 -28 -46.5 -37
s-39.166 -13.5 -62.499 -13.5c-22.667 0 -44 5.66699 -64 17s-39.333 23.666 -58 36.999l-54 37c-17.333 11.333 -35 17 -53 17c-28.667 0 -50.5 -9.83301 -65.5 -29.5s-23.167 -44.834 -24.5 -75.501h-62z" />
    <glyph glyph-name="adieresis" unicode="&#xe4;" horiz-adv-x="996" 
d="M110 247c0 43.333 12.1689 83.334 36.502 120.001s62.666 68.667 114.999 96s119.666 49.166 201.999 65.499s181.166 25.833 296.499 28.5v107c0 94 -20.333 166.333 -61 217s-101 76 -181 76c-49.333 0 -91.166 -6.83301 -125.499 -20.5s-63.5 -28.667 -87.5 -45
s-43.5 -31.333 -58.5 -45s-27.5 -20.5 -37.5 -20.5c-13.333 0 -23.666 6.33301 -30.999 19l-17 29c53.333 53.333 109.333 93.666 168 120.999s125 41 199 41c54.667 0 102.5 -8.66699 143.5 -26s75 -42.166 102 -74.499s47.333 -71.5 61 -117.5s20.5 -97.333 20.5 -154
v-664h-39c-20.667 0 -33.334 9.66699 -38.001 29l-14 130c-28 -27.333 -55.833 -52 -83.5 -74s-56.5 -40.5 -86.5 -55.5s-62.5 -26.333 -97.5 -34s-73.167 -11.5 -114.5 -11.5c-34.667 0 -68.5 5 -101.5 15s-62 25.667 -87 47s-45.167 48.5 -60.5 81.5s-23 72.833 -23 119.5
zM204.002 251.001c0 -34 5.66504 -63.5 16.998 -88.5s26.166 -45.5 44.499 -61.5s39.833 -27.833 64.5 -35.5s50.334 -11.5 77.001 -11.5c39.333 0 75.5 4.33301 108.5 13s63.667 20.667 92 36s54.833 33.5 79.5 54.5s49 43.833 73 68.5v266
c-96.667 -2.66699 -180.167 -10 -250.5 -22s-128.166 -28.333 -173.499 -49s-78.666 -45.167 -99.999 -73.5s-32 -60.5 -32 -96.5zM259 1315c0 11.333 2.16699 22.165 6.5 32.498s10.5 19.333 18.5 27s16.833 13.834 26.5 18.501s20.167 7 31.5 7
c10.667 0 21.334 -2.33301 32.001 -7s19.834 -10.834 27.501 -18.501s13.834 -16.667 18.501 -27s7 -21.166 7 -32.499c0 -10.667 -2.33301 -21 -7 -31s-10.834 -18.833 -18.501 -26.5s-16.834 -13.667 -27.501 -18s-21.334 -6.5 -32.001 -6.5s-21 2.16699 -31 6.5
s-19 10.333 -27 18s-14.167 16.334 -18.5 26.001s-6.5 20.167 -6.5 31.5zM609 1315c0 11.333 2.16699 22.165 6.5 32.498s10.5 19.333 18.5 27s17 13.834 27 18.501s20.667 7 32 7c10.667 0 21.334 -2.33301 32.001 -7s19.834 -10.834 27.501 -18.501
s13.834 -16.667 18.501 -27s7 -21.166 7 -32.499c0 -10.667 -2.33301 -21 -7 -31s-10.834 -18.833 -18.501 -26.5s-16.834 -13.667 -27.501 -18s-21.334 -6.5 -32.001 -6.5c-11.333 0 -22 2.16699 -32 6.5s-19 10.333 -27 18s-14.167 16.334 -18.5 26.001
s-6.5 20.167 -6.5 31.5z" />
    <glyph glyph-name="aring" unicode="&#xe5;" horiz-adv-x="996" 
d="M110 247c0 43.333 12.1689 83.334 36.502 120.001s62.666 68.667 114.999 96s119.666 49.166 201.999 65.499s181.166 25.833 296.499 28.5v107c0 94 -20.333 166.333 -61 217s-101 76 -181 76c-49.333 0 -91.166 -6.83301 -125.499 -20.5s-63.5 -28.667 -87.5 -45
s-43.5 -31.333 -58.5 -45s-27.5 -20.5 -37.5 -20.5c-13.333 0 -23.666 6.33301 -30.999 19l-17 29c53.333 53.333 109.333 93.666 168 120.999s125 41 199 41c54.667 0 102.5 -8.66699 143.5 -26s75 -42.166 102 -74.499s47.333 -71.5 61 -117.5s20.5 -97.333 20.5 -154
v-664h-39c-20.667 0 -33.334 9.66699 -38.001 29l-14 130c-28 -27.333 -55.833 -52 -83.5 -74s-56.5 -40.5 -86.5 -55.5s-62.5 -26.333 -97.5 -34s-73.167 -11.5 -114.5 -11.5c-34.667 0 -68.5 5 -101.5 15s-62 25.667 -87 47s-45.167 48.5 -60.5 81.5s-23 72.833 -23 119.5
zM204.002 251.001c0 -34 5.66504 -63.5 16.998 -88.5s26.166 -45.5 44.499 -61.5s39.833 -27.833 64.5 -35.5s50.334 -11.5 77.001 -11.5c39.333 0 75.5 4.33301 108.5 13s63.667 20.667 92 36s54.833 33.5 79.5 54.5s49 43.833 73 68.5v266
c-96.667 -2.66699 -180.167 -10 -250.5 -22s-128.166 -28.333 -173.499 -49s-78.666 -45.167 -99.999 -73.5s-32 -60.5 -32 -96.5zM342 1333c0 24.667 4.66699 47.334 14 68.001s22 38.334 38 53.001s34.667 26.167 56 34.5s44 12.5 68 12.5s46.667 -4.16699 68 -12.5
s40 -19.833 56 -34.5s28.833 -32.334 38.5 -53.001s14.5 -43.334 14.5 -68.001s-4.83301 -47 -14.5 -67s-22.5 -37.5 -38.5 -52.5s-34.667 -26.667 -56 -35s-44 -12.5 -68 -12.5s-46.667 4.16699 -68 12.5s-40 20 -56 35s-28.667 32.5 -38 52.5s-14 42.333 -14 67zM401 1333
c0 -34 11 -61.833 33 -83.5s50.333 -32.5 85 -32.5c34 0 62 10.833 84 32.5s33 49.5 33 83.5s-11 62 -33 84s-50 33 -84 33c-34.667 0 -63 -11 -85 -33s-33 -50 -33 -84z" />
    <glyph glyph-name="ae" unicode="&#xe6;" horiz-adv-x="1647" 
d="M110 264c0 44 12.1699 85.1719 36.5029 123.505s62.666 72.333 114.999 102s119.666 53.667 201.999 72s181.166 28.833 296.499 31.5v71c0 94 -20.333 166.667 -61 218s-101 77 -181 77c-49.333 0 -91.166 -6.83301 -125.499 -20.5s-63.5 -28.834 -87.5 -45.501
s-43.5 -32 -58.5 -46s-27.5 -21 -37.5 -21c-7.33301 0 -13.5 1.83301 -18.5 5.5s-9.16699 8.16699 -12.5 13.5l-17 29c52.667 53.333 107.5 93.666 164.5 120.999s121.833 41 194.5 41c86 0 153.667 -22 203 -66s81.666 -104 96.999 -180c32 76 78.833 135.833 140.5 179.5
s137.167 65.5 226.5 65.5c51.333 0 99.166 -10.167 143.499 -30.5s82.833 -50.166 115.5 -89.499s58.334 -88 77.001 -146s28 -125 28 -201c0 -15.333 -1.66699 -25.666 -5 -30.999s-9.66602 -8 -18.999 -8h-676c0 -76.667 8.16699 -143.834 24.5 -201.501
s39.5 -106 69.5 -145s66.167 -68.333 108.5 -88s89.5 -29.5 141.5 -29.5c48.667 0 90 5.5 124 16.5s62.667 23.167 86 36.5s41.5 25.666 54.5 36.999s22.833 17 29.5 17c9.33301 0 16.666 -3.33301 21.999 -10l25 -31c-16 -20.667 -36.5 -39.834 -61.5 -57.501
s-52.833 -32.834 -83.5 -45.501s-63.334 -22.667 -98.001 -30s-69.667 -11 -105 -11c-89.333 0 -166.333 23.5 -231 70.5s-113 117.167 -145 210.5c-13.333 -52.667 -34.5 -97 -63.5 -133s-62 -65.333 -99 -88s-76.167 -38.834 -117.5 -48.501s-80.666 -14.5 -117.999 -14.5
c-43.333 0 -83.333 5.16699 -120 15.5s-68.667 26.833 -96 49.5s-48.833 51.667 -64.5 87s-23.5 78 -23.5 128zM204.003 268.005c0 -38 5.66504 -70.501 16.998 -97.501s27.166 -49 47.499 -66s44.5 -29.667 72.5 -38s58.667 -12.5 92 -12.5c45.333 0 87.833 7.5 127.5 22.5
s74.334 37 104.001 66s53 64.667 70 107s25.5 90.5 25.5 144.5v133c-96.667 -3.33301 -180.167 -11.833 -250.5 -25.5s-128.166 -31.667 -173.499 -54s-78.666 -48.666 -99.999 -78.999s-32 -63.833 -32 -100.5zM853.001 592.004h611.999c0 58 -6.83301 110 -20.5 156
s-32.667 84.833 -57 116.5s-53.833 56 -88.5 73s-72.667 25.5 -114 25.5c-49.333 0 -93.666 -9 -132.999 -27s-73 -43 -101 -75s-50.333 -70.833 -67 -116.5s-27 -96.5 -31 -152.5z" />
    <glyph glyph-name="ccedilla" unicode="&#xe7;" horiz-adv-x="931" 
d="M90 510c0 78 10.3301 149.001 30.9971 213.001s50.5 119.167 89.5 165.5s87 82.333 144 108s122.5 38.5 196.5 38.5c66 0 124.833 -10.5 176.5 -31.5s96.5 -49.5 134.5 -85.5l-25 -35c-3.33301 -3.33301 -6.66602 -6.33301 -9.99902 -9s-7.66602 -4 -12.999 -4
c-6.66699 0 -16 4.66699 -28 14s-27.833 19.5 -47.5 30.5s-44.334 21 -74.001 30s-65.834 13.5 -108.501 13.5c-58.667 0 -110.667 -10.333 -156 -31s-83.5 -50.5 -114.5 -89.5s-54.833 -86.167 -71.5 -141.5s-25 -117.333 -25 -186c0 -72 8.5 -135.5 25.5 -190.5
s40.833 -101.5 71.5 -139.5s67.834 -67 111.501 -87s92.167 -30 145.5 -30c49.333 0 90.5 5.83301 123.5 17.5s60.167 24.334 81.5 38.001s38.333 26.334 51 38.001s22.667 17.5 30 17.5c8.66699 0 15.667 -3.33301 21 -10l27 -33c-30.667 -39.333 -74.667 -72.333 -132 -99
s-122 -41.334 -194 -44.001l-25 -81c60.667 -10.667 107 -26.334 139 -47.001s48 -51 48 -91c0 -20.667 -4.66699 -39.167 -14 -55.5s-22.333 -30.166 -39 -41.499s-36.667 -20.166 -60 -26.499s-48.666 -9.5 -75.999 -9.5c-28 0 -55.333 4 -82 12s-48.667 18.333 -66 31
l10 29c4 8 9.33301 12 16 12c3.33301 0 8 -1.83301 14 -5.5s13.667 -7.66699 23 -12s20.833 -8.33301 34.5 -12s30.167 -5.5 49.5 -5.5c34.667 0 61.834 7.5 81.501 22.5s29.5 35.5 29.5 61.5c0 17.333 -4.5 31.5 -13.5 42.5s-21.667 20.167 -38 27.5
s-35.5 13.166 -57.5 17.499s-46.333 8.16602 -73 11.499l37 121c-59.333 4 -113.5 18.833 -162.5 44.5s-91.167 60.667 -126.5 105s-62.5 97.666 -81.5 159.999s-28.5 132.833 -28.5 211.5z" />
    <glyph glyph-name="egrave" unicode="&#xe8;" horiz-adv-x="1046" 
d="M90 530c0 73.333 10.498 140.833 31.498 202.5s51 114.834 90 159.501s87 79.667 144 105s121.833 38 194.5 38c57.333 0 110.333 -9.83301 159 -29.5s91 -48.5 127 -86.5s64 -84.667 84 -140s30 -118.666 30 -189.999c0 -15.333 -2.16699 -25.666 -6.5 -30.999
s-11.166 -8 -20.499 -8h-737v-20c0 -76.667 9 -143.834 27 -201.501s43.333 -106.167 76 -145.5s72.167 -68.833 118.5 -88.5s98.166 -29.5 155.499 -29.5c51.333 0 95.833 5.5 133.5 16.5s69.167 23.5 94.5 37.5s45.5 26.667 60.5 38s26.167 17 33.5 17
c8.66699 0 15.334 -3.33301 20.001 -10l27 -33c-16.667 -20.667 -38.5 -39.834 -65.5 -57.501s-57 -32.834 -90 -45.501s-68.5 -22.667 -106.5 -30s-76 -11 -114 -11c-69.333 0 -132.666 12 -189.999 36s-106.5 59.333 -147.5 106s-72.667 103.5 -95 170.5
s-33.5 143.833 -33.5 230.5zM189.998 612l672.002 0.000976562c0 54.667 -7.5 103.667 -22.5 147s-36.167 80 -63.5 110s-60 53.167 -98 69.5s-80.333 24.5 -127 24.5c-52.667 0 -99.834 -8.33301 -141.501 -25s-77.667 -40.334 -108 -71.001s-54.833 -67.5 -73.5 -110.5
s-31.334 -91.167 -38.001 -144.5zM339 1465h94c16.667 0 29 -2.33301 37 -7s16 -13 24 -25l160 -244h-55c-8 0 -15 1.16699 -21 3.5s-11.667 6.83301 -17 13.5z" />
    <glyph glyph-name="eacute" unicode="&#xe9;" horiz-adv-x="1046" 
d="M90 530c0 73.333 10.498 140.833 31.498 202.5s51 114.834 90 159.501s87 79.667 144 105s121.833 38 194.5 38c57.333 0 110.333 -9.83301 159 -29.5s91 -48.5 127 -86.5s64 -84.667 84 -140s30 -118.666 30 -189.999c0 -15.333 -2.16699 -25.666 -6.5 -30.999
s-11.166 -8 -20.499 -8h-737v-20c0 -76.667 9 -143.834 27 -201.501s43.333 -106.167 76 -145.5s72.167 -68.833 118.5 -88.5s98.166 -29.5 155.499 -29.5c51.333 0 95.833 5.5 133.5 16.5s69.167 23.5 94.5 37.5s45.5 26.667 60.5 38s26.167 17 33.5 17
c8.66699 0 15.334 -3.33301 20.001 -10l27 -33c-16.667 -20.667 -38.5 -39.834 -65.5 -57.501s-57 -32.834 -90 -45.501s-68.5 -22.667 -106.5 -30s-76 -11 -114 -11c-69.333 0 -132.666 12 -189.999 36s-106.5 59.333 -147.5 106s-72.667 103.5 -95 170.5
s-33.5 143.833 -33.5 230.5zM189.998 612l672.002 0.000976562c0 54.667 -7.5 103.667 -22.5 147s-36.167 80 -63.5 110s-60 53.167 -98 69.5s-80.333 24.5 -127 24.5c-52.667 0 -99.834 -8.33301 -141.501 -25s-77.667 -40.334 -108 -71.001s-54.833 -67.5 -73.5 -110.5
s-31.334 -91.167 -38.001 -144.5zM463 1189l161.002 244c7.33301 12 15.166 20.333 23.499 25s20.5 7 36.5 7h96l-221 -259c-5.33301 -6.66699 -10.833 -11.167 -16.5 -13.5s-12.834 -3.5 -21.501 -3.5h-58z" />
    <glyph glyph-name="ecircumflex" unicode="&#xea;" horiz-adv-x="1046" 
d="M90 530c0 73.333 10.498 140.833 31.498 202.5s51 114.834 90 159.501s87 79.667 144 105s121.833 38 194.5 38c57.333 0 110.333 -9.83301 159 -29.5s91 -48.5 127 -86.5s64 -84.667 84 -140s30 -118.666 30 -189.999c0 -15.333 -2.16699 -25.666 -6.5 -30.999
s-11.166 -8 -20.499 -8h-737v-20c0 -76.667 9 -143.834 27 -201.501s43.333 -106.167 76 -145.5s72.167 -68.833 118.5 -88.5s98.166 -29.5 155.499 -29.5c51.333 0 95.833 5.5 133.5 16.5s69.167 23.5 94.5 37.5s45.5 26.667 60.5 38s26.167 17 33.5 17
c8.66699 0 15.334 -3.33301 20.001 -10l27 -33c-16.667 -20.667 -38.5 -39.834 -65.5 -57.501s-57 -32.834 -90 -45.501s-68.5 -22.667 -106.5 -30s-76 -11 -114 -11c-69.333 0 -132.666 12 -189.999 36s-106.5 59.333 -147.5 106s-72.667 103.5 -95 170.5
s-33.5 143.833 -33.5 230.5zM189.998 612l672.002 0.000976562c0 54.667 -7.5 103.667 -22.5 147s-36.167 80 -63.5 110s-60 53.167 -98 69.5s-80.333 24.5 -127 24.5c-52.667 0 -99.834 -8.33301 -141.501 -25s-77.667 -40.334 -108 -71.001s-54.833 -67.5 -73.5 -110.5
s-31.334 -91.167 -38.001 -144.5zM284 1197l223 251.999h87l222 -252h-66c-10.667 0 -20 4 -28 12l-160 167c-4 2.66699 -7.66699 6.66699 -11 12c-1.33301 -2.66699 -3 -5 -5 -7l-5 -5l-161 -167c-3.33301 -3.33301 -7.33301 -6.16602 -12 -8.49902s-10 -3.5 -16 -3.5h-68z
" />
    <glyph glyph-name="edieresis" unicode="&#xeb;" horiz-adv-x="1046" 
d="M90 530c0 73.333 10.498 140.833 31.498 202.5s51 114.834 90 159.501s87 79.667 144 105s121.833 38 194.5 38c57.333 0 110.333 -9.83301 159 -29.5s91 -48.5 127 -86.5s64 -84.667 84 -140s30 -118.666 30 -189.999c0 -15.333 -2.16699 -25.666 -6.5 -30.999
s-11.166 -8 -20.499 -8h-737v-20c0 -76.667 9 -143.834 27 -201.501s43.333 -106.167 76 -145.5s72.167 -68.833 118.5 -88.5s98.166 -29.5 155.499 -29.5c51.333 0 95.833 5.5 133.5 16.5s69.167 23.5 94.5 37.5s45.5 26.667 60.5 38s26.167 17 33.5 17
c8.66699 0 15.334 -3.33301 20.001 -10l27 -33c-16.667 -20.667 -38.5 -39.834 -65.5 -57.501s-57 -32.834 -90 -45.501s-68.5 -22.667 -106.5 -30s-76 -11 -114 -11c-69.333 0 -132.666 12 -189.999 36s-106.5 59.333 -147.5 106s-72.667 103.5 -95 170.5
s-33.5 143.833 -33.5 230.5zM189.998 612l672.002 0.000976562c0 54.667 -7.5 103.667 -22.5 147s-36.167 80 -63.5 110s-60 53.167 -98 69.5s-80.333 24.5 -127 24.5c-52.667 0 -99.834 -8.33301 -141.501 -25s-77.667 -40.334 -108 -71.001s-54.833 -67.5 -73.5 -110.5
s-31.334 -91.167 -38.001 -144.5zM291 1315c0 11.333 2.16699 22.165 6.5 32.498s10.5 19.333 18.5 27s16.833 13.834 26.5 18.501s20.167 7 31.5 7c10.667 0 21.334 -2.33301 32.001 -7s19.834 -10.834 27.501 -18.501s13.834 -16.667 18.501 -27s7 -21.166 7 -32.499
c0 -10.667 -2.33301 -21 -7 -31s-10.834 -18.833 -18.501 -26.5s-16.834 -13.667 -27.501 -18s-21.334 -6.5 -32.001 -6.5s-21 2.16699 -31 6.5s-19 10.333 -27 18s-14.167 16.334 -18.5 26.001s-6.5 20.167 -6.5 31.5zM641 1315c0 11.333 2.16699 22.165 6.5 32.498
s10.5 19.333 18.5 27s17 13.834 27 18.501s20.667 7 32 7c10.667 0 21.334 -2.33301 32.001 -7s19.834 -10.834 27.501 -18.501s13.834 -16.667 18.501 -27s7 -21.166 7 -32.499c0 -10.667 -2.33301 -21 -7 -31s-10.834 -18.833 -18.501 -26.5s-16.834 -13.667 -27.501 -18
s-21.334 -6.5 -32.001 -6.5c-11.333 0 -22 2.16699 -32 6.5s-19 10.333 -27 18s-14.167 16.334 -18.5 26.001s-6.5 20.167 -6.5 31.5z" />
    <glyph glyph-name="igrave" unicode="&#xec;" horiz-adv-x="486" 
d="M35 1465h94c16.667 0 29 -2.33301 37 -7s16 -13 24 -25l160 -244h-55c-8 0 -15 1.16699 -21 3.5s-11.667 6.83301 -17 13.5zM195 0v1019h97v-1019h-97z" />
    <glyph glyph-name="iacute" unicode="&#xed;" horiz-adv-x="486" 
d="M159 1189l161.002 244c7.33301 12 15.166 20.333 23.499 25s20.5 7 36.5 7h96l-221 -259c-5.33301 -6.66699 -10.833 -11.167 -16.5 -13.5s-12.834 -3.5 -21.501 -3.5h-58zM195.002 0v1019h97v-1019h-97z" />
    <glyph glyph-name="icircumflex" unicode="&#xee;" horiz-adv-x="486" 
d="M-20 1197l223 251.999h87l222 -252h-66c-10.667 0 -20 4 -28 12l-160 167c-4 2.66699 -7.66699 6.66699 -11 12c-1.33301 -2.66699 -3 -5 -5 -7l-5 -5l-161 -167c-3.33301 -3.33301 -7.33301 -6.16602 -12 -8.49902s-10 -3.5 -16 -3.5h-68zM195 -0.000976562v1019h97
v-1019h-97z" />
    <glyph glyph-name="idieresis" unicode="&#xef;" horiz-adv-x="486" 
d="M-13 1315c0 11.333 2.16699 22.165 6.5 32.498s10.5 19.333 18.5 27s16.833 13.834 26.5 18.501s20.167 7 31.5 7c10.667 0 21.334 -2.33301 32.001 -7s19.834 -10.834 27.501 -18.501s13.834 -16.667 18.501 -27s7 -21.166 7 -32.499c0 -10.667 -2.33301 -21 -7 -31
s-10.834 -18.833 -18.501 -26.5s-16.834 -13.667 -27.501 -18s-21.334 -6.5 -32.001 -6.5s-21 2.16699 -31 6.5s-19 10.333 -27 18s-14.167 16.334 -18.5 26.001s-6.5 20.167 -6.5 31.5zM195 -0.000976562v1019h97v-1019h-97zM337 1315c0 11.333 2.16699 22.165 6.5 32.498
s10.5 19.333 18.5 27s17 13.834 27 18.501s20.667 7 32 7c10.667 0 21.334 -2.33301 32.001 -7s19.834 -10.834 27.501 -18.501s13.834 -16.667 18.501 -27s7 -21.166 7 -32.499c0 -10.667 -2.33301 -21 -7 -31s-10.834 -18.833 -18.501 -26.5s-16.834 -13.667 -27.501 -18
s-21.334 -6.5 -32.001 -6.5c-11.333 0 -22 2.16699 -32 6.5s-19 10.333 -27 18s-14.167 16.334 -18.5 26.001s-6.5 20.167 -6.5 31.5z" />
    <glyph glyph-name="eth" unicode="&#xf0;" horiz-adv-x="1097" 
d="M91 466c0 65.333 10.0039 126.995 30.0039 184.995s48.833 108.667 86.5 152s84.167 77.5 139.5 102.5s118.333 37.5 189 37.5c36 0 72.167 -4.66699 108.5 -14s71.5 -23.666 105.5 -42.999s65.667 -44 95 -74s55 -65.333 77 -106c-10 123.333 -39 226.333 -87 309
s-109.667 149.334 -185 200.001l-168 -148l-17 29c-4.66699 5.33301 -7 11.333 -7 18s4 14 12 22l129 111c-40.667 22.667 -83.834 42 -129.501 58s-93.5 29.333 -143.5 40c-6.66699 1.33301 -12.834 4.5 -18.501 9.5s-8.5 12.167 -8.5 21.5c0 2 0.833008 6.66699 2.5 14
s3.16699 12.333 4.5 15l6 20c61.333 -9.33301 122 -24.166 182 -44.499s116.667 -47.166 170 -80.499l156 139l19 -30c3.33301 -5.33301 5 -10.666 5 -15.999c0 -7.33301 -4.66699 -15.333 -14 -24l-116 -102c43.333 -32 82.833 -68.833 118.5 -110.5
s66.667 -89.5 93 -143.5s46.666 -114.167 60.999 -180.5s21.5 -139.5 21.5 -219.5c0 -94 -9.83301 -179.333 -29.5 -256s-48.834 -142.5 -87.501 -197.5s-87.5 -97.333 -146.5 -127s-127.5 -44.5 -205.5 -44.5c-62 0 -120.167 11 -174.5 33s-101.833 53.667 -142.5 95
s-72.667 91.5 -96 150.5s-35 125.5 -35 199.5zM188.004 465.995c0 -63.333 9.5 -120.002 28.5 -170.002s44.667 -92 77 -126s69.833 -60 112.5 -78s87.667 -27 135 -27c60 0 112.833 11.667 158.5 35s84.167 57 115.5 101s55.5 97.833 72.5 161.5s26.5 135.167 28.5 214.5
c-10 34.667 -25 69.334 -45 104.001s-45 65.667 -75 93s-65.167 49.5 -105.5 66.5s-86.5 25.5 -138.5 25.5c-60 0 -112.667 -10.167 -158 -30.5s-83.333 -48.666 -114 -84.999s-53.667 -78.833 -69 -127.5s-23 -101 -23 -157z" />
    <glyph glyph-name="ntilde" unicode="&#xf1;" horiz-adv-x="1107" 
d="M166 0l-0.00195312 1019h53c18 0 28.333 -8.66699 31 -26l9 -153c46.667 58.667 100.834 105.834 162.501 141.501s130.5 53.5 206.5 53.5c56 0 105.333 -8.83301 148 -26.5s78 -43.167 106 -76.5s49.167 -73.666 63.5 -120.999s21.5 -100.666 21.5 -159.999v-651h-98
v651c0 95.333 -21.833 170.166 -65.5 224.499s-110.5 81.5 -200.5 81.5c-66.667 0 -128.667 -17.167 -186 -51.5s-108.666 -81.5 -153.999 -141.5v-764h-97zM301.998 1243c0 24.667 3.33203 47.833 9.99902 69.5s16.5 40.334 29.5 56.001s28.833 27.834 47.5 36.501
s39.334 13 62.001 13c23.333 0 45.166 -5.66699 65.499 -17s39.5 -23.5 57.5 -36.5s35.667 -25.167 53 -36.5s35 -17 53 -17c29.333 0 51.5 9.33301 66.5 28s22.833 44 23.5 76h60c0 -24.667 -3.16699 -47.667 -9.5 -69s-15.833 -39.833 -28.5 -55.5s-28.167 -28 -46.5 -37
s-39.166 -13.5 -62.499 -13.5c-22.667 0 -44 5.66699 -64 17s-39.333 23.666 -58 36.999l-54 37c-17.333 11.333 -35 17 -53 17c-28.667 0 -50.5 -9.83301 -65.5 -29.5s-23.167 -44.834 -24.5 -75.501h-62z" />
    <glyph glyph-name="ograve" unicode="&#xf2;" horiz-adv-x="1107" 
d="M89 510c0 80 10.5 152.167 31.5 216.5s51.333 119.5 91 165.5s88.334 81.333 146.001 106s123.167 37 196.5 37s138.833 -12.333 196.5 -37s106.167 -60 145.5 -106s69.5 -101.167 90.5 -165.5s31.5 -136.5 31.5 -216.5s-10.5 -152 -31.5 -216s-51.167 -119 -90.5 -165
s-87.833 -81.167 -145.5 -105.5s-123.167 -36.5 -196.5 -36.5s-138.833 12.167 -196.5 36.5s-106.334 59.5 -146.001 105.5s-70 101 -91 165s-31.5 136 -31.5 216zM189 510c0 -68 7.83301 -129.5 23.5 -184.5s38.667 -102 69 -141s68.166 -69 113.499 -90
s98.333 -31.5 159 -31.5s113.667 10.5 159 31.5s83.166 51 113.499 90s53.166 86 68.499 141s23 116.5 23 184.5c0 67.333 -7.66699 128.666 -23 183.999s-38.166 102.666 -68.499 141.999s-68.166 69.5 -113.499 90.5s-98.333 31.5 -159 31.5s-113.667 -10.5 -159 -31.5
s-83.166 -51.167 -113.499 -90.5s-53.333 -86.666 -69 -141.999s-23.5 -116.666 -23.5 -183.999zM344 1465h94c16.667 0 29 -2.33301 37 -7s16 -13 24 -25l160 -244h-55c-8 0 -15 1.16699 -21 3.5s-11.667 6.83301 -17 13.5z" />
    <glyph glyph-name="oacute" unicode="&#xf3;" horiz-adv-x="1107" 
d="M89 510c0 80 10.5 152.167 31.5 216.5s51.333 119.5 91 165.5s88.334 81.333 146.001 106s123.167 37 196.5 37s138.833 -12.333 196.5 -37s106.167 -60 145.5 -106s69.5 -101.167 90.5 -165.5s31.5 -136.5 31.5 -216.5s-10.5 -152 -31.5 -216s-51.167 -119 -90.5 -165
s-87.833 -81.167 -145.5 -105.5s-123.167 -36.5 -196.5 -36.5s-138.833 12.167 -196.5 36.5s-106.334 59.5 -146.001 105.5s-70 101 -91 165s-31.5 136 -31.5 216zM189 510c0 -68 7.83301 -129.5 23.5 -184.5s38.667 -102 69 -141s68.166 -69 113.499 -90
s98.333 -31.5 159 -31.5s113.667 10.5 159 31.5s83.166 51 113.499 90s53.166 86 68.499 141s23 116.5 23 184.5c0 67.333 -7.66699 128.666 -23 183.999s-38.166 102.666 -68.499 141.999s-68.166 69.5 -113.499 90.5s-98.333 31.5 -159 31.5s-113.667 -10.5 -159 -31.5
s-83.166 -51.167 -113.499 -90.5s-53.333 -86.666 -69 -141.999s-23.5 -116.666 -23.5 -183.999zM468 1189l161.002 244c7.33301 12 15.166 20.333 23.499 25s20.5 7 36.5 7h96l-221 -259c-5.33301 -6.66699 -10.833 -11.167 -16.5 -13.5s-12.834 -3.5 -21.501 -3.5h-58z
" />
    <glyph glyph-name="ocircumflex" unicode="&#xf4;" horiz-adv-x="1107" 
d="M89 510c0 80 10.5 152.167 31.5 216.5s51.333 119.5 91 165.5s88.334 81.333 146.001 106s123.167 37 196.5 37s138.833 -12.333 196.5 -37s106.167 -60 145.5 -106s69.5 -101.167 90.5 -165.5s31.5 -136.5 31.5 -216.5s-10.5 -152 -31.5 -216s-51.167 -119 -90.5 -165
s-87.833 -81.167 -145.5 -105.5s-123.167 -36.5 -196.5 -36.5s-138.833 12.167 -196.5 36.5s-106.334 59.5 -146.001 105.5s-70 101 -91 165s-31.5 136 -31.5 216zM189 510c0 -68 7.83301 -129.5 23.5 -184.5s38.667 -102 69 -141s68.166 -69 113.499 -90
s98.333 -31.5 159 -31.5s113.667 10.5 159 31.5s83.166 51 113.499 90s53.166 86 68.499 141s23 116.5 23 184.5c0 67.333 -7.66699 128.666 -23 183.999s-38.166 102.666 -68.499 141.999s-68.166 69.5 -113.499 90.5s-98.333 31.5 -159 31.5s-113.667 -10.5 -159 -31.5
s-83.166 -51.167 -113.499 -90.5s-53.333 -86.666 -69 -141.999s-23.5 -116.666 -23.5 -183.999zM289 1197l223 251.999h87l222 -252h-66c-10.667 0 -20 4 -28 12l-160 167c-4 2.66699 -7.66699 6.66699 -11 12c-1.33301 -2.66699 -3 -5 -5 -7l-5 -5l-161 -167
c-3.33301 -3.33301 -7.33301 -6.16602 -12 -8.49902s-10 -3.5 -16 -3.5h-68z" />
    <glyph glyph-name="otilde" unicode="&#xf5;" horiz-adv-x="1107" 
d="M89 510c0 80 10.5 152.167 31.5 216.5s51.333 119.5 91 165.5s88.334 81.333 146.001 106s123.167 37 196.5 37s138.833 -12.333 196.5 -37s106.167 -60 145.5 -106s69.5 -101.167 90.5 -165.5s31.5 -136.5 31.5 -216.5s-10.5 -152 -31.5 -216s-51.167 -119 -90.5 -165
s-87.833 -81.167 -145.5 -105.5s-123.167 -36.5 -196.5 -36.5s-138.833 12.167 -196.5 36.5s-106.334 59.5 -146.001 105.5s-70 101 -91 165s-31.5 136 -31.5 216zM189 510c0 -68 7.83301 -129.5 23.5 -184.5s38.667 -102 69 -141s68.166 -69 113.499 -90
s98.333 -31.5 159 -31.5s113.667 10.5 159 31.5s83.166 51 113.499 90s53.166 86 68.499 141s23 116.5 23 184.5c0 67.333 -7.66699 128.666 -23 183.999s-38.166 102.666 -68.499 141.999s-68.166 69.5 -113.499 90.5s-98.333 31.5 -159 31.5s-113.667 -10.5 -159 -31.5
s-83.166 -51.167 -113.499 -90.5s-53.333 -86.666 -69 -141.999s-23.5 -116.666 -23.5 -183.999zM295 1243c0 24.667 3.33203 47.833 9.99902 69.5s16.5 40.334 29.5 56.001s28.833 27.834 47.5 36.501s39.334 13 62.001 13c23.333 0 45.166 -5.66699 65.499 -17
s39.5 -23.5 57.5 -36.5s35.667 -25.167 53 -36.5s35 -17 53 -17c29.333 0 51.5 9.33301 66.5 28s22.833 44 23.5 76h60c0 -24.667 -3.16699 -47.667 -9.5 -69s-15.833 -39.833 -28.5 -55.5s-28.167 -28 -46.5 -37s-39.166 -13.5 -62.499 -13.5c-22.667 0 -44 5.66699 -64 17
s-39.333 23.666 -58 36.999l-54 37c-17.333 11.333 -35 17 -53 17c-28.667 0 -50.5 -9.83301 -65.5 -29.5s-23.167 -44.834 -24.5 -75.501h-62z" />
    <glyph glyph-name="odieresis" unicode="&#xf6;" horiz-adv-x="1107" 
d="M89 510c0 80 10.5 152.167 31.5 216.5s51.333 119.5 91 165.5s88.334 81.333 146.001 106s123.167 37 196.5 37s138.833 -12.333 196.5 -37s106.167 -60 145.5 -106s69.5 -101.167 90.5 -165.5s31.5 -136.5 31.5 -216.5s-10.5 -152 -31.5 -216s-51.167 -119 -90.5 -165
s-87.833 -81.167 -145.5 -105.5s-123.167 -36.5 -196.5 -36.5s-138.833 12.167 -196.5 36.5s-106.334 59.5 -146.001 105.5s-70 101 -91 165s-31.5 136 -31.5 216zM189 510c0 -68 7.83301 -129.5 23.5 -184.5s38.667 -102 69 -141s68.166 -69 113.499 -90
s98.333 -31.5 159 -31.5s113.667 10.5 159 31.5s83.166 51 113.499 90s53.166 86 68.499 141s23 116.5 23 184.5c0 67.333 -7.66699 128.666 -23 183.999s-38.166 102.666 -68.499 141.999s-68.166 69.5 -113.499 90.5s-98.333 31.5 -159 31.5s-113.667 -10.5 -159 -31.5
s-83.166 -51.167 -113.499 -90.5s-53.333 -86.666 -69 -141.999s-23.5 -116.666 -23.5 -183.999zM296 1315c0 11.333 2.16699 22.165 6.5 32.498s10.5 19.333 18.5 27s16.833 13.834 26.5 18.501s20.167 7 31.5 7c10.667 0 21.334 -2.33301 32.001 -7
s19.834 -10.834 27.501 -18.501s13.834 -16.667 18.501 -27s7 -21.166 7 -32.499c0 -10.667 -2.33301 -21 -7 -31s-10.834 -18.833 -18.501 -26.5s-16.834 -13.667 -27.501 -18s-21.334 -6.5 -32.001 -6.5s-21 2.16699 -31 6.5s-19 10.333 -27 18
s-14.167 16.334 -18.5 26.001s-6.5 20.167 -6.5 31.5zM646 1315c0 11.333 2.16699 22.165 6.5 32.498s10.5 19.333 18.5 27s17 13.834 27 18.501s20.667 7 32 7c10.667 0 21.334 -2.33301 32.001 -7s19.834 -10.834 27.501 -18.501s13.834 -16.667 18.501 -27
s7 -21.166 7 -32.499c0 -10.667 -2.33301 -21 -7 -31s-10.834 -18.833 -18.501 -26.5s-16.834 -13.667 -27.501 -18s-21.334 -6.5 -32.001 -6.5c-11.333 0 -22 2.16699 -32 6.5s-19 10.333 -27 18s-14.167 16.334 -18.5 26.001s-6.5 20.167 -6.5 31.5z" />
    <glyph glyph-name="divide" unicode="&#xf7;" 
d="M112 649v75h961v-75h-961zM498 321c0 26.667 9 49.332 27 67.999s40.333 28 67 28c12.667 0 24.834 -2.66699 36.501 -8s21.834 -12.166 30.501 -20.499s15.5 -18.5 20.5 -30.5s7.5 -24.333 7.5 -37c0 -13.333 -2.5 -25.833 -7.5 -37.5s-11.833 -21.667 -20.5 -30
s-18.834 -15 -30.501 -20s-23.834 -7.5 -36.501 -7.5c-26.667 0 -49 9.16699 -67 27.5s-27 40.833 -27 67.5zM498 1050c0 26.667 9 49.332 27 67.999s40.333 28 67 28c12.667 0 24.834 -2.66699 36.501 -8s21.834 -12.166 30.501 -20.499s15.5 -18.5 20.5 -30.5
s7.5 -24.333 7.5 -37c0 -13.333 -2.5 -25.833 -7.5 -37.5s-11.833 -21.667 -20.5 -30s-18.834 -15 -30.501 -20s-23.834 -7.5 -36.501 -7.5c-26.667 0 -49 9.16699 -67 27.5s-27 40.833 -27 67.5z" />
    <glyph glyph-name="oslash" unicode="&#xf8;" horiz-adv-x="1107" 
d="M89 510c0 80 10.5 152.168 31.5 216.501s51.333 119.5 91 165.5s88.334 81.333 146.001 106s123.167 37 196.5 37c60 0 114.5 -8.33301 163.5 -25s92.167 -40.334 129.5 -71.001l89 119c7.33301 10 14.333 17.333 21 22s16.334 7 29.001 7h51l-144 -193
c40.667 -46 71.667 -101.333 93 -166s32 -137.334 32 -218.001c0 -80 -10.5 -152 -31.5 -216s-51.167 -119 -90.5 -165s-87.833 -81.167 -145.5 -105.5s-123.167 -36.5 -196.5 -36.5c-110 0 -201.667 27 -275 81l-83 -112c-8.66699 -11.333 -18.834 -19.666 -30.501 -24.999
s-23.167 -8 -34.5 -8h-39l138 186c-46.667 46 -81.834 102.667 -105.501 170s-35.5 144.333 -35.5 231zM184 510.001c0 -70.667 7.99902 -134 23.999 -190s40.667 -103.667 74 -143l516 695c-30.667 28.667 -66.167 50.667 -106.5 66s-86.166 23 -137.499 23
c-60.667 0 -114 -10.833 -160 -32.5s-84.667 -52.167 -116 -91.5s-54.833 -86.833 -70.5 -142.5s-23.5 -117.167 -23.5 -184.5zM326.999 132.001c59.333 -47.333 135 -71 227 -71c60.667 0 114 10.667 160 32s84.5 51.5 115.5 90.5s54.333 86.167 70 141.5
s23.5 117 23.5 185c0 130.667 -27.333 235 -82 313z" />
    <glyph glyph-name="ugrave" unicode="&#xf9;" horiz-adv-x="1107" 
d="M140 368v651.002h99v-651c0 -95.333 21.833 -170.333 65.5 -225s110.167 -82 199.5 -82c66 0 127.667 17 185 51s109 81 155 141v766h98v-1019h-54c-19.333 0 -29.333 9 -30 27l-9 151c-47.333 -58.667 -101.833 -105.667 -163.5 -141s-130.5 -53 -206.5 -53
c-56.667 0 -106.167 8.83301 -148.5 26.5s-77.5 43.167 -105.5 76.5s-49.167 73.666 -63.5 120.999s-21.5 100.666 -21.5 159.999zM337 1465h94c16.667 0 29 -2.33301 37 -7s16 -13 24 -25l160 -244h-55c-8 0 -15 1.16699 -21 3.5s-11.667 6.83301 -17 13.5z" />
    <glyph glyph-name="uacute" unicode="&#xfa;" horiz-adv-x="1107" 
d="M140 368v651.002h99v-651c0 -95.333 21.833 -170.333 65.5 -225s110.167 -82 199.5 -82c66 0 127.667 17 185 51s109 81 155 141v766h98v-1019h-54c-19.333 0 -29.333 9 -30 27l-9 151c-47.333 -58.667 -101.833 -105.667 -163.5 -141s-130.5 -53 -206.5 -53
c-56.667 0 -106.167 8.83301 -148.5 26.5s-77.5 43.167 -105.5 76.5s-49.167 73.666 -63.5 120.999s-21.5 100.666 -21.5 159.999zM461 1189l161.002 244c7.33301 12 15.166 20.333 23.499 25s20.5 7 36.5 7h96l-221 -259c-5.33301 -6.66699 -10.833 -11.167 -16.5 -13.5
s-12.834 -3.5 -21.501 -3.5h-58z" />
    <glyph glyph-name="ucircumflex" unicode="&#xfb;" horiz-adv-x="1107" 
d="M140 368v651.002h99v-651c0 -95.333 21.833 -170.333 65.5 -225s110.167 -82 199.5 -82c66 0 127.667 17 185 51s109 81 155 141v766h98v-1019h-54c-19.333 0 -29.333 9 -30 27l-9 151c-47.333 -58.667 -101.833 -105.667 -163.5 -141s-130.5 -53 -206.5 -53
c-56.667 0 -106.167 8.83301 -148.5 26.5s-77.5 43.167 -105.5 76.5s-49.167 73.666 -63.5 120.999s-21.5 100.666 -21.5 159.999zM282 1197l223 251.999h87l222 -252h-66c-10.667 0 -20 4 -28 12l-160 167c-4 2.66699 -7.66699 6.66699 -11 12
c-1.33301 -2.66699 -3 -5 -5 -7l-5 -5l-161 -167c-3.33301 -3.33301 -7.33301 -6.16602 -12 -8.49902s-10 -3.5 -16 -3.5h-68z" />
    <glyph glyph-name="udieresis" unicode="&#xfc;" horiz-adv-x="1107" 
d="M140 368v651.002h99v-651c0 -95.333 21.833 -170.333 65.5 -225s110.167 -82 199.5 -82c66 0 127.667 17 185 51s109 81 155 141v766h98v-1019h-54c-19.333 0 -29.333 9 -30 27l-9 151c-47.333 -58.667 -101.833 -105.667 -163.5 -141s-130.5 -53 -206.5 -53
c-56.667 0 -106.167 8.83301 -148.5 26.5s-77.5 43.167 -105.5 76.5s-49.167 73.666 -63.5 120.999s-21.5 100.666 -21.5 159.999zM289 1315c0 11.333 2.16699 22.165 6.5 32.498s10.5 19.333 18.5 27s16.833 13.834 26.5 18.501s20.167 7 31.5 7
c10.667 0 21.334 -2.33301 32.001 -7s19.834 -10.834 27.501 -18.501s13.834 -16.667 18.501 -27s7 -21.166 7 -32.499c0 -10.667 -2.33301 -21 -7 -31s-10.834 -18.833 -18.501 -26.5s-16.834 -13.667 -27.501 -18s-21.334 -6.5 -32.001 -6.5s-21 2.16699 -31 6.5
s-19 10.333 -27 18s-14.167 16.334 -18.5 26.001s-6.5 20.167 -6.5 31.5zM639 1315c0 11.333 2.16699 22.165 6.5 32.498s10.5 19.333 18.5 27s17 13.834 27 18.501s20.667 7 32 7c10.667 0 21.334 -2.33301 32.001 -7s19.834 -10.834 27.501 -18.501
s13.834 -16.667 18.501 -27s7 -21.166 7 -32.499c0 -10.667 -2.33301 -21 -7 -31s-10.834 -18.833 -18.501 -26.5s-16.834 -13.667 -27.501 -18s-21.334 -6.5 -32.001 -6.5c-11.333 0 -22 2.16699 -32 6.5s-19 10.333 -27 18s-14.167 16.334 -18.5 26.001
s-6.5 20.167 -6.5 31.5z" />
    <glyph glyph-name="yacute" unicode="&#xfd;" horiz-adv-x="997" 
d="M23 1019h80.002c10 0 18 -2.5 24 -7.5s10.333 -10.833 13 -17.5l343 -792c4 -10 7.66699 -20.333 11 -31s6.33301 -21.667 9 -33l10.5 32l11.5 32l339 792c3.33301 7.33301 8.16602 13.333 14.499 18s13.166 7 20.499 7h75l-586 -1347c-4 -9.33301 -9.33301 -17 -16 -23
s-16 -9 -28 -9h-70l180 398zM437.002 1189l161.002 244c7.33301 12 15.166 20.333 23.499 25s20.5 7 36.5 7h96l-221 -259c-5.33301 -6.66699 -10.833 -11.167 -16.5 -13.5s-12.834 -3.5 -21.501 -3.5h-58z" />
    <glyph glyph-name="thorn" unicode="&#xfe;" horiz-adv-x="1095" 
d="M166 -360l0.00195312 1850h97v-650c45.333 60 97.666 107.5 156.999 142.5s126.333 52.5 201 52.5c125.333 0 222.833 -43.167 292.5 -129.5s104.5 -216.166 104.5 -389.499c0 -74.667 -9.83301 -144.167 -29.5 -208.5s-48.167 -120.166 -85.5 -167.499
s-83.5 -84.666 -138.5 -111.999s-118.5 -41 -190.5 -41c-69.333 0 -129.333 13.333 -180 40s-94.334 65.667 -131.001 117v-504h-97zM263.002 222.997c38.667 -58.667 81.832 -100 129.499 -124s101.834 -36 162.501 -36c60 0 112.5 11 157.5 33s82.667 53 113 93
s53.333 87.833 69 143.5s23.5 116.834 23.5 183.501c0 151.333 -27.833 262.666 -83.5 333.999s-136.167 107 -241.5 107c-67.333 0 -128.5 -17.5 -183.5 -52.5s-103.833 -83.833 -146.5 -146.5v-535z" />
    <glyph glyph-name="ydieresis" unicode="&#xff;" horiz-adv-x="997" 
d="M23 1019h80.002c10 0 18 -2.5 24 -7.5s10.333 -10.833 13 -17.5l343 -792c4 -10 7.66699 -20.333 11 -31s6.33301 -21.667 9 -33l10.5 32l11.5 32l339 792c3.33301 7.33301 8.16602 13.333 14.499 18s13.166 7 20.499 7h75l-586 -1347c-4 -9.33301 -9.33301 -17 -16 -23
s-16 -9 -28 -9h-70l180 398zM265.002 1315c0 11.333 2.16699 22.165 6.5 32.498s10.5 19.333 18.5 27s16.833 13.834 26.5 18.501s20.167 7 31.5 7c10.667 0 21.334 -2.33301 32.001 -7s19.834 -10.834 27.501 -18.501s13.834 -16.667 18.501 -27s7 -21.166 7 -32.499
c0 -10.667 -2.33301 -21 -7 -31s-10.834 -18.833 -18.501 -26.5s-16.834 -13.667 -27.501 -18s-21.334 -6.5 -32.001 -6.5s-21 2.16699 -31 6.5s-19 10.333 -27 18s-14.167 16.334 -18.5 26.001s-6.5 20.167 -6.5 31.5zM615.002 1315c0 11.333 2.16699 22.165 6.5 32.498
s10.5 19.333 18.5 27s17 13.834 27 18.501s20.667 7 32 7c10.667 0 21.334 -2.33301 32.001 -7s19.834 -10.834 27.501 -18.501s13.834 -16.667 18.501 -27s7 -21.166 7 -32.499c0 -10.667 -2.33301 -21 -7 -31s-10.834 -18.833 -18.501 -26.5s-16.834 -13.667 -27.501 -18
s-21.334 -6.5 -32.001 -6.5c-11.333 0 -22 2.16699 -32 6.5s-19 10.333 -27 18s-14.167 16.334 -18.5 26.001s-6.5 20.167 -6.5 31.5z" />
    <glyph glyph-name="Aogonek" unicode="&#x104;" horiz-adv-x="1319" 
d="M15 0l592.998 1449h105l593 -1449c-8 0 -20.667 -4.33301 -38 -13s-34.666 -21 -51.999 -37s-32.5 -35 -45.5 -57s-19.5 -46.333 -19.5 -73c0 -32.667 11 -58.167 33 -76.5s50 -27.5 84 -27.5c19.333 0 35.333 2 48 6s23.5 8 32.5 12s16 7.83301 21 11.5
s9.16699 5.5 12.5 5.5c6.66699 0 11.334 -2.66699 14.001 -8l16 -35c-19.333 -16.667 -43.333 -29.834 -72 -39.501s-59 -14.5 -91 -14.5c-52 0 -94 12.833 -126 38.5s-48 60.834 -48 105.501c0 21.333 4 41.666 12 60.999s18.667 37.666 32 54.999s28.333 33.166 45 47.499
s33.667 27.166 51 38.499c-13.333 2.66699 -22.666 12 -27.999 28l-171 421h-712l-170 -421c-2.66699 -7.33301 -7.33398 -13.833 -14.001 -19.5s-15 -8.5 -25 -8.5h-80zM335.998 526.004l649.003 0.00195312l-296 732c-4.66699 11.333 -9.33398 24.5 -14.001 39.5l-15 47.5
c-4.66699 -16.667 -9.33398 -32.334 -14.001 -47.001s-9.33398 -28.334 -14.001 -41.001z" />
    <glyph glyph-name="aogonek" unicode="&#x105;" horiz-adv-x="996" 
d="M110 247c0 43.333 12.167 83.333 36.5 120s62.666 68.667 114.999 96s119.666 49.166 201.999 65.499s181.166 25.833 296.499 28.5v107c0 94 -20.333 166.333 -61 217s-101 76 -181 76c-49.333 0 -91.166 -6.83301 -125.499 -20.5s-63.5 -28.667 -87.5 -45
s-43.5 -31.333 -58.5 -45s-27.5 -20.5 -37.5 -20.5c-7.33301 0 -13.5 1.83301 -18.5 5.5s-9.16699 8.16699 -12.5 13.5l-17 29c53.333 53.333 109.333 93.666 168 120.999s125 41 199 41c54.667 0 102.5 -8.66699 143.5 -26s75 -42.166 102 -74.499s47.333 -71.5 61 -117.5
s20.5 -97.333 20.5 -154v-664c-13.333 -7.33301 -28 -16.833 -44 -28.5s-30.833 -25.167 -44.5 -40.5s-25 -32.333 -34 -51s-13.5 -38.667 -13.5 -60c0 -32.667 10.833 -58.167 32.5 -76.5s49.834 -27.5 84.501 -27.5c19.333 0 35.333 2 48 6s23.5 8 32.5 12
s16 7.83301 21 11.5s9.16699 5.5 12.5 5.5c6.66699 0 11.334 -2.66699 14.001 -8l16 -35c-19.333 -16.667 -43.333 -29.834 -72 -39.501s-59 -14.5 -91 -14.5c-52 0 -94 12.833 -126 38.5s-48 60.834 -48 105.501c0 22 4.33301 43 13 63s20 38.833 34 56.5
s29.833 33.834 47.5 48.501s35.834 27.667 54.501 39c-6.66699 6 -11.334 14 -14.001 24l-14 130c-28 -27.333 -55.833 -52 -83.5 -74s-56.5 -40.5 -86.5 -55.5s-62.5 -26.333 -97.5 -34s-73.167 -11.5 -114.5 -11.5c-34.667 0 -68.5 5 -101.5 15s-62 25.667 -87 47
s-45.167 48.5 -60.5 81.5s-23 72.833 -23 119.5zM204 251c0 -34 5.66504 -63.5 16.998 -88.5s26.166 -45.5 44.499 -61.5s39.833 -27.833 64.5 -35.5s50.334 -11.5 77.001 -11.5c39.333 0 75.5 4.33301 108.5 13s63.667 20.667 92 36s54.833 33.5 79.5 54.5
s49 43.833 73 68.5v266c-96.667 -2.66699 -180.167 -10 -250.5 -22s-128.166 -28.333 -173.499 -49s-78.666 -45.167 -99.999 -73.5s-32 -60.5 -32 -96.5z" />
    <glyph glyph-name="Cacute" unicode="&#x106;" horiz-adv-x="1440" 
d="M127 725c0 110 17.1641 210.329 51.4971 300.996s82.833 168.667 145.5 234s137.5 115.833 224.5 151.5s183.167 53.5 288.5 53.5c52.667 0 100.834 -3.83301 144.501 -11.5s84.334 -18.834 122.001 -33.501s73.334 -33 107.001 -55s66.5 -47.333 98.5 -76l-32 -46
c-5.33301 -8 -14 -12 -26 -12c-6 0 -13.833 3.5 -23.5 10.5l-36.5 26.5c-14.667 10.667 -32.334 22.334 -53.001 35.001s-45.334 24.334 -74.001 35.001s-61.834 19.5 -99.501 26.5s-80.167 10.5 -127.5 10.5c-88 0 -169 -15.167 -243 -45.5s-137.5 -73.666 -190.5 -129.999
s-94.5 -124.666 -124.5 -204.999s-45 -170.166 -45 -269.499c0 -102.667 14.833 -194.167 44.5 -274.5s70.334 -148.333 122.001 -204s112.834 -98.334 183.501 -128.001s147.334 -44.5 230.001 -44.5c52 0 98.333 3.33301 139 10s78 16.834 112 30.501s65.667 30.5 95 50.5
s58.333 43 87 69c3.33301 2.66699 6.66602 5 9.99902 7s7 3 11 3c6.66699 0 12.334 -2.33301 17.001 -7l41 -44c-30 -32 -62.667 -60.833 -98 -86.5s-74 -47.667 -116 -66s-88.167 -32.333 -138.5 -42s-105.5 -14.5 -165.5 -14.5c-100.667 0 -192.667 17.5 -276 52.5
s-155 84.833 -215 149.5s-106.667 142.667 -140 234s-50 193 -50 305zM724.997 1579l233.001 211.001c9.33301 8.66699 18.166 14.5 26.499 17.5s20.5 4.5 36.5 4.5h115l-299 -221c-6.66699 -4.66699 -13 -7.83398 -19 -9.50098s-13 -2.5 -21 -2.5h-72z" />
    <glyph glyph-name="cacute" unicode="&#x107;" horiz-adv-x="931" 
d="M90 510c0 78 10.333 148.999 31 212.999s50.5 119.167 89.5 165.5s87 82.333 144 108s122.5 38.5 196.5 38.5c66 0 124.833 -10.5 176.5 -31.5s96.5 -49.5 134.5 -85.5l-25 -35c-3.33301 -3.33301 -6.66602 -6.33301 -9.99902 -9s-7.66602 -4 -12.999 -4
c-6.66699 0 -16 4.66699 -28 14s-27.833 19.5 -47.5 30.5s-44.334 21 -74.001 30s-65.834 13.5 -108.501 13.5c-58.667 0 -110.667 -10.333 -156 -31s-83.5 -50.5 -114.5 -89.5s-54.833 -86.167 -71.5 -141.5s-25 -117.333 -25 -186c0 -72 8.5 -135.5 25.5 -190.5
s40.833 -101.5 71.5 -139.5s67.834 -67 111.501 -87s92.167 -30 145.5 -30c49.333 0 90.5 5.83301 123.5 17.5s60.167 24.334 81.5 38.001s38.333 26.334 51 38.001s22.667 17.5 30 17.5c8.66699 0 15.667 -3.33301 21 -10l27 -33c-16 -20.667 -36 -39.834 -60 -57.501
s-51 -33 -81 -46s-62.5 -23 -97.5 -30s-71.833 -10.5 -110.5 -10.5c-64.667 0 -123.834 11.667 -177.501 35s-99.667 57.333 -138 102s-68.333 99.5 -90 164.5s-32.5 138.833 -32.5 221.5zM466 1189l161.002 244c7.33301 12 15.166 20.333 23.499 25s20.5 7 36.5 7h96
l-221 -259c-5.33301 -6.66699 -10.833 -11.167 -16.5 -13.5s-12.834 -3.5 -21.501 -3.5h-58z" />
    <glyph glyph-name="Eogonek" unicode="&#x118;" horiz-adv-x="1253" 
d="M215 0v1449h868v-87h-762v-586h634v-85h-634v-604h762v-87h-93c-13.333 -7.33301 -27.833 -16.833 -43.5 -28.5s-30.334 -25.167 -44.001 -40.5s-25.167 -32.333 -34.5 -51s-14 -38.667 -14 -60c0 -32.667 11 -58.167 33 -76.5s50 -27.5 84 -27.5c19.333 0 35.333 2 48 6
s23.5 8 32.5 12s16 7.83301 21 11.5s9.16699 5.5 12.5 5.5c6.66699 0 11.334 -2.66699 14.001 -8l16 -35c-19.333 -16.667 -43.333 -29.834 -72 -39.501s-59 -14.5 -91 -14.5c-52 0 -94 12.833 -126 38.5s-48 60.834 -48 105.501c0 21.333 4 41.5 12 60.5
s18.5 37.167 31.5 54.5s27.833 33.333 44.5 48s34 27.667 52 39h-703z" />
    <glyph glyph-name="eogonek" unicode="&#x119;" horiz-adv-x="1046" 
d="M90 530c0 73.333 10.5 140.833 31.5 202.5s51 114.834 90 159.501s87 79.667 144 105s121.833 38 194.5 38c57.333 0 110.333 -9.83301 159 -29.5s91 -48.5 127 -86.5s64 -84.667 84 -140s30 -118.666 30 -189.999c0 -15.333 -2.16699 -25.666 -6.5 -30.999
s-11.166 -8 -20.499 -8h-737v-20c0 -76.667 9 -143.834 27 -201.501s43.333 -106.167 76 -145.5s72.167 -68.833 118.5 -88.5s98.166 -29.5 155.499 -29.5c51.333 0 95.833 5.5 133.5 16.5s69.167 23.5 94.5 37.5s45.5 26.667 60.5 38s26.167 17 33.5 17
c8.66699 0 15.334 -3.33301 20.001 -10l27 -33c-12.667 -16 -28.5 -31 -47.5 -45s-40.333 -26.833 -64 -38.5s-49.167 -21.834 -76.5 -30.501s-55.333 -15.334 -84 -20.001c-13.333 -8 -27.5 -17.833 -42.5 -29.5s-29 -25 -42 -40s-23.667 -31.667 -32 -50
s-12.5 -37.5 -12.5 -57.5c0 -32.667 11 -58.167 33 -76.5s50 -27.5 84 -27.5c19.333 0 35.5 2 48.5 6s23.833 8 32.5 12s15.667 7.83301 21 11.5s9.66602 5.5 12.999 5.5c6.66699 0 11 -2.66699 13 -8l17 -35c-19.333 -16.667 -43.333 -29.834 -72 -39.501
s-59 -14.5 -91 -14.5c-52 0 -94 12.833 -126 38.5s-48 60.834 -48 105.501c0 19.333 3.16699 37.833 9.5 55.5s15.166 34.5 26.499 50.5s24.333 31 39 45s30 27 46 39c-3.33301 0 -6.83301 -0.166992 -10.5 -0.5s-7.16699 -0.5 -10.5 -0.5
c-69.333 0 -132.666 12 -189.999 36s-106.5 59.333 -147.5 106s-72.667 103.5 -95 170.5s-33.5 143.833 -33.5 230.5zM190 612l672.002 0.000976562c0 54.667 -7.5 103.667 -22.5 147s-36.167 80 -63.5 110s-60 53.167 -98 69.5s-80.333 24.5 -127 24.5
c-52.667 0 -99.834 -8.33301 -141.501 -25s-77.667 -40.334 -108 -71.001s-54.833 -67.5 -73.5 -110.5s-31.334 -91.167 -38.001 -144.5z" />
    <glyph glyph-name="dotlessi" unicode="&#x131;" horiz-adv-x="486" 
d="M195 0v1019h97v-1019h-97z" />
    <glyph glyph-name="Lslash" unicode="&#x141;" horiz-adv-x="1091" 
d="M59 498v67c0 12.667 6.33301 22.667 19 30l181 95v759h105v-710l427 223v-65c0 -7.33301 -1.5 -13.5 -4.5 -18.5s-8.16699 -9.5 -15.5 -13.5l-407 -217v-559h687v-89h-792v601z" />
    <glyph glyph-name="lslash" unicode="&#x142;" horiz-adv-x="614" 
d="M58 676v52.998c0 14.667 6.33301 24.667 19 30l181 86v645h97v-607l201 91v-51c0 -7.33301 -1.33301 -13.666 -4 -18.999s-7.66699 -9.66602 -15 -12.999l-182 -86v-805h-97v768z" />
    <glyph glyph-name="Nacute" unicode="&#x143;" horiz-adv-x="1548" 
d="M215 0v1449h51c9.33301 0 16.833 -1.16699 22.5 -3.5s11.5 -7.5 17.5 -15.5l938 -1256c-2 20.667 -3 40.334 -3 59.001v1216h92v-1449h-50c-16 0 -28.667 6.66699 -38 20l-942 1258c2 -20.667 3 -40 3 -58v-1220h-91zM696 1579l233.001 211.001
c9.33301 8.66699 18.166 14.5 26.499 17.5s20.5 4.5 36.5 4.5h115l-299 -221c-6.66699 -4.66699 -13 -7.83398 -19 -9.50098s-13 -2.5 -21 -2.5h-72z" />
    <glyph glyph-name="nacute" unicode="&#x144;" horiz-adv-x="1107" 
d="M166 0l-0.00195312 1019h53c18 0 28.333 -8.66699 31 -26l9 -153c46.667 58.667 100.834 105.834 162.501 141.501s130.5 53.5 206.5 53.5c56 0 105.333 -8.83301 148 -26.5s78 -43.167 106 -76.5s49.167 -73.666 63.5 -120.999s21.5 -100.666 21.5 -159.999v-651h-98
v651c0 95.333 -21.833 170.166 -65.5 224.499s-110.5 81.5 -200.5 81.5c-66.667 0 -128.667 -17.167 -186 -51.5s-108.666 -81.5 -153.999 -141.5v-764h-97zM476.998 1189l161.002 244c7.33301 12 15.166 20.333 23.499 25s20.5 7 36.5 7h96l-221 -259
c-5.33301 -6.66699 -10.833 -11.167 -16.5 -13.5s-12.834 -3.5 -21.501 -3.5h-58z" />
    <glyph glyph-name="OE" unicode="&#x152;" horiz-adv-x="2280" 
d="M126 725c0 111.333 15.167 212.498 45.5 303.498s72.833 168.833 127.5 233.5s120 114.667 196 150s160.333 53 253 53c63.333 0 122.833 -8.16699 178.5 -24.5s106.667 -39.833 153 -70.5s87.666 -68 123.999 -112s67.166 -94 92.499 -150v341h857v-87h-762v-586h634
v-85h-634v-604h762v-87h-857v342c-25.333 -56 -56.166 -106 -92.499 -150s-77.666 -81.167 -123.999 -111.5s-97.333 -53.5 -153 -69.5s-115.167 -24 -178.5 -24c-92 0 -176.167 17.333 -252.5 52s-141.833 84.334 -196.5 149.001s-97.167 142.334 -127.5 233.001
s-45.5 192 -45.5 304zM233 724.998c0 -102 12.833 -193.167 38.5 -273.5s61.667 -148.333 108 -204s101.833 -98.334 166.5 -128.001s136 -44.5 214 -44.5c78.667 0 150.167 14.833 214.5 44.5s119.5 72.334 165.5 128.001s81.667 123.667 107 204s38 171.5 38 273.5
c0 101.333 -12.667 192.166 -38 272.499s-61 148.666 -107 204.999s-101.167 99.5 -165.5 129.5s-135.833 45 -214.5 45c-78 0 -149.333 -15 -214 -45s-120.167 -73.167 -166.5 -129.5s-82.333 -124.666 -108 -204.999s-38.5 -171.166 -38.5 -272.499z" />
    <glyph glyph-name="oe" unicode="&#x153;" horiz-adv-x="1758" 
d="M89 510c0 80 9.83496 152.168 29.502 216.501s48.167 119.5 85.5 165.5s83 81.333 137 106s114.667 37 182 37c98 0 180.167 -26.167 246.5 -78.5s113.833 -124.833 142.5 -217.5c13.333 45.333 32 86 56 122s52 67 84 93s68.333 46 109 60s85.667 21 135 21
c51.333 0 99.333 -10.167 144 -30.5s83.5 -50.166 116.5 -89.499s58.833 -88 77.5 -146s28 -125 28 -201c0 -15.333 -1.83301 -25.666 -5.5 -30.999s-10.5 -8 -20.5 -8h-675c0 -76.667 8.16699 -143.834 24.5 -201.501s39.666 -106 69.999 -145s66.666 -68.333 108.999 -88
s89.5 -29.5 141.5 -29.5c46 0 85.833 5.5 119.5 16.5s62.167 23.5 85.5 37.5s42 26.667 56 38s24.667 17 32 17c8 0 14.667 -3.33301 20 -10l27 -33c-16 -20.667 -36.667 -39.834 -62 -57.501s-53.333 -32.834 -84 -45.501s-63.167 -22.667 -97.5 -30s-69.5 -11 -105.5 -11
c-92 0 -171 25.333 -237 76s-114.333 126 -145 226c-28.667 -94.667 -76.334 -168.667 -143.001 -222s-150.667 -80 -252 -80c-66.667 0 -126.667 12.167 -180 36.5s-98.666 59.5 -135.999 105.5s-65.833 101 -85.5 165s-29.5 136 -29.5 216zM189.002 510.001
c0 -68 7 -129.5 21 -184.5s35.167 -102 63.5 -141s63.666 -69 105.999 -90s91.833 -31.5 148.5 -31.5c56 0 105 10.5 147 31.5s77 51 105 90s49 86 63 141s21 116.5 21 184.5c0 67.333 -7 128.666 -21 183.999s-35 102.666 -63 141.999s-63 69.5 -105 90.5
s-91 31.5 -147 31.5c-56.667 0 -106.167 -10.5 -148.5 -31.5s-77.666 -51.167 -105.999 -90.5s-49.5 -86.666 -63.5 -141.999s-21 -116.666 -21 -183.999zM963.002 592.001h613c0 58 -6.83301 110 -20.5 156s-33 84.833 -58 116.5s-54.833 56 -89.5 73
s-72.667 25.5 -114 25.5c-49.333 0 -93.5 -9 -132.5 -27s-72.5 -43 -100.5 -75s-50.333 -70.833 -67 -116.5s-27 -96.5 -31 -152.5z" />
    <glyph glyph-name="Sacute" unicode="&#x15a;" horiz-adv-x="1107" 
d="M89 173l29.0059 45.001c8 10 17.333 15 28 15c6 0 13.833 -4 23.5 -12l35 -30c13.667 -12 30.167 -25 49.5 -39s41.5 -27 66.5 -39s54 -22 87 -30s70.167 -12 111.5 -12c57.333 0 108.5 8.66699 153.5 26s83.167 41 114.5 71s55.166 65.667 71.499 107
s24.5 85.666 24.5 132.999c0 51.333 -10.5 93.5 -31.5 126.5s-48.5 60.5 -82.5 82.5s-72.667 40.5 -116 55.5s-87.833 29.667 -133.5 44s-90.167 30.5 -133.5 48.5s-82.166 40.667 -116.499 68s-61.833 61.666 -82.5 102.999s-31 93.333 -31 156
c0 48.667 9.16699 95.334 27.5 140.001s45.166 84.334 80.499 119.001s79.166 62.334 131.499 83.001s111.833 31 178.5 31c75.333 0 142.833 -11.833 202.5 -35.5s114.167 -60.167 163.5 -109.5l-25 -47c-6 -11.333 -14.667 -17.333 -26 -18c-8.66699 0 -20 6.33301 -34 19
s-33 26.667 -57 42s-54 29.5 -90 42.5s-80.333 19.5 -133 19.5s-98.834 -7.5 -138.501 -22.5s-73 -35.5 -100 -61.5s-47.5 -56 -61.5 -90s-21 -69.667 -21 -107c0 -49.333 10.333 -90 31 -122s48.167 -59.333 82.5 -82s73.166 -41.667 116.499 -57l133.5 -45.5
c45.667 -15 90.167 -31.5 133.5 -49.5s82.166 -40.667 116.499 -68s61.833 -61 82.5 -101s31 -89.667 31 -149c0 -60.667 -10.333 -117.834 -31 -171.501s-50.834 -100.334 -90.501 -140.001s-88.167 -70.834 -145.5 -93.501s-123 -34 -197 -34
c-95.333 0 -177.5 16.833 -246.5 50.5s-129.5 79.834 -181.5 138.501zM462.006 1579l233.001 211.001c9.33301 8.66699 18.166 14.5 26.499 17.5s20.5 4.5 36.5 4.5h115l-299 -221c-6.66699 -4.66699 -13 -7.83398 -19 -9.50098s-13 -2.5 -21 -2.5h-72z" />
    <glyph glyph-name="sacute" unicode="&#x15b;" horiz-adv-x="880" 
d="M91 108l23.9951 34.002c3.33301 5.33301 7 9.5 11 12.5s9.66699 4.5 17 4.5c8.66699 0 19.667 -5.5 33 -16.5s30.333 -22.833 51 -35.5s46.5 -24.5 77.5 -35.5s69.5 -16.5 115.5 -16.5c43.333 0 81.333 6 114 18s59.834 28.333 81.501 49s38.167 44.834 49.5 72.501
s17 56.834 17 87.501c0 34 -8.16699 62.167 -24.5 84.5s-37.833 41.333 -64.5 57s-56.834 29 -90.501 40l-104.5 33c-36 11 -70.833 23 -104.5 36s-63.834 29.333 -90.501 49s-48.167 43.667 -64.5 72s-24.5 63.833 -24.5 106.5c0 36 7.83301 70.667 23.5 104
s38 62.666 67 87.999s64.333 45.5 106 60.5s88.5 22.5 140.5 22.5c62 0 117 -8.83301 165 -26.5s92.333 -44.834 133 -81.501l-22 -34c-4.66699 -9.33301 -12 -14 -22 -14c-7.33301 0 -17.166 4.16699 -29.499 12.5s-28.166 17.833 -47.499 28.5
s-43.166 20.334 -71.499 29.001s-62.833 13 -103.5 13c-36.667 0 -70.334 -5.33301 -101.001 -16s-56.667 -24.834 -78 -42.501s-38 -38.334 -50 -62.001s-18 -48.5 -18 -74.5c0 -32 8.16699 -58.667 24.5 -80s37.833 -39.5 64.5 -54.5s56.834 -27.833 90.501 -38.5
l104 -32.5c35.667 -11 70.334 -23.167 104.001 -36.5s63.834 -30 90.501 -50s48.167 -44.333 64.5 -73s24.5 -63.334 24.5 -104.001c0 -44.667 -8 -86 -24 -124s-39.167 -71 -69.5 -99s-67.666 -50.167 -111.999 -66.5s-94.833 -24.5 -151.5 -24.5
c-72 0 -133.833 11.333 -185.5 34s-98.167 52.667 -139.5 90zM404.995 1189l161.002 244c7.33301 12 15.166 20.333 23.499 25s20.5 7 36.5 7h96l-221 -259c-5.33301 -6.66699 -10.833 -11.167 -16.5 -13.5s-12.834 -3.5 -21.501 -3.5h-58z" />
    <glyph glyph-name="Scaron" unicode="&#x160;" horiz-adv-x="1070" 
d="M89 173l29.0059 45.001c8 10 17.333 15 28 15c6 0 13.833 -4 23.5 -12l35 -30c13.667 -12 30.167 -25 49.5 -39s41.5 -27 66.5 -39s54 -22 87 -30s70.167 -12 111.5 -12c57.333 0 108.5 8.66699 153.5 26s83.167 41 114.5 71s55.166 65.667 71.499 107
s24.5 85.666 24.5 132.999c0 51.333 -10.5 93.5 -31.5 126.5s-48.5 60.5 -82.5 82.5s-72.667 40.5 -116 55.5s-87.833 29.667 -133.5 44s-90.167 30.5 -133.5 48.5s-82.166 40.667 -116.499 68s-61.833 61.666 -82.5 102.999s-31 93.333 -31 156
c0 48.667 9.16699 95.334 27.5 140.001s45.166 84.334 80.499 119.001s79.166 62.334 131.499 83.001s111.833 31 178.5 31c75.333 0 142.833 -11.833 202.5 -35.5s114.167 -60.167 163.5 -109.5l-25 -47c-6 -11.333 -14.667 -17.333 -26 -18c-8.66699 0 -20 6.33301 -34 19
s-33 26.667 -57 42s-54 29.5 -90 42.5s-80.333 19.5 -133 19.5s-98.834 -7.5 -138.501 -22.5s-73 -35.5 -100 -61.5s-47.5 -56 -61.5 -90s-21 -69.667 -21 -107c0 -49.333 10.333 -90 31 -122s48.167 -59.333 82.5 -82s73.166 -41.667 116.499 -57l133.5 -45.5
c45.667 -15 90.167 -31.5 133.5 -49.5s82.166 -40.667 116.499 -68s61.833 -61 82.5 -101s31 -89.667 31 -149c0 -60.667 -10.333 -117.834 -31 -171.501s-50.834 -100.334 -90.501 -140.001s-88.167 -70.834 -145.5 -93.501s-123 -34 -197 -34
c-95.333 0 -177.5 16.833 -246.5 50.5s-129.5 79.834 -181.5 138.501zM300.006 1783l76 -0.000976562c5.33301 0 11.166 -0.833008 17.499 -2.5s11.833 -4.16699 16.5 -7.5l161 -126c5.33301 -4 9 -7.16699 11 -9.5s3.66699 -4.16602 5 -5.49902
c1.33301 1.33301 3 2.83301 5 4.5l12 10.5l160 126c4.66699 3.33301 10.334 5.83301 17.001 7.5s12.667 2.5 18 2.5h75l-241 -204h-92z" />
    <glyph glyph-name="scaron" unicode="&#x161;" horiz-adv-x="880" 
d="M91 108l23.9951 34.002c3.33301 5.33301 7 9.5 11 12.5s9.66699 4.5 17 4.5c8.66699 0 19.667 -5.5 33 -16.5s30.333 -22.833 51 -35.5s46.5 -24.5 77.5 -35.5s69.5 -16.5 115.5 -16.5c43.333 0 81.333 6 114 18s59.834 28.333 81.501 49s38.167 44.834 49.5 72.501
s17 56.834 17 87.501c0 34 -8.16699 62.167 -24.5 84.5s-37.833 41.333 -64.5 57s-56.834 29 -90.501 40l-104.5 33c-36 11 -70.833 23 -104.5 36s-63.834 29.333 -90.501 49s-48.167 43.667 -64.5 72s-24.5 63.833 -24.5 106.5c0 36 7.83301 70.667 23.5 104
s38 62.666 67 87.999s64.333 45.5 106 60.5s88.5 22.5 140.5 22.5c62 0 117 -8.83301 165 -26.5s92.333 -44.834 133 -81.501l-22 -34c-4.66699 -9.33301 -12 -14 -22 -14c-7.33301 0 -17.166 4.16699 -29.499 12.5s-28.166 17.833 -47.499 28.5
s-43.166 20.334 -71.499 29.001s-62.833 13 -103.5 13c-36.667 0 -70.334 -5.33301 -101.001 -16s-56.667 -24.834 -78 -42.501s-38 -38.334 -50 -62.001s-18 -48.5 -18 -74.5c0 -32 8.16699 -58.667 24.5 -80s37.833 -39.5 64.5 -54.5s56.834 -27.833 90.501 -38.5
l104 -32.5c35.667 -11 70.334 -23.167 104.001 -36.5s63.834 -30 90.501 -50s48.167 -44.333 64.5 -73s24.5 -63.334 24.5 -104.001c0 -44.667 -8 -86 -24 -124s-39.167 -71 -69.5 -99s-67.666 -50.167 -111.999 -66.5s-94.833 -24.5 -151.5 -24.5
c-72 0 -133.833 11.333 -185.5 34s-98.167 52.667 -139.5 90zM199.995 1449h68.001c10.667 0 20 -3.66699 28 -11l160 -167l11 -14l11 14l160 167c3.33301 4 7.66602 6.83301 12.999 8.5s10.333 2.5 15 2.5h66l-222 -252h-87z" />
    <glyph glyph-name="Ydieresis" unicode="&#x178;" horiz-adv-x="1227" 
d="M26 1449l91.001 0.00195312c9.33301 0 16.833 -2.16699 22.5 -6.5s11.5 -10.833 17.5 -19.5l414 -665c9.33301 -16 17.5 -31.333 24.5 -46s13.167 -29.334 18.5 -44.001c5.33301 15.333 11.5 30.166 18.5 44.499s15.167 29.5 24.5 45.5l414 665
c4 7.33301 9.16699 13.5 15.5 18.5s14.166 7.5 23.499 7.5h92l-535 -851v-598h-106v598zM318.001 1705c0 10.667 2.16699 21.167 6.5 31.5s10.333 19.5 18 27.5s16.5 14.167 26.5 18.5s20.333 6.5 31 6.5s21.167 -2.16699 31.5 -6.5s19.333 -10.5 27 -18.5
s13.834 -17.167 18.501 -27.5s7 -20.833 7 -31.5s-2.33301 -21 -7 -31s-10.834 -18.667 -18.501 -26s-16.667 -13.166 -27 -17.499s-20.833 -6.5 -31.5 -6.5s-21 2.16699 -31 6.5s-18.833 10.166 -26.5 17.499s-13.667 16 -18 26s-6.5 20.333 -6.5 31zM744.001 1705
c0 22.667 8.16699 42.333 24.5 59s35.833 25 58.5 25c10.667 0 21 -2.16699 31 -6.5s19 -10.5 27 -18.5s14.167 -17.167 18.5 -27.5s6.5 -20.833 6.5 -31.5s-2.16699 -21 -6.5 -31s-10.5 -18.667 -18.5 -26s-17 -13.166 -27 -17.499s-20.333 -6.5 -31 -6.5
c-11.333 0 -22 2.16699 -32 6.5s-18.833 10.166 -26.5 17.499s-13.667 16 -18 26s-6.5 20.333 -6.5 31z" />
    <glyph glyph-name="Zacute" unicode="&#x179;" horiz-adv-x="1296" 
d="M118 0v38c0 12.667 4 25 12 37l922 1287h-908v87h1047v-36c0 -14.667 -4.66699 -28.667 -14 -42l-920 -1284h926v-87h-1065zM558 1579l233.001 211.001c9.33301 8.66699 18.166 14.5 26.499 17.5s20.5 4.5 36.5 4.5h115l-299 -221
c-6.66699 -4.66699 -13 -7.83398 -19 -9.50098s-13 -2.5 -21 -2.5h-72z" />
    <glyph glyph-name="zacute" unicode="&#x17a;" horiz-adv-x="925" 
d="M76 0v39c0 11.333 5 24 15 38l640 865h-621v77h736v-41c0 -14.667 -5 -27.667 -15 -39l-637 -862h626v-77h-744zM397 1189l161.002 244c7.33301 12 15.166 20.333 23.499 25s20.5 7 36.5 7h96l-221 -259c-5.33301 -6.66699 -10.833 -11.167 -16.5 -13.5
s-12.834 -3.5 -21.501 -3.5h-58z" />
    <glyph glyph-name="Zdotaccent" unicode="&#x17b;" horiz-adv-x="1296" 
d="M118 0v38c0 12.667 4 25 12 37l922 1287h-908v87h1047v-36c0 -14.667 -4.66699 -28.667 -14 -42l-920 -1284h926v-87h-1065zM583 1717c0 12 2.33301 23.333 7 34s11 20.167 19 28.5s17.333 14.833 28 19.5s21.667 7 33 7s22.5 -2.33301 33.5 -7s20.667 -11.167 29 -19.5
s15 -17.833 20 -28.5s7.5 -22 7.5 -34c0 -11.333 -2.5 -22.333 -7.5 -33s-11.667 -19.834 -20 -27.501s-18 -14 -29 -19s-22.167 -7.5 -33.5 -7.5s-22.333 2.5 -33 7.5s-20 11.333 -28 19s-14.333 16.834 -19 27.501s-7 21.667 -7 33z" />
    <glyph glyph-name="zdotaccent" unicode="&#x17c;" horiz-adv-x="925" 
d="M76 0v39c0 11.333 5 24 15 38l640 865h-621v77h736v-41c0 -14.667 -5 -27.667 -15 -39l-637 -862h626v-77h-744zM394 1382c0 12 2.33301 23.833 7 35.5s11.167 21.5 19.5 29.5s18 14.5 29 19.5s22.5 7.5 34.5 7.5s23.5 -2.5 34.5 -7.5s20.667 -11.5 29 -19.5
s15 -17.833 20 -29.5s7.5 -23.5 7.5 -35.5s-2.5 -23.333 -7.5 -34s-11.667 -20 -20 -28s-18 -14.5 -29 -19.5s-22.5 -7.5 -34.5 -7.5s-23.5 2.5 -34.5 7.5s-20.667 11.5 -29 19.5s-14.833 17.333 -19.5 28s-7 22 -7 34z" />
    <glyph glyph-name="Zcaron" unicode="&#x17d;" horiz-adv-x="1296" 
d="M118 0v38c0 12.667 4 25 12 37l922 1287h-908v87h1047v-36c0 -14.667 -4.66699 -28.667 -14 -42l-920 -1284h926v-87h-1065zM384 1783l76 -0.000976562c5.33301 0 11.166 -0.833008 17.499 -2.5s11.833 -4.16699 16.5 -7.5l161 -126c5.33301 -4 9 -7.16699 11 -9.5
s3.66699 -4.16602 5 -5.49902c1.33301 1.33301 3 2.83301 5 4.5l12 10.5l160 126c4.66699 3.33301 10.334 5.83301 17.001 7.5s12.667 2.5 18 2.5h75l-241 -204h-92z" />
    <glyph glyph-name="zcaron" unicode="&#x17e;" horiz-adv-x="925" 
d="M76 0v39c0 11.333 5 24 15 38l640 865h-621v77h736v-41c0 -14.667 -5 -27.667 -15 -39l-637 -862h626v-77h-744zM218 1449h68.001c10.667 0 20 -3.66699 28 -11l160 -167l11 -14l11 14l160 167c3.33301 4 7.66602 6.83301 12.999 8.5s10.333 2.5 15 2.5h66l-222 -252h-87
z" />
    <glyph glyph-name="florin" unicode="&#x192;" 
d="M121 -319c0 22 12.3301 32.6689 36.9971 32.002c34.667 0.666992 68.334 6.33398 101.001 17.001s62.334 28 89.001 52s49.334 55 68.001 93s31.667 85 39 141l97 797l-197 10c-18 1.33301 -26.667 10 -26 26v40h232l25 195c16 131.333 60.667 228 134 290
s172.333 93 297 93v-52c0 -20.667 -12.333 -31 -37 -31c-36 0 -70.5 -5.16699 -103.5 -15.5s-62.667 -27.5 -89 -51.5s-49 -55.167 -68 -93.5s-31.833 -85.5 -38.5 -141.5l-26 -193h366v-73h-371l-98 -803c-8 -66.667 -23.667 -123.834 -47 -171.501
s-53.5 -87.334 -90.5 -119.001s-80.167 -54.834 -129.5 -69.501s-104 -22 -164 -22v50z" />
    <glyph glyph-name="circumflex" unicode="&#x2c6;" horiz-adv-x="599" 
d="M33 1197l223 251.999h87l222 -252h-66c-10.667 0 -20 4 -28 12l-160 167c-4 2.66699 -7.66699 6.66699 -11 12c-1.33301 -2.66699 -3 -5 -5 -7l-5 -5l-161 -167c-3.33301 -3.33301 -7.33301 -6.16602 -12 -8.49902s-10 -3.5 -16 -3.5h-68z" />
    <glyph glyph-name="caron" unicode="&#x2c7;" horiz-adv-x="599" 
d="M33 1449h68.001c10.667 0 20 -3.66699 28 -11l160 -167l11 -14l11 14l160 167c3.33301 4 7.66602 6.83301 12.999 8.5s10.333 2.5 15 2.5h66l-222 -252h-87z" />
    <glyph glyph-name="breve" unicode="&#x2d8;" horiz-adv-x="599" 
d="M54 1449h70.999c0 -25.333 2.83301 -49.333 8.5 -72s15.334 -42.5 29.001 -59.5s31.667 -30.333 54 -40s49.833 -14.5 82.5 -14.5s60.167 4.83301 82.5 14.5s40.5 23 54.5 40s23.833 36.833 29.5 59.5s8.5 46.667 8.5 72h71c0 -34 -4.5 -66.333 -13.5 -97
s-23.167 -57.667 -42.5 -81s-44.5 -41.666 -75.5 -54.999s-69.167 -20 -114.5 -20s-83.5 6.66699 -114.5 20s-56.167 31.666 -75.5 54.999s-33.333 50.333 -42 81s-13 63 -13 97z" />
    <glyph glyph-name="dotaccent" unicode="&#x2d9;" horiz-adv-x="599" 
d="M209 1382c0 12 2.33301 23.833 7 35.5s11.167 21.5 19.5 29.5s18 14.5 29 19.5s22.5 7.5 34.5 7.5s23.5 -2.5 34.5 -7.5s20.667 -11.5 29 -19.5s15 -17.833 20 -29.5s7.5 -23.5 7.5 -35.5s-2.5 -23.333 -7.5 -34s-11.667 -20 -20 -28s-18 -14.5 -29 -19.5
s-22.5 -7.5 -34.5 -7.5s-23.5 2.5 -34.5 7.5s-20.667 11.5 -29 19.5s-14.833 17.333 -19.5 28s-7 22 -7 34z" />
    <glyph glyph-name="ring" unicode="&#x2da;" horiz-adv-x="599" 
d="M123 1333c0 24.667 4.66699 47.334 14 68.001s22 38.334 38 53.001s34.667 26.167 56 34.5s44 12.5 68 12.5s46.667 -4.16699 68 -12.5s40 -19.833 56 -34.5s28.833 -32.334 38.5 -53.001s14.5 -43.334 14.5 -68.001s-4.83301 -47 -14.5 -67s-22.5 -37.5 -38.5 -52.5
s-34.667 -26.667 -56 -35s-44 -12.5 -68 -12.5s-46.667 4.16699 -68 12.5s-40 20 -56 35s-28.667 32.5 -38 52.5s-14 42.333 -14 67zM182 1333c0 -34 11 -61.833 33 -83.5s50.333 -32.5 85 -32.5c34 0 62 10.833 84 32.5s33 49.5 33 83.5s-11 62 -33 84s-50 33 -84 33
c-34.667 0 -63 -11 -85 -33s-33 -50 -33 -84z" />
    <glyph glyph-name="ogonek" unicode="&#x2db;" horiz-adv-x="599" 
d="M141 -202c0 23.333 4.83398 45.5 14.501 66.5s22.167 40.667 37.5 59s32.5 35 51.5 50s38.5 28.167 58.5 39.5l50 -13c-13.333 -7.33301 -27.833 -16.833 -43.5 -28.5s-30.334 -25.167 -44.001 -40.5s-25.167 -32.333 -34.5 -51s-14 -38.667 -14 -60
c0 -32.667 11 -58.167 33 -76.5s50 -27.5 84 -27.5c19.333 0 35.333 2 48 6s23.5 8 32.5 12s16.167 7.83301 21.5 11.5s9.66602 5.5 12.999 5.5c6.66699 0 11 -2.66699 13 -8l16 -35c-19.333 -16.667 -43.166 -29.834 -71.499 -39.501s-58.833 -14.5 -91.5 -14.5
c-52 0 -94 12.833 -126 38.5s-48 60.834 -48 105.501z" />
    <glyph glyph-name="tilde" unicode="&#x2dc;" horiz-adv-x="599" 
d="M39 1243c0 24.667 3.33203 47.833 9.99902 69.5s16.5 40.334 29.5 56.001s28.833 27.834 47.5 36.501s39.334 13 62.001 13c23.333 0 45.166 -5.66699 65.499 -17s39.5 -23.5 57.5 -36.5s35.667 -25.167 53 -36.5s35 -17 53 -17c29.333 0 51.5 9.33301 66.5 28
s22.833 44 23.5 76h60c0 -24.667 -3.16699 -47.667 -9.5 -69s-15.833 -39.833 -28.5 -55.5s-28.167 -28 -46.5 -37s-39.166 -13.5 -62.499 -13.5c-22.667 0 -44 5.66699 -64 17s-39.333 23.666 -58 36.999l-54 37c-17.333 11.333 -35 17 -53 17
c-28.667 0 -50.5 -9.83301 -65.5 -29.5s-23.167 -44.834 -24.5 -75.501h-62z" />
    <glyph glyph-name="hungarumlaut" unicode="&#x2dd;" horiz-adv-x="599" 
d="M127 1189l156 244c7.33301 11.333 15 19.5 23 24.5s20.333 7.5 37 7.5h68l-203 -259c-5.33301 -6.66699 -11 -11.167 -17 -13.5s-13 -3.5 -21 -3.5h-43zM367 1189l185.999 244c8.66699 11.333 16.834 19.5 24.501 24.5s19.5 7.5 35.5 7.5h76l-236 -259
c-5.33301 -6.66699 -11 -11.167 -17 -13.5s-13 -3.5 -21 -3.5h-48z" />
    <glyph glyph-name="pi" unicode="&#x3c0;" horiz-adv-x="1202" 
d="M47 13l5.00098 39.998c3.33301 9.33301 9.66602 14.333 18.999 15c6 0 13.833 -1 23.5 -3s22.167 -3 37.5 -3c97.333 0 146.333 53.333 147 160v723h-207v35c0 8.66699 3.5 17.334 10.5 26.001s17.5 13 31.5 13h1052v-37c0 -9.33301 -3.16699 -17.833 -9.5 -25.5
s-15.833 -11.5 -28.5 -11.5h-176v-945h-97v945h-479v-724c0 -75.333 -18.667 -132.666 -56 -171.999s-91.666 -59 -162.999 -59c-21.333 0 -40.833 1.5 -58.5 4.5s-34.834 9.16699 -51.501 18.5z" />
    <glyph glyph-name="uni2000" unicode="&#x2000;" horiz-adv-x="916" 
 />
    <glyph glyph-name="uni2001" unicode="&#x2001;" horiz-adv-x="1832" 
 />
    <glyph glyph-name="uni2002" unicode="&#x2002;" horiz-adv-x="916" 
 />
    <glyph glyph-name="uni2003" unicode="&#x2003;" horiz-adv-x="1832" 
 />
    <glyph glyph-name="uni2004" unicode="&#x2004;" horiz-adv-x="610" 
 />
    <glyph glyph-name="uni2005" unicode="&#x2005;" horiz-adv-x="458" 
 />
    <glyph glyph-name="uni2006" unicode="&#x2006;" horiz-adv-x="305" 
 />
    <glyph glyph-name="uni2007" unicode="&#x2007;" horiz-adv-x="305" 
 />
    <glyph glyph-name="uni2008" unicode="&#x2008;" horiz-adv-x="229" 
 />
    <glyph glyph-name="uni2009" unicode="&#x2009;" horiz-adv-x="366" 
 />
    <glyph glyph-name="uni200A" unicode="&#x200a;" horiz-adv-x="101" 
 />
    <glyph glyph-name="uni2010" unicode="&#x2010;" horiz-adv-x="680" 
d="M102 566v83h477v-83h-477z" />
    <glyph glyph-name="uni2011" unicode="&#x2011;" horiz-adv-x="680" 
d="M102 566v83h477v-83h-477z" />
    <glyph glyph-name="figuredash" unicode="&#x2012;" horiz-adv-x="680" 
d="M102 566v83h477v-83h-477z" />
    <glyph glyph-name="endash" unicode="&#x2013;" horiz-adv-x="1107" 
d="M151 556v73h805v-73h-805z" />
    <glyph glyph-name="emdash" unicode="&#x2014;" horiz-adv-x="1629" 
d="M151 556v73h1328v-73h-1328z" />
    <glyph glyph-name="quoteleft" unicode="&#x2018;" horiz-adv-x="404" 
d="M133 1237c0 53.333 13.001 104.5 39.001 153.5s59.667 93.833 101 134.5l28 -19c5.33301 -4 8 -8.66699 8 -14c0 -4.66699 -2 -9 -6 -13c-26 -34.667 -47.5 -69.167 -64.5 -103.5s-25.5 -69.833 -25.5 -106.5c0 -40 12 -81 36 -123c3.33301 -5.33301 5 -11 5 -17
c0 -9.33301 -5 -16 -15 -20l-64 -27c-14.667 26 -25.334 51.833 -32.001 77.5s-10 51.5 -10 77.5z" />
    <glyph glyph-name="quoteright" unicode="&#x2019;" horiz-adv-x="404" 
d="M113 1103c0 5.33301 2 9.99902 6 13.999c26 34 47.5 68.333 64.5 103s25.5 70.334 25.5 107.001c0 39.333 -12 80 -36 122c-3.33301 5.33301 -5 10.666 -5 15.999c0 9.33301 5 16.333 15 21l63 26c15.333 -26 26.333 -51.667 33 -77s10 -51 10 -77
c0 -53.333 -13 -104.666 -39 -153.999s-60 -94 -102 -134l-28 19c-4.66699 4 -7 8.66699 -7 14z" />
    <glyph glyph-name="quotesinglbase" unicode="&#x201a;" horiz-adv-x="404" 
d="M113 -229c0 5.33301 2 9.99902 6 13.999c26 34 47.5 68.333 64.5 103s25.5 70.334 25.5 107.001c0 39.333 -12 80 -36 122c-3.33301 5.33301 -5 10.666 -5 15.999c0 9.33301 5 16.333 15 21l63 26c15.333 -26 26.333 -51.667 33 -77s10 -51 10 -77
c0 -53.333 -13 -104.666 -39 -153.999s-60 -94 -102 -134l-28 18c-4.66699 4 -7 9 -7 15z" />
    <glyph glyph-name="quotedblleft" unicode="&#x201c;" horiz-adv-x="680" 
d="M133 1237c0 53.333 13.001 104.5 39.001 153.5s59.667 93.833 101 134.5l28 -19c5.33301 -4 8 -8.66699 8 -14c0 -4.66699 -2 -9 -6 -13c-26 -34.667 -47.5 -69.167 -64.5 -103.5s-25.5 -69.833 -25.5 -106.5c0 -40 12 -81 36 -123c3.33301 -5.33301 5 -11 5 -17
c0 -9.33301 -5 -16 -15 -20l-64 -27c-14.667 26 -25.334 51.833 -32.001 77.5s-10 51.5 -10 77.5zM409.001 1237c0 53.333 12.834 104.5 38.501 153.5s59.5 93.833 101.5 134.5l28 -19c5.33301 -4 8 -8.66699 8 -14c0 -4.66699 -2 -9 -6 -13
c-26 -34.667 -47.667 -69.167 -65 -103.5s-26 -69.833 -26 -106.5c0 -40 12 -81 36 -123c3.33301 -5.33301 5 -11 5 -17c0 -9.33301 -5 -16 -15 -20l-63 -27c-14.667 26 -25.334 51.833 -32.001 77.5s-10 51.5 -10 77.5z" />
    <glyph glyph-name="quotedblright" unicode="&#x201d;" horiz-adv-x="680" 
d="M113 1103c0 5.33301 2 9.99902 6 13.999c26 34 47.5 68.333 64.5 103s25.5 70.334 25.5 107.001c0 39.333 -12 80 -36 122c-3.33301 5.33301 -5 10.666 -5 15.999c0 9.33301 5 16.333 15 21l63 26c15.333 -26 26.333 -51.667 33 -77s10 -51 10 -77
c0 -53.333 -13 -104.666 -39 -153.999s-60 -94 -102 -134l-28 19c-4.66699 4 -7 8.66699 -7 14zM388 1103c0 5.33301 2 9.99902 6 13.999c26 34 47.5 68.333 64.5 103s25.5 70.334 25.5 107.001c0 39.333 -11.667 80 -35 122c-3.33301 5.33301 -5.33301 10.666 -6 15.999
c0 9.33301 5.33301 16.333 16 21l62 26c15.333 -26 26.333 -51.667 33 -77s10 -51 10 -77c0 -53.333 -13 -104.666 -39 -153.999s-59.667 -94 -101 -134l-29 19c-4.66699 4 -7 8.66699 -7 14z" />
    <glyph glyph-name="quotedblbase" unicode="&#x201e;" horiz-adv-x="680" 
d="M113 -229c0 5.33301 2 9.99902 6 13.999c26 34 47.5 68.333 64.5 103s25.5 70.334 25.5 107.001c0 39.333 -12 80 -36 122c-3.33301 5.33301 -5 10.666 -5 15.999c0 9.33301 5 16.333 15 21l63 26c15.333 -26 26.333 -51.667 33 -77s10 -51 10 -77
c0 -53.333 -13 -104.666 -39 -153.999s-60 -94 -102 -134l-28 18c-4.66699 4 -7 9 -7 15zM388 -229.001c0 5.33301 2 9.99902 6 13.999c26 34 47.5 68.333 64.5 103s25.5 70.334 25.5 107.001c0 39.333 -11.667 80 -35 122c-3.33301 5.33301 -5.33301 10.666 -6 15.999
c0 9.33301 5.33301 16.333 16 21l62 26c15.333 -26 26.333 -51.667 33 -77s10 -51 10 -77c0 -53.333 -13 -104.666 -39 -153.999s-59.667 -94 -101 -134l-29 18c-4.66699 4 -7 9 -7 15z" />
    <glyph glyph-name="dagger" unicode="&#x2020;" 
d="M164 913v33c0 11.333 3.83301 21.833 11.5 31.5s19.5 14.5 35.5 14.5c52.667 -1.33301 108.667 -4.5 168 -9.5s117.333 -8.5 174 -10.5l-13 494c16 8.66699 33.333 13.334 52 14.001c18.667 0 35.667 -4.66699 51 -14l-13 -494c56 2 113.667 5.5 173 10.5
s115.666 8.16699 168.999 9.5c16 0 28 -4.66699 36 -14s12 -20 12 -32v-33h-390v-506l13 -764c-16 -8.66699 -33 -13.334 -51 -14.001c-19.333 0 -36.666 4.66699 -51.999 14l13 764v506h-389z" />
    <glyph glyph-name="daggerdbl" unicode="&#x2021;" 
d="M164 162l-0.00195312 32.999h389v718h-389v33c0 11.333 3.83301 21.833 11.5 31.5s19.5 14.5 35.5 14.5c52.667 -1.33301 108.667 -4.5 168 -9.5s117.333 -8.5 174 -10.5l-13 494c16 8.66699 33.333 13.334 52 14.001c18.667 0 35.667 -4.66699 51 -14l-13 -494
c56 2 113.667 5.5 173 10.5s115.666 8.16699 168.999 9.5c16 0 28 -4.66699 36 -14s12 -20 12 -32v-33h-390v-718h390v-33c0 -11.333 -4.16699 -21.666 -12.5 -30.999s-20.166 -14 -35.499 -14c-53.333 1.33301 -109.666 4.5 -168.999 9.5s-117 8.5 -173 10.5l13 -494
c-16 -8.66699 -33 -13.334 -51 -14.001c-19.333 0 -36.666 4.66699 -51.999 14l13 494c-56.667 -2 -114.667 -5.5 -174 -10.5s-115.333 -8.16699 -168 -9.5c-16 0 -27.833 4.5 -35.5 13.5s-11.5 19.5 -11.5 31.5z" />
    <glyph glyph-name="bullet" unicode="&#x2022;" 
d="M293 610c0 41.333 7.83203 80.501 23.499 117.501s37.167 69.333 64.5 97s59 49.334 95 65.001s74.667 23.5 116 23.5s80.5 -7.83301 117.5 -23.5s69.167 -37.334 96.5 -65.001s48.833 -59.834 64.5 -96.501s23.5 -76 23.5 -118c0 -40.667 -7.83301 -79 -23.5 -115
s-37.167 -67.667 -64.5 -95s-59.5 -48.833 -96.5 -64.5s-76.167 -23.5 -117.5 -23.5c-40.667 0 -79.167 7.83301 -115.5 23.5s-68.166 37.167 -95.499 64.5s-48.833 59 -64.5 95s-23.5 74.333 -23.5 115z" />
    <glyph glyph-name="ellipsis" unicode="&#x2026;" horiz-adv-x="1409" 
d="M108 79c0 12.667 2.33398 24.834 7.00098 36.501s11.167 21.834 19.5 30.501s18.166 15.5 29.499 20.5s24 7.5 38 7.5c12.667 0 24.834 -2.5 36.501 -7.5s21.834 -11.833 30.501 -20.5s15.5 -18.834 20.5 -30.501s7.5 -23.834 7.5 -36.501
c0 -13.333 -2.5 -25.666 -7.5 -36.999s-11.833 -21.333 -20.5 -30s-18.834 -15.334 -30.501 -20.001s-23.834 -7 -36.501 -7c-26.667 0 -49 9 -67 27s-27 40.333 -27 67zM609.001 79c0 12.667 2.50195 24.834 7.50195 36.501s11.667 21.834 20 30.501
s18.166 15.5 29.499 20.5s23.666 7.5 36.999 7.5c12.667 0 25 -2.5 37 -7.5s22.167 -11.833 30.5 -20.5s15.166 -18.834 20.499 -30.501s8 -23.834 8 -36.501c0 -13.333 -2.66699 -25.666 -8 -36.999s-12.166 -21.333 -20.499 -30s-18.333 -15.334 -30 -20.001
s-24.167 -7 -37.5 -7c-26.667 0 -49 9 -67 27s-27 40.333 -27 67zM1112 79c0 12.667 2.33301 24.834 7 36.501s11.334 21.834 20.001 30.501s18.667 15.5 30 20.5s23.666 7.5 36.999 7.5c12.667 0 25 -2.5 37 -7.5s22.167 -11.833 30.5 -20.5s15.166 -18.834 20.499 -30.501
s8 -23.834 8 -36.501c0 -13.333 -2.66699 -25.666 -8 -36.999s-12.166 -21.333 -20.499 -30s-18.333 -15.334 -30 -20.001s-24.167 -7 -37.5 -7c-26.667 0 -49 9 -67 27s-27 40.333 -27 67z" />
    <glyph glyph-name="uni202F" unicode="&#x202f;" horiz-adv-x="366" 
 />
    <glyph glyph-name="perthousand" unicode="&#x2030;" horiz-adv-x="2312" 
d="M89 1101c0 60 7.83301 112.833 23.5 158.5s37.167 83.667 64.5 114s59.666 53.166 96.999 68.499s77 23 119 23s81.5 -7.66699 118.5 -23s69.333 -38.166 97 -68.499s49.5 -68.333 65.5 -114s24 -98.5 24 -158.5c0 -59.333 -8.16699 -111.666 -24.5 -156.999
s-38.5 -83.166 -66.5 -113.499s-60.333 -53.166 -97 -68.499s-75.667 -23 -117 -23c-42 0 -81.667 7.66699 -119 23s-69.666 38.166 -96.999 68.499s-48.833 68.166 -64.5 113.499s-23.5 97.666 -23.5 156.999zM168 1101c0 -52.667 6 -97.667 18 -135
s28.167 -67.833 48.5 -91.5s44.166 -41.167 71.499 -52.5s56.333 -17 87 -17s59.834 5.66699 87.501 17s52 28.833 73 52.5s37.5 54.167 49.5 91.5s18 82.333 18 135s-6 97.667 -18 135s-28.5 68.166 -49.5 92.499s-45.333 42.166 -73 53.499s-56.834 17 -87.501 17
s-59.667 -5.66699 -87 -17s-51.166 -29.166 -71.499 -53.499s-36.5 -55.166 -48.5 -92.499s-18 -82.333 -18 -135zM209 0l1039 1431c4 5.33301 9 9.66602 15 12.999s13.667 5 23 5h69l-1041 -1431c-8.66699 -12 -20.334 -18 -35.001 -18h-70zM872.001 344.001
c0 60 7.99902 112.833 23.999 158.5s37.5 83.834 64.5 114.501s59.167 53.667 96.5 69s77.333 23 120 23c42 0 81.5 -7.66699 118.5 -23s69.333 -38.333 97 -69s49.334 -68.834 65.001 -114.501s23.5 -98.5 23.5 -158.5c0 -59.333 -8.16699 -111.666 -24.5 -156.999
s-38.333 -83 -66 -113s-60 -52.667 -97 -68s-75.833 -23 -116.5 -23c-42 0 -81.833 7.66699 -119.5 23s-70 38 -97 68s-48.5 67.667 -64.5 113s-24 97.666 -24 156.999zM950 344.001c0 -52.667 6.00293 -97.5 18.0029 -134.5s28.333 -67.5 49 -91.5s44.667 -41.5 72 -52.5
s56.666 -16.5 87.999 -16.5c30.667 0 59.834 5.5 87.501 16.5s51.667 28.5 72 52.5s36.5 54.5 48.5 91.5s18 81.833 18 134.5s-6 98 -18 136s-28.167 69 -48.5 93s-44.333 41.667 -72 53s-56.834 17 -87.501 17s-59.834 -5.66699 -87.501 -17s-51.834 -29 -72.501 -53
s-37 -55 -49 -93s-18 -83.333 -18 -136zM1614 344.001c0 60 7.83203 112.833 23.499 158.5s37.167 83.834 64.5 114.501s59.5 53.667 96.5 69s76.833 23 119.5 23c42 0 81.5 -7.66699 118.5 -23s69.333 -38.333 97 -69s49.334 -68.834 65 -114.501
c15.667 -45.667 23.5 -98.5 23.5 -158.5c0 -59.333 -8.16699 -111.666 -24.5 -156.999s-38.333 -83 -66 -113s-60 -52.667 -97 -68s-75.833 -23 -116.5 -23c-42 0 -81.667 7.66699 -119 23s-69.666 38 -96.999 68s-48.833 67.667 -64.5 113s-23.5 97.666 -23.5 156.999z
M1692 344.001c0 -52.667 5.83203 -97.5 17.499 -134.5s27.834 -67.5 48.501 -91.5s44.834 -41.5 72.501 -52.5s56.834 -16.5 87.501 -16.5s59.834 5.5 87.501 16.5s51.667 28.5 72.001 52.5c20.333 24 36.5 54.5 48.5 91.5s18 81.833 18 134.5s-6 98 -18 136
s-28.167 69 -48.5 93s-44.333 41.667 -72 53s-56.834 17 -87.501 17s-59.834 -5.66699 -87.501 -17s-51.834 -29 -72.501 -53s-36.834 -55 -48.501 -93s-17.5 -83.333 -17.5 -136z" />
    <glyph glyph-name="guilsinglleft" unicode="&#x2039;" horiz-adv-x="633" 
d="M159 525l-0.00195312 13.999l247 387l30 -16c10.667 -6.66699 16.334 -15 17.001 -25c0 -8 -2.66699 -16 -8 -24l-187 -300c-8.66699 -13.333 -16 -23.333 -22 -30c6.66699 -5.33301 14 -14.666 22 -27.999l187 -301c4.66699 -7.33301 7.33398 -15.333 8.00098 -24
c0 -10 -5.66699 -18.333 -17 -25l-30 -16z" />
    <glyph glyph-name="guilsinglright" unicode="&#x203a;" horiz-adv-x="633" 
d="M180 179c0 7.33301 2.33301 15.001 7 23.001l188 301c4 7.33301 7.83301 13.166 11.5 17.499s7.16699 7.83301 10.5 10.5c-3.33301 3.33301 -6.83301 7.33301 -10.5 12s-7.5 10.667 -11.5 18l-188 300c-4.66699 7.33301 -7 15.333 -7 24c0 10.667 6 19 18 25l30 16
l247 -387v-14l-247 -388l-30 16c-11.333 6 -17.333 14.667 -18 26z" />
    <glyph glyph-name="fraction" unicode="&#x2044;" horiz-adv-x="508" 
d="M-207 0l818.999 1413c6.66699 11.333 14.334 20.166 23.001 26.499s20 9.5 34 9.5h43l-822 -1417c-7.33301 -12 -15.5 -20.333 -24.5 -25s-19.5 -7 -31.5 -7h-41z" />
    <glyph glyph-name="uni205F" unicode="&#x205f;" horiz-adv-x="458" 
 />
    <glyph glyph-name="Euro" unicode="&#x20ac;" 
d="M32 583l-0.00488281 59.9941h161l-2 40c-0.666992 13.333 -1 27.333 -1 42c0 33.333 1.33301 66.333 4 99h-162v60h168c10.667 90 31.334 170.833 62.001 242.5s69.667 132.334 117 182.001s102 87.834 164 114.501s130.667 40 206 40c44 0 84.5 -3.83301 121.5 -11.5
s71.333 -19 103 -34s61.334 -33.667 89.001 -56s54.167 -48.166 79.5 -77.499l-32 -36c-2.66699 -3.33301 -5.66699 -6.16602 -9 -8.49902s-8 -3.5 -14 -3.5c-5.33301 0 -11.666 3.5 -18.999 10.5l-28.5 26c-11.667 10.333 -25.834 21.833 -42.501 34.5
s-36.5 24.167 -59.5 34.5s-49.667 19 -80 26s-65.166 10.5 -104.499 10.5c-61.333 0 -117.666 -10.667 -168.999 -32s-96.333 -52.833 -135 -94.5s-70.667 -93.167 -96 -154.5s-43 -132.333 -53 -213h616v-31c0 -7.33301 -2.5 -14 -7.5 -20s-13.167 -9 -24.5 -9h-590
c-2 -32 -3 -65 -3 -99c0 -14.667 0.166992 -28.5 0.5 -41.5s0.833008 -26.5 1.5 -40.5h529v-31c0 -8 -2.66699 -14.833 -8 -20.5s-13 -8.5 -23 -8.5h-493c8.66699 -84.667 25.334 -159.167 50.001 -223.5s56.167 -118 94.5 -161s83 -75.333 134 -97
s107.167 -32.5 168.5 -32.5c42 0 79.333 4 112 12s61.334 18.333 86.001 31s45.834 26.334 63.501 41.001s32.667 28.334 45 41.001l31.5 31.5c8.66699 8.33301 16 12.5 22 12.5c6.66699 0 13 -3.33301 19 -10l38 -35c-24.667 -31.333 -51.334 -59.833 -80.001 -85.5
s-60.334 -47.667 -95.001 -66s-72.5 -32.333 -113.5 -42s-85.5 -14.5 -133.5 -14.5c-77.333 0 -147.333 13.333 -210 40s-117 65.5 -163 116.5s-83.333 113.5 -112 187.5s-47.667 158.667 -57 254h-166z" />
    <glyph glyph-name="trademark" unicode="&#x2122;" horiz-adv-x="1461" 
d="M74 1389v60h482v-60h-204v-529h-72v529h-206zM684 860l-0.00195312 589.001h58c6.66699 0 11.667 -0.666992 15 -2s7.33301 -4.66602 12 -9.99902l222 -373l11 -30c3.33301 10.667 8 20.667 14 30l218 373c3.33301 5.33301 6.5 8.66602 9.5 9.99902s7.83301 2 14.5 2h59
v-589h-64v454l5 45l-224 -389c-5.33301 -10.667 -13.666 -16.334 -24.999 -17.001h-12c-11.333 0 -19.666 5.66699 -24.999 17l-229 387l6 -43v-454h-65z" />
    <glyph glyph-name="partialdiff" unicode="&#x2202;" 
d="M126 389c0 78 12.5 151.333 37.5 220s60 128.5 105 179.5s99 91.167 162 120.5s133.167 44 210.5 44c36 0 71 -4.5 105 -13.5s65.667 -23.333 95 -43s55.5 -44.334 78.5 -74.001s42.167 -64.5 57.5 -104.5c2 20 3.66699 40 5 60s2.16602 39 2.49902 57
s0.666016 34.667 0.999023 50s0.5 28.666 0.5 39.999c0 148.667 -25.5 263 -76.5 343s-125.167 120 -222.5 120c-33.333 0 -62.833 -3.66699 -88.5 -11s-48 -15.166 -67 -23.499s-34.833 -16 -47.5 -23s-22.334 -10.5 -29.001 -10.5c-4.66699 0 -9 1.16699 -13 3.5
s-7.66699 6.83301 -11 13.5l-20 36c24.667 16.667 48.334 31 71.001 43s45.5 21.667 68.5 29s46.5 12.833 70.5 16.5s49.667 5.5 77 5.5c59.333 0 112.5 -12.167 159.5 -36.5s86.667 -59.833 119 -106.5s57 -103.5 74 -170.5s25.5 -143.5 25.5 -229.5
c0 -133.333 -12 -257 -36 -371s-60.333 -213 -109 -297s-109.167 -149.667 -181.5 -197s-156.166 -71 -251.499 -71c-55.333 0 -105.666 9.16699 -150.999 27.5s-84.5 44.833 -117.5 79.5s-58.5 76.834 -76.5 126.501s-27 105.5 -27 167.5zM226 391
c0 -51.333 6.83301 -96.998 20.5 -136.998s33 -74 58 -102s55 -49.333 90 -64s73.5 -22 115.5 -22c56 0 108 12 156 36s91 58.667 129 104s70.5 100.666 97.5 165.999s47.167 139.333 60.5 222c-6.66699 34.667 -17.334 69 -32.001 103s-34.167 64.167 -58.5 90.5
s-53.666 47.666 -87.999 63.999s-75.166 24.5 -122.499 24.5c-66.667 0 -126.334 -12.5 -179.001 -37.5s-97.167 -59.167 -133.5 -102.5s-64.333 -94.5 -84 -153.5s-29.5 -122.833 -29.5 -191.5z" />
    <glyph glyph-name="uni2206" unicode="&#x2206;" horiz-adv-x="1335" 
d="M17 0l604 1449h94l603 -1449h-1301zM160 85h1016l-482 1173c-9.33301 22.667 -18 48.667 -26 78c-4 -15.333 -8.33301 -29.333 -13 -42l-14 -37z" />
    <glyph glyph-name="product" unicode="&#x220f;" horiz-adv-x="1396" 
d="M79 1365v84h1238v-84h-215v-1725h-101v1725h-607v-1725h-100v1725h-215z" />
    <glyph glyph-name="summation" unicode="&#x2211;" horiz-adv-x="1396" 
d="M89 -324c0 12 3.66699 23 11 33l690 837l-689 833c-8 8.66699 -12 19.667 -12 33v37h1218v-84h-1065l660 -807v-27l-660 -807h1065v-84h-1218v36z" />
    <glyph glyph-name="radical" unicode="&#x221a;" horiz-adv-x="1149" 
d="M41 749v30.002h321c10 0 18 -2.5 24 -7.5s10.333 -10.833 13 -17.5l212 -552c9.33301 -31.333 16.333 -61 21 -89c4 25.333 9.33301 51 16 77l500 1546c2.66699 7.33301 7 13.166 13 17.499s13.333 6.5 22 6.5h59l-571 -1760h-81l-274 707h-235
c-10.667 0 -20 3.16699 -28 9.5s-12 17.166 -12 32.499z" />
    <glyph glyph-name="infinity" unicode="&#x221e;" horiz-adv-x="1396" 
d="M76 605c0 48.667 8.00293 92.501 24.0029 131.501s37.5 72.167 64.5 99.5s58.167 48.333 93.5 63s72.666 22 111.999 22c37.333 0 71.5 -6.83301 102.5 -20.5s59.833 -32 86.5 -55s51.5 -49.333 74.5 -79s44.833 -60.167 65.5 -91.5c21.333 31.333 43.5 61.833 66.5 91.5
s47.833 56 74.5 79s55.667 41.333 87 55s65.666 20.5 102.999 20.5c38.667 0 75.834 -7.33301 111.501 -22s67 -35.667 94 -63s48.5 -60.5 64.5 -99.5s24 -82.833 24 -131.5s-8 -92.5 -24 -131.5s-37.5 -72.167 -64.5 -99.5s-58.333 -48.333 -94 -63
s-72.834 -22 -111.501 -22c-37.333 0 -71.666 6.83301 -102.999 20.5s-60.333 31.667 -87 54s-51.5 48.333 -74.5 78s-45.167 60.834 -66.5 93.501c-21.333 -32 -43.333 -62.833 -66 -92.5s-47.334 -55.834 -74.001 -78.501s-55.5 -40.834 -86.5 -54.501
s-65.167 -20.5 -102.5 -20.5c-38.667 0 -75.834 7.33301 -111.501 22s-67 35.667 -94 63s-48.5 60.5 -64.5 99.5s-24 82.833 -24 131.5zM157.003 605.001c0 -38 5.50098 -71.666 16.501 -100.999s26.5 -54 46.5 -74s43.167 -35.167 69.5 -45.5s54.5 -15.5 84.5 -15.5
s57.833 6.5 83.5 19.5s49.667 30.333 72 52s43.666 46.667 63.999 75l60.5 88.5l-61 89c-20 28.667 -41.167 54 -63.5 76s-46.333 39.5 -72 52.5s-53.5 19.5 -83.5 19.5s-58.167 -5.33301 -84.5 -16s-49.5 -25.834 -69.5 -45.501s-35.5 -44.167 -46.5 -73.5
s-16.5 -63 -16.5 -101zM745.004 604.002l61.5 -88.502c20.333 -28.333 41.666 -53.333 63.999 -75s46.333 -39 72 -52s53.834 -19.5 84.501 -19.5c29.333 0 57.166 5.16699 83.499 15.5s49.166 25.5 68.499 45.5s34.666 44.667 45.999 74s17 63 17 101
c0 37.333 -5.66699 70.833 -17 100.5s-26.666 54.334 -45.999 74.001s-42.166 34.834 -68.499 45.501s-54.166 16 -83.499 16c-30.667 0 -58.834 -6.5 -84.501 -19.5s-49.667 -30.5 -72 -52.5s-43.666 -47.333 -63.999 -76z" />
    <glyph glyph-name="integral" unicode="&#x222b;" horiz-adv-x="788" 
d="M-130 -344l6.99805 40.0049c2 6 4.66699 10 8 12s8.66602 3 15.999 3s16.833 -0.666992 28.5 -2s26.834 -2 45.501 -2c40.667 0 77.5 5.5 110.5 16.5s61.667 28.667 86 53s44.5 55.666 60.5 93.999s27.333 85.166 34 140.499l135 1101
c6.66699 59.333 20 111.166 40 155.499s44.667 81 74 110s63 50.833 101 65.5s78.667 22 122 22c26.667 0 49.834 -1.83301 69.501 -5.5s38.167 -9.83398 55.5 -18.501l-5 -44c-2 -6.66699 -5.16699 -11 -9.5 -13s-11.5 -3 -21.5 -3
c-7.33301 0 -16.166 0.166992 -26.499 0.5s-22.833 0.5 -37.5 0.5c-35.333 0 -68 -5.33301 -98 -16s-56.5 -27.667 -79.5 -51s-42.167 -52.5 -57.5 -87.5s-26 -77.167 -32 -126.5l-136 -1088c-8 -67.333 -22.667 -125 -44 -173s-48 -87.5 -80 -118.5
s-68.333 -53.667 -109 -68s-84.667 -21.5 -132 -21.5c-22.667 0 -45 1.66699 -67 5s-41.333 9.66602 -58 18.999z" />
    <glyph glyph-name="approxequal" unicode="&#x2248;" 
d="M203 530c20.667 30.667 47.833 54.168 81.5 70.501s70.834 24.5 111.501 24.5c35.333 0 70.5 -6.16699 105.5 -18.5s69.333 -26 103 -41s66.834 -28.667 99.501 -41s64.667 -18.5 96 -18.5c35.333 0 68 7.66699 98 23s52.333 32.666 67 51.999l19 -60
c-20 -29.333 -47 -51.833 -81 -67.5s-70 -23.5 -108 -23.5c-35.333 0 -70.333 6.16699 -105 18.5s-68.834 26 -102.501 41s-67 28.667 -100 41s-65.167 18.5 -96.5 18.5c-37.333 0 -70.833 -7.66699 -100.5 -23s-51.834 -33 -66.501 -53zM202.999 853.001
c20.667 30.667 47.833 54.165 81.5 70.498s70.834 24.5 111.501 24.5c35.333 0 70.5 -6.16699 105.5 -18.5s69.333 -26 103 -41s66.834 -28.667 99.501 -41s64.667 -18.5 96 -18.5c35.333 0 68 7.83301 98 23.5s52.333 32.834 67 51.501l19 -59c-20 -29.333 -47 -52 -81 -68
s-70 -24 -108 -24c-35.333 0 -70.333 6.16699 -105 18.5s-68.834 26 -102.501 41s-67 28.5 -100 40.5s-65.167 18 -96.5 18c-37.333 0 -70.833 -7.66699 -100.5 -23s-51.834 -32.666 -66.501 -51.999z" />
    <glyph glyph-name="notequal" unicode="&#x2260;" 
d="M170 494v75h348l107 245h-455v76h487l120 273h73l-119 -273h286v-76h-320l-106 -245h426v-75h-459l-121 -278h-73l120 278h-314z" />
    <glyph glyph-name="lessequal" unicode="&#x2264;" 
d="M164 82v75h768v-75h-768zM164 706v39.998l768 383v-63c0 -7.33301 -2.16699 -14.166 -6.5 -20.499s-12.5 -12.166 -24.5 -17.499l-563 -277c-11.333 -5.33301 -23.666 -10 -36.999 -14s-27.333 -7.66699 -42 -11c14.667 -3.33301 28.667 -7 42 -11s25.666 -9 36.999 -15
l562 -278c11.333 -6 19.5 -11.833 24.5 -17.5s7.5 -12.167 7.5 -19.5v-64z" />
    <glyph glyph-name="greaterequal" unicode="&#x2265;" 
d="M256 82v75h768v-75h-768zM256 321v64.0039c0 7.33301 2.16699 14 6.5 20s12.5 11.667 24.5 17l563 278c11.333 5.33301 23.5 10.166 36.5 14.499s26.833 8.16602 41.5 11.499c-14.667 3.33301 -28.5 6.83301 -41.5 10.5s-25.167 8.5 -36.5 14.5l-563 277
c-11.333 5.33301 -19.333 11.166 -24 17.499s-7 13.166 -7 20.499v63l768 -383v-40z" />
    <glyph glyph-name="lozenge" unicode="&#x25ca;" 
d="M148 694l412 852h68l411 -852l-411 -852h-68zM232 694l340.001 -701c5.33301 -10 9.66602 -20 12.999 -30s6 -20 8 -30l8.5 28.5c3 9.66699 7.16699 20.167 12.5 31.5l342 701l-342 702c-5.33301 10.667 -9.5 20.834 -12.5 30.501l-8.5 28.5
c-2.66699 -9.33301 -5.66699 -18.833 -9 -28.5s-7.33301 -19.834 -12 -30.501z" />
    <glyph glyph-name="uniE000" unicode="&#xe000;" horiz-adv-x="1018" 
d="M0 0v1019h1019v-1019h-1019z" />
    <glyph glyph-name="glyph1" horiz-adv-x="0" 
 />
    </font>
</defs>
</svg>
